<?xml version="1.0" encoding="UTF-8" standalone="no"?>
<!DOCTYPE svg PUBLIC "-//W3C//DTD SVG 1.1//EN" "http://www.w3.org/Graphics/SVG/1.1/DTD/svg11.dtd">
<svg width="100%" height="100%" viewBox="0 0 25 113" version="1.1" xmlns="http://www.w3.org/2000/svg" xmlns:xlink="http://www.w3.org/1999/xlink" xml:space="preserve" xmlns:serif="http://www.serif.com/" style="fill-rule:evenodd;clip-rule:evenodd;stroke-linejoin:round;stroke-miterlimit:2;">
    <g transform="matrix(1,0,0,1,-0.113898,-0.484537)">
        <g transform="matrix(-1.24643,1.45711e-16,-1.45711e-16,-1.24643,74.7875,118.893)">
            <g>
                <g>
                    <path d="M49.536,52.385C50.357,49.294 51.486,46.378 52.731,43.414C53.155,42.405 53.574,41.385 53.964,40.355C55.388,38.453 57.578,36.959 58.347,34.645C58.393,34.505 58.185,34.457 58.131,34.586C57.322,36.535 55.557,37.734 54.329,39.354C54.96,37.566 55.472,35.739 55.702,33.854C55.719,33.719 55.487,33.687 55.463,33.822C54.92,36.851 53.891,39.685 52.729,42.511C52.848,41.469 52.739,40.405 52.716,39.354C52.677,37.531 52.74,35.716 53.052,33.915C53.066,33.833 52.945,33.796 52.925,33.88C52.563,35.372 52.426,36.863 52.401,38.397C52.373,40.058 52.575,41.774 52.282,43.417C52.274,43.461 52.286,43.498 52.308,43.526C51.327,45.858 50.242,48.246 49.555,50.714C49.619,44.182 49.539,37.648 49.304,31.12C49.351,31.115 49.396,31.084 49.396,31.02C49.419,28.418 50.193,26.034 51.182,23.712C51.217,23.81 51.335,23.883 51.444,23.818C56.28,20.923 58.65,14.599 59.906,9.421C59.943,9.269 59.712,9.204 59.671,9.356C58.933,12.084 57.964,14.757 56.583,17.23C55.184,19.736 53.374,21.585 51.279,23.486C52.937,19.652 55.138,15.972 55.468,11.738C55.489,11.469 55.08,11.476 55.053,11.738C54.812,14.015 54.02,16.153 53.091,18.252C52.948,13.807 53.159,9.549 53.903,5.14C53.926,5.001 53.726,4.939 53.687,5.08C52.506,9.449 52.132,14.289 52.759,18.776C52.765,18.819 52.787,18.848 52.814,18.869C51.31,22.177 49.568,25.414 49.22,28.977C49.177,27.94 49.135,26.904 49.085,25.868C48.768,19.376 48.28,12.9 47.627,6.433C47.606,6.229 47.286,6.224 47.303,6.433C48.132,16.613 48.672,26.809 48.884,37.01C48.155,34.36 47.029,31.811 45.866,29.276C46.004,29.231 46.076,29.021 45.913,28.946C45.823,28.905 45.739,28.852 45.651,28.808C44.8,26.959 43.942,25.114 43.219,23.239C43.23,23.227 43.244,23.219 43.249,23.2C43.998,20.247 44.001,17.006 43.648,13.995C43.63,13.843 43.395,13.835 43.404,13.995C43.572,16.987 43.336,19.859 43.065,22.825C41.819,19.494 41.028,16.062 41.483,12.338C41.501,12.187 41.238,12.15 41.216,12.302C40.407,17.998 42.482,23.182 44.769,28.314C42.735,27.028 41.157,25.009 40.33,22.77C40.277,22.627 40.05,22.686 40.099,22.834C40.982,25.491 42.68,27.454 45.008,28.85C46.449,32.065 47.937,35.266 48.812,38.566C48.829,38.632 48.867,38.674 48.912,38.699C49.035,45.844 48.996,52.992 48.78,60.137C48.024,58.453 47.328,56.745 46.714,55.008C46.752,54.955 46.763,54.885 46.713,54.808C46.669,54.741 46.62,54.677 46.575,54.611C46.048,53.085 45.584,51.537 45.207,49.962C45.202,49.939 45.197,49.916 45.192,49.893C45.194,49.882 45.204,49.877 45.203,49.864C45.12,46.262 46.332,42.761 46.016,39.151C46.003,39.007 45.778,39.004 45.788,39.151C46.012,42.333 44.971,45.413 44.899,48.572C44.208,45.239 43.795,41.842 42.502,38.668C42.454,38.549 42.258,38.598 42.306,38.722C43.754,42.512 44.017,46.587 44.94,50.511C45.181,51.534 45.455,52.548 45.76,53.553C44.98,52.63 44.12,51.77 43.412,50.785C42.358,49.319 41.651,47.664 41.232,45.913C41.195,45.757 40.96,45.824 40.993,45.979C41.343,47.63 41.943,49.205 42.844,50.636C43.774,52.111 45.042,53.318 46.114,54.684C46.827,56.838 47.703,58.935 48.754,60.95C48.591,66.03 48.344,71.11 47.998,76.186C47.761,79.656 47.437,83.156 47.421,86.644C47.094,85.846 46.789,85.041 46.508,84.23C46.585,84.197 46.642,84.105 46.599,84.003C46.475,83.713 46.32,83.44 46.156,83.172C45.57,81.345 45.098,79.489 44.739,77.61C44.539,75.771 45.335,74.084 45.719,72.314C46.05,70.791 46.128,69.256 46.001,67.704C45.99,67.565 45.772,67.562 45.781,67.704C45.907,69.727 45.657,71.668 45.038,73.598C44.795,74.355 44.558,75.088 44.43,75.833C44.06,73.405 43.875,70.943 43.876,68.461C43.876,68.332 43.681,68.333 43.676,68.461C43.487,73.059 44.068,77.651 45.358,82.048C44.637,81.143 43.826,80.284 43.246,79.298C42.139,77.417 41.466,75.341 41.193,73.18C41.171,73.005 40.894,73 40.913,73.18C41.119,75.13 41.633,77.017 42.504,78.778C43.346,80.479 44.668,81.758 45.732,83.259C46.216,84.746 46.78,86.208 47.426,87.637C47.458,90.047 47.654,92.449 48.15,94.829C48.212,95.126 48.651,94.997 48.601,94.705C47.692,89.456 48.015,84.173 48.389,78.894C48.997,77.082 50.072,75.545 51.043,73.883C51.348,73.361 51.645,72.833 51.937,72.303C51.989,72.31 52.043,72.291 52.078,72.229C52.681,71.162 53.738,70.556 54.569,69.689C55.147,69.086 55.669,68.429 56.117,67.724C57.158,66.087 57.793,64.252 58.06,62.335C58.085,62.153 57.809,62.071 57.779,62.257C57.456,64.278 56.716,66.179 55.541,67.86C54.918,68.75 54.201,69.524 53.402,70.256C53.147,70.49 52.898,70.712 52.663,70.943C53.154,69.99 53.618,69.023 54.044,68.039C55.633,64.374 56.638,60.515 56.516,56.501C56.511,56.35 56.279,56.349 56.28,56.501C56.309,59.434 55.745,62.287 54.808,65.03C55.09,62.367 54.031,59.585 54.88,56.939C54.92,56.813 54.726,56.762 54.683,56.885C53.592,60.069 54.973,63.451 54.13,66.69C54.118,66.736 54.127,66.773 54.147,66.801C53.808,67.639 53.439,68.466 53.043,69.28C52.118,71.181 51.063,73.018 49.961,74.822C49.477,75.614 48.927,76.417 48.502,77.266C48.893,71.691 49.181,66.108 49.356,60.522C49.441,57.81 49.499,55.098 49.536,52.385Z" style="fill:rgb(131,197,190);fill-rule:nonzero;"/>
                </g>
            </g>
        </g>
    </g>
</svg>
