<?xml version="1.0" encoding="UTF-8" standalone="no"?>
<!DOCTYPE svg PUBLIC "-//W3C//DTD SVG 1.1//EN" "http://www.w3.org/Graphics/SVG/1.1/DTD/svg11.dtd">
<svg width="100%" height="100%" viewBox="0 0 5015 3343" version="1.1" xmlns="http://www.w3.org/2000/svg" xmlns:xlink="http://www.w3.org/1999/xlink" xml:space="preserve" xmlns:serif="http://www.serif.com/" style="fill-rule:evenodd;clip-rule:evenodd;stroke-linejoin:round;stroke-miterlimit:2;">
    <g transform="matrix(0.973366,0,0,0.973366,67.2424,37.475)">
        <g transform="matrix(3.26485,0,0,3.26485,0,0)">
            <path d="M838.077,376.127C867.66,351.116 893.663,306.272 881.363,266.619C875.627,248.127 863.812,237.521 866.452,216.098C868.072,202.949 878.003,182.009 888.782,173.843C890.933,172.214 892.257,171.834 894.812,172.151C895.861,173.061 896.541,173.754 896.969,175.11C898.461,179.837 895.153,200.866 896.318,210.4C899.448,236.018 915.818,244.742 927.019,264.059C929.518,268.371 931.846,272.884 933.493,277.593C934.469,280.385 934.585,283.093 936.125,285.711C938.104,286.499 940.051,285.901 942.024,285.215C973.126,274.394 1006.3,245.639 1020.6,216.003C1040.9,173.924 1043.67,120.08 1014.22,81.481C1006.67,71.579 993.486,61.872 989.503,49.998C988.198,46.108 987.786,41.641 989.849,37.927C991.714,34.57 994.282,33.37 997.788,32.41C1004.56,32.885 1009.72,36.585 1015.04,40.517C1032.84,53.658 1046.8,67.326 1056.41,87.462C1058.64,92.127 1061.14,97.465 1061.92,102.594C1064.41,100.976 1066.56,96.667 1068.59,94.347C1070.88,91.734 1074.6,90.023 1078.06,89.904C1080.18,89.831 1082.07,90.61 1083.59,92.076C1086.99,95.349 1088.39,101.592 1089.28,106.037C1092.14,120.181 1088.33,139.317 1081.1,151.958C1077.37,158.497 1072.44,165.436 1070.17,172.658C1068.54,177.855 1068.81,184.946 1069.09,190.419C1069.26,193.712 1069.11,197.862 1071.72,200.239C1074.88,200.189 1078.31,197.075 1080.72,195.161C1111.64,170.6 1136.23,121.434 1135.74,81.777C1135.6,70.445 1130.18,56.929 1131.52,46.652C1131.92,43.602 1133.03,40.439 1135.65,38.611C1139.61,35.855 1144.19,36.644 1148.63,37.275C1154.11,40.208 1157.59,45.788 1159.97,51.364C1170.48,75.935 1169.34,113.43 1161.32,138.63C1149.63,175.545 1128.58,208.8 1100.22,235.151C1086.36,247.857 1070.59,257.928 1055.07,268.389C1047.83,273.278 1040.8,278.523 1033.48,283.301C994.954,308.439 955.163,332.16 923.613,366.149C911.905,378.762 899.259,394.683 892.872,410.794C893.984,411.2 895.1,411.598 896.219,411.989C905.023,415.135 918.234,415.932 926.842,412.11C938.579,406.899 947.93,394.5 957.218,385.784C967.295,376.326 979.841,366.316 992.188,360.136C995.902,358.277 1000.15,357.284 1004.07,355.956C1042.48,342.968 1078.98,350.592 1117.91,344.936C1129.74,343.217 1152.9,334.274 1161.18,334.499C1162.76,334.541 1164.51,335.081 1165.55,336.337C1166.21,337.13 1166.93,338.302 1166.81,339.345C1166.25,344.083 1144.76,363.121 1140.48,368.106C1136.8,372.4 1133.61,377.23 1130.44,381.916C1117.35,401.293 1110.54,424.121 1095.75,442.334C1068.11,476.346 1034.75,493.053 991.552,498.021C967.609,500.775 956.095,498.301 936.16,514.327C911.041,534.522 919.198,545.653 915.086,573.82C914.14,580.305 912.565,587.204 910.365,593.378C908.271,599.254 904.314,606.186 903.863,612.419C903.391,618.941 904.059,626.022 904.266,632.573C905.411,665.549 909.561,698.351 916.665,730.572C925.048,767.251 936.387,791.063 931.751,830.412C925.563,882.929 889.871,919.718 846.109,945.48C834.317,952.422 821.381,957.306 809.714,964.471C800.73,969.988 791.352,976.143 783.151,982.769C777.9,987.012 773.161,991.795 767.826,995.96C759.376,988.551 751.271,980.536 741.896,974.296C709.059,952.437 670.375,938.187 642.253,909.602C633.302,900.505 625.883,889.036 619.863,877.837C595.973,833.395 603.49,797.005 614.904,750.77C618.577,735.892 622.023,720.79 625.256,705.805C629.525,686.019 631.657,667.045 632.629,646.867C633.176,635.498 634.649,619.65 631.692,608.753C629.516,600.736 625.415,593.965 623.735,585.622C620.527,569.693 620.118,553.981 620.124,537.807C618.771,535.55 617.273,533.382 615.639,531.319C608.128,521.787 594.102,505.842 581.977,502.983C574.483,501.216 565.575,502.199 557.842,501.267C511.548,495.686 469.996,479.065 440.695,441.538C431.325,432.251 418.414,408.419 412.36,396.232C408.045,387.547 403.884,375.855 396.966,368.991C390.661,362.734 371.835,348.562 371.509,339.96C371.394,336.917 374.1,334.555 375.981,332.435C383.331,333.914 390.574,336.471 397.859,338.321C407.47,340.763 417.54,342.211 427.388,343.27C444.826,345.146 462.052,344.731 479.51,345.554C507.153,346.789 534.144,354.352 558.407,367.659C571.001,374.65 583.665,385.858 594.025,395.944C599.832,401.598 605.186,412.238 612.529,415.561C614.936,415.813 617.054,414.295 619.129,413.202C625.021,410.097 632.895,412.71 638.378,408.819C639.705,404.287 633.305,395.944 630.811,392.041C626.313,385.002 621.855,377.555 616.462,371.166C605.337,357.985 591.47,346.891 577.894,336.394C561.385,323.485 544.38,311.225 526.917,299.642C502.106,283.489 476.161,268.8 453.329,249.804C424.281,225.636 393.341,193.808 379.813,157.683C376.004,147.515 372.313,136.463 370.357,125.749C366.207,103.017 367.664,64.268 377.465,43.113C379.314,39.123 381.465,35.931 385.863,34.488C389.282,33.365 393.639,33.443 396.78,35.329C399.963,37.24 401.335,40.892 401.849,44.401C402.972,52.064 401.234,60.73 400.778,68.471C399.827,82.445 400.803,96.483 403.679,110.191C409.916,140.119 422.785,161.706 444.282,183.347C450.652,189.76 457.55,196.64 465.193,201.531L465.908,201.981C467.119,193.71 469.137,181.537 465.838,173.676C464.103,169.541 461.009,165.886 459.12,161.753C451.593,145.287 444.624,115.767 451.517,98.382C452.368,96.234 453.895,93.951 456.172,93.14C461.629,91.195 468.115,97.319 472.652,99.692C476.671,97.573 480.911,81.138 484.382,76.031C493.396,62.771 517.763,35.839 533.835,33.128C536.931,32.605 540.145,33.158 542.626,35.178C545.252,37.316 546.589,40.552 546.887,43.866C548.006,56.324 535.541,64.532 528.639,73.248C524.401,78.6 520.912,84.831 517.339,90.651C501.38,116.648 496.516,137.72 500.233,168.267C504.443,202.871 522.859,239.954 550.786,261.463C557.104,266.329 592.969,288.813 599.431,288.022C603.328,282.069 604.648,271.348 608.52,264.084C610.938,259.547 614.909,256.028 618.056,251.984C627.007,240.484 636.698,225.314 639.846,211.015C640.899,206.275 641.328,201.417 641.121,196.566C640.759,189.566 637.924,181.231 640.927,174.592C641.96,173.777 642.415,173.093 643.828,173.215C647.108,173.498 651.181,177.686 653.239,180.054C657.994,185.523 660.806,192.285 663.941,198.743C683.277,238.567 653.848,249.748 651.49,283.421C648.836,321.319 673.681,348.437 696.688,374.936C721.15,377.537 746.323,386.429 770.91,385.442C791.965,384.596 818.442,375.81 838.077,376.127ZM1000.37,46.194C1000.46,46.395 1000.55,46.598 1000.64,46.796C1005.3,56.473 1018.98,67.937 1025.92,77.219C1052.59,112.842 1054.16,161.427 1040.59,202.609C1026.95,243.978 996.698,272.527 958.162,291.553C949.043,296.056 939.41,298.503 930.174,302.546L929.676,303.211C925.104,309.41 922.393,319.738 915.831,323.855L913.792,324.056C912.982,323.172 912.792,323.147 912.812,321.932C912.938,314.325 921.92,299.067 925.306,292.049C922.375,287.158 921.308,281.94 918.916,276.899C904.641,292.492 898.875,311.369 888.997,329.544C878.44,348.967 865.741,365.616 851.42,382.414C858.023,392.651 869.257,401.869 880.415,406.79C885.595,397.957 890.467,388.901 896.189,380.4C921.556,342.712 953.114,321.739 989.772,296.657C995.715,292.591 1021.25,276.694 1024.26,273.666C1034.82,267.267 1044.95,259.919 1055.12,252.922C1091.89,227.617 1120.65,203.24 1139.59,162.035C1144.64,151.049 1148.7,140.906 1151.6,129.099C1156.82,107.825 1157.43,69.803 1145.73,51.038C1145.24,50.257 1144.52,49.999 1143.74,49.529L1142.98,50.358C1144.72,59.043 1146.77,67.567 1147.39,76.43C1149.79,110.546 1136.18,143.885 1117.55,171.827C1105.95,189.242 1093.6,203.314 1074.96,213.346C1071.44,215.243 1067.58,217.674 1063.7,218.707C1063.21,222.189 1050.93,241.553 1047.97,243.983C1046.7,245.027 1046.21,244.866 1044.68,244.769C1043.49,243.852 1042.81,243.657 1042.62,242.008C1042.01,236.858 1049.24,228.057 1051.17,222.996C1053.05,218.091 1056.65,213.13 1057.8,208.075C1060.33,196.833 1054.81,184.599 1057.26,173.135C1058.56,167.007 1061.67,161.618 1064.63,156.174C1072.95,140.869 1079.93,125.288 1075.82,107.428L1075.06,107.701L1075.97,107.768L1075.45,107.417C1070.33,113.287 1067.79,124.731 1059.66,127.178C1057.72,126.79 1057.01,126.658 1055.82,124.906C1053.11,120.958 1051.73,107.629 1049.7,101.939C1047.29,95.192 1044.33,88.683 1040.28,82.743C1033.68,73.045 1011.61,49.851 1000.37,46.194ZM388.47,50.676C386.342,54.563 385.688,59.908 384.75,64.215C379.131,90.008 381.363,115.623 388.744,140.844C390.876,148.129 393.153,155.682 396.358,162.569C429.679,234.167 522.818,277.569 583.908,324.015C599.045,335.523 614.776,348.339 627.114,362.894C638.055,375.801 645.18,390.138 652.821,405.025C665.422,399.206 676.672,393.933 685.334,382.623C676.166,370.649 665.591,360.344 657.315,347.591C652.835,340.698 648.808,333.521 645.258,326.106C640.95,317.131 627.742,281.134 617.128,279.321C615.107,281.206 614.496,283.066 614.404,285.82C614.023,297.31 625.121,318.738 623.904,322.532C621.429,322.695 619.949,321.595 618.121,319.993C613.612,316.038 611.443,310.479 608.836,305.203C597.464,301.772 586.765,297.515 576.346,291.786C547.713,277.289 524.355,257.91 508.163,229.933C504.467,223.547 500.599,216.459 498.283,209.46C489.096,181.696 483.627,159.703 488.729,130.45C491.627,113.833 492.559,110.069 500.563,94.384C507.923,79.96 517.878,65.508 528.16,53.042C525.368,52.806 522.857,54.632 520.816,56.348C497.326,76.106 489.123,91.567 481.002,120.856C479.956,124.625 478.865,127.719 474.717,128.706C472.005,128.332 470.457,127.038 468.814,124.9C465.263,120.281 463.15,114.502 461.113,109.101C461.96,125.8 463.846,140.792 471.347,156.008C473.641,160.662 477.882,165.534 479.114,170.515C481.682,180.9 479.982,192 481.003,202.557C481.619,208.926 484.19,215.793 486.089,221.898C487.11,225.18 492.572,235.919 491.675,238.541C491.484,239.1 491.098,239.573 490.809,240.089C488.843,240.803 487.328,240.976 485.37,240.049C478.576,236.831 476.682,226.108 471.205,221.202C464.154,214.886 454.986,210.434 447.467,204.54C423.872,186.046 404.51,158.796 395.788,130.045C390.209,111.65 388.613,98.845 388.565,79.378C388.558,76.415 389.866,52.778 389.565,52.029C389.35,51.49 388.835,51.127 388.47,50.676ZM883.004,206.785C878.61,217.732 877.487,227.809 882.141,238.881C885.888,247.794 891.819,255.475 894.782,264.786C897.261,272.573 896.94,280.969 899.425,288.809C899.645,289.504 899.86,290.19 900.099,290.879L905.883,283.799C909.485,279.43 913.103,275.017 918.116,272.204C904.846,256.283 892.548,241.406 885.92,221.366C884.358,216.643 884.682,211.364 883.004,206.785ZM653.435,207.979C650.066,234.314 632.943,250.325 620.053,272.063C624.88,275.692 628.883,279.134 632.363,284.131L636.675,290.86C637.92,281.271 638.584,270.817 642.053,261.755C649.136,243.251 666.866,229.183 653.435,207.979ZM406.907,355.437C417.646,364.902 426.225,376.564 432.064,389.634C435.503,397.299 438.475,405.299 442.644,412.606C450.331,426.078 462.531,441.561 474.432,451.48C504.772,476.769 548.368,488.108 587.329,485.791C598.751,485.112 610.891,483.785 620.021,476.191C624.495,471.4 630.33,464.488 629.915,457.467C629.329,447.538 576.59,399.209 567.187,391.703C560.658,386.491 552.746,382.207 545.359,378.325C510.5,360.001 485.851,364.285 448.365,361.275C434.923,360.196 421.712,356.279 408.289,355.606C407.573,355.571 407.817,355.58 406.907,355.437ZM1121.94,358.214C1121.8,358.257 1121.66,358.303 1121.51,358.343C1104.74,363.083 1077.73,359.949 1059.58,360.851C1024.98,362.572 992.216,373.766 965.847,396.63C955.698,405.43 946.635,415.644 936.95,424.964C925.902,435.596 912.819,445.628 902.796,457.129C906.055,464.492 909.507,470.63 915.701,476.008C920.154,479.185 925.032,482.488 930.373,483.919C941.336,486.856 975.581,483.99 987.934,481.938C997.456,480.356 1006.16,477.631 1015.28,474.542C1047.05,463.784 1070.82,446.242 1089.91,418.61C1097.83,407.142 1102.09,392.8 1109.18,380.803C1112.46,375.266 1122.77,364.396 1123.62,358.675L1121.94,358.214ZM697.126,391.496C689.781,398.574 682.127,405.676 673.138,410.643C663.2,416.133 651.361,419.877 640.489,423.108C637.448,424.012 629.445,425.454 627.385,427.42C627.028,427.76 626.559,429.334 626.331,429.863C626.37,433.588 628.657,436.312 631.233,438.776C634.849,442.235 640.281,445.352 642.833,449.621C642.716,452.166 634.178,471.568 632.221,474.817C630.406,477.786 628.185,480.487 625.624,482.843C621.961,486.229 608.624,494.39 607.046,497.355C607.968,501.359 612.206,503.542 615.413,505.664C631.359,498.146 646.497,487.495 664.922,494.3C676.365,498.527 686.283,508.747 691.232,519.771C697.757,534.307 700.48,552.465 699.853,568.247C696.883,564.807 691.57,554.281 687.175,553.93C677.656,553.17 667.257,568.768 650.608,552.198C640.184,541.823 638.023,527.101 630.892,514.728C643.529,510.468 659.017,510.557 671.119,516.517C677.237,519.529 682.135,523.619 687.076,528.222C682.034,517.837 675.595,509.746 664.353,505.771C653.653,501.987 639.371,503.243 629.192,508.151C627.443,508.994 625.898,509.928 624.935,511.65C626.835,517.983 631.15,523.762 632.672,530.079C635.245,540.754 634.228,553.121 635.545,564.111C636.731,574.008 638.442,585.166 641.28,594.713C646.742,613.085 659.14,638.088 669.267,654.428C672.41,659.498 675.75,664.58 679.823,668.954C684.231,673.689 689.261,677.682 692.839,683.141C695.213,662.688 700.647,647.492 717.239,634.309C719.956,632.15 722.706,630.024 725.688,628.24C725.863,618.632 726.402,609.563 723.885,600.15C719.054,582.083 709.009,572.796 706.736,551.517C706.424,548.593 705.722,544.887 707.659,542.481C709.036,542.955 709.181,543.122 709.841,544.461C711.788,548.408 712.627,553.146 714.602,557.297C726.303,581.886 732.378,584.893 732.78,614.212C732.848,619.182 733.436,625.153 731.756,629.902C728.658,638.661 718.331,644.83 713.237,652.567C704.411,665.975 703.352,685.074 703.761,700.697C703.865,704.67 703.619,709.202 705.262,712.903C707.059,716.954 710.958,719.453 715.008,720.864C723.99,723.996 734.776,723.125 743.241,718.896C747.095,716.971 750.761,715 752.976,711.154C753.19,709.119 753.367,708.286 752.08,706.525C750.099,703.813 746.005,701.949 743.125,700.222C728.817,691.645 719.027,682.047 720.527,664.247C720.808,660.907 721.852,657.91 724.558,655.771C727.734,653.259 731.931,651.949 735.922,651.597C745.488,650.754 754.997,654.189 764.565,654.179C776.124,654.167 788.536,649.96 799.87,651.737C804.502,652.464 809.759,654.252 812.569,658.24C816.092,663.24 815.068,671.019 813.884,676.651C813.565,678.173 813.071,679.665 812.568,681.135C809.912,685.68 807.101,689.554 802.984,692.894C797.265,697.534 785.771,701.372 781.679,707.116C780.868,708.255 781.129,708.941 781.239,710.259C783.896,715.103 790.897,719.144 796.104,720.661C804.008,722.963 814.789,725.205 822.334,720.979C826.789,718.484 829.775,714.312 831.067,709.418C834.98,694.59 829.977,666.027 822.22,653.286C818.758,647.599 813.016,643.257 808.846,638.057C798.958,625.729 802.914,601.63 806.342,587.25C808.252,579.24 813.697,572.282 817.394,565.013C821.047,557.83 824.033,550.373 826.923,542.857L827.802,542.39C831.581,550.483 827.397,562.796 824.496,570.78C815.251,596.224 807.211,596.47 810.737,628.615C827.194,642.324 838.872,653.217 841.569,675.514C841.914,678.368 841.659,680.12 844.814,680.987C850.381,679.816 864.748,659.281 868.269,653.892C879.854,636.157 892.934,606.893 896.899,586.048C901.738,560.611 901.985,539.613 909.663,513.771C899.455,506.065 895.569,501.056 881.583,502.952C871.471,504.323 861.114,509.373 854.931,517.684C852.827,520.513 851.616,523.962 850.34,527.218C863.277,516.228 874.14,509.515 891.877,511.082C896.635,511.545 901.323,512.565 905.844,514.122C899.947,527.352 894.502,553.379 879.727,558.8C867.757,563.191 852.26,550.636 845.904,554.411C842.036,556.708 840.983,563.557 836.804,566.345C836.191,566.017 835.83,566.047 835.64,565.339C833.281,556.549 840.146,522.936 845.633,514.184C851.713,504.484 866.44,494.166 877.611,492.108C881.98,491.322 886.463,491.432 890.787,492.433C899.215,494.304 925.662,507.388 931.669,498.385C932.447,497.22 932.041,496.437 931.807,495.174C929.937,492.562 926.744,491.074 924.025,489.49C910.882,481.834 905.306,476.829 898.052,463.43C896.129,459.878 893.213,455.733 892.635,451.717C893.794,446.576 909.718,438.35 909.3,428.503L908.44,427.283C901.509,426.169 894.036,425.401 887.287,423.543C869.67,418.694 853.572,404.24 840.77,391.901C815.145,393.036 789.822,401.309 764.138,400.73C748.278,400.373 732.206,396.684 716.583,394.045C710.259,392.977 703.547,391.485 697.126,391.496ZM875.317,519.81C873.232,520.401 870.377,520.963 869.16,522.946C868.045,524.763 868.4,525.57 868.924,527.471C870.853,529.917 873.157,530.569 876.113,531.156C878.113,530.421 880.117,529.633 881.22,527.671C882.317,525.719 882.079,524.702 881.672,522.646C880.596,521.24 879.727,520.33 877.918,520.016C877.063,519.868 876.182,519.839 875.317,519.81ZM655.41,520.743C653.448,522.252 652.128,523.225 651.34,525.699C651.57,527.689 651.649,528.451 653.39,529.739C655.588,531.365 658.573,530.934 661.123,530.779C663.109,529.657 664.285,529.053 665.259,526.939C665.268,524.95 665.344,524.039 663.784,522.548C661.842,520.692 659.149,520.3 656.592,520.58C656.197,520.625 655.803,520.68 655.41,520.743ZM648.31,651.569C647.034,661.864 647.747,672.268 646.495,682.571C645.683,689.246 643.478,695.61 642.105,702.173C640.19,711.321 638.866,720.587 636.914,729.725C628.128,770.863 613.662,798.54 623.47,841.91C627.358,859.1 634.152,873.58 644.973,887.535C654.442,899.746 666.542,909.747 679.049,918.723C685.077,923.048 692.261,926.255 698.798,929.81C714.224,938.197 729.973,946.352 744.677,955.964C750.357,959.676 763.283,972.895 768.086,973.64C769.318,973.831 771.942,971.29 772.962,970.466C778.054,966.35 782.926,961.66 788.399,958.061C821.942,936.013 863.353,921.861 889.541,890.176C895.153,883.386 899.471,875.538 903.936,867.969C909.118,857.26 913.9,845.459 916.082,833.722C923.103,795.964 904.671,749.19 897.029,711.991C892.909,691.941 892.707,671.704 889.402,651.61C882.666,659.413 877.518,668.371 870.995,676.327C863.185,685.854 853.517,694.081 844.508,702.464C843.834,708.347 842.72,715.268 840.06,720.628C837.003,726.791 830.497,730.637 826.35,736.037C820.567,743.567 819.042,752.574 811.273,758.828C794.961,771.959 769.552,771.59 749.707,769.29C736.933,767.809 725.301,762.805 717.255,752.473C712.938,746.93 710.26,740.629 707.978,734.042C699.792,728.817 694.62,722.371 692.398,712.812C691.55,709.161 691.322,705.34 690.7,701.637C681.401,692.211 671.215,683.691 663.077,673.173C657.794,666.345 655.483,656.841 648.31,651.569ZM729.529,668.458C728.936,671.304 729.338,674.299 730.881,676.81C732.664,679.71 736.104,681.203 739.331,681.858C742.502,682.503 746.002,681.951 749.192,681.64C747.525,677.118 735.034,670.922 730.509,668.832C730.042,668.617 729.955,668.598 729.529,668.458ZM804.633,668.477C800.518,671.124 788.189,676.826 786.865,680.783L787.93,682.486C793.484,682.544 798.595,682.328 802.9,678.242C804.471,676.75 805.749,674.864 805.753,672.636C805.755,671.068 805.639,669.731 804.633,668.477ZM762.132,727.179C748.692,729.113 735.967,733.198 722.335,734.301C726.503,743.334 732.269,749.518 741.729,753.056C752.241,756.988 763.697,756.334 774.724,756.176C788.655,754.084 800.598,751.96 809.591,739.934C810.802,738.314 811.835,736.55 812.858,734.807C796.839,733.237 777.606,725.085 762.132,727.179Z" style="fill:rgb(131,197,190);fill-rule:nonzero;"/>
        </g>
        <g transform="matrix(3.26485,0,0,3.26485,0,0)">
            <path d="M721.338,527.606C715.344,506.02 702.558,492.826 681.929,484.501C676.654,482.372 670.204,480.606 665.718,477.12C664.62,474.954 664.982,474.221 665.292,471.865C670.291,472.117 675.327,473.022 680.17,474.292C695.196,478.231 710.113,486.8 717.996,500.626C722.62,508.828 723.821,518.524 721.338,527.606Z" style="fill:rgb(131,197,190);fill-rule:nonzero;"/>
        </g>
        <g transform="matrix(3.26485,0,0,3.26485,0,0)">
            <path d="M815.71,520.633C815.324,522.94 814.824,525.071 814.077,527.289L813.399,527.217C813.121,526.122 812.867,525.022 812.697,523.904C811.162,513.816 814.388,503.076 820.53,495.057C830.937,481.471 845.809,475.946 862.213,473.716C865.046,473.672 868.424,473.15 870.747,474.843L870.625,476.582C867.286,481.68 854.16,483.506 848.482,485.899C832.166,492.774 822.308,504.506 815.71,520.633Z" style="fill:rgb(131,197,190);fill-rule:nonzero;"/>
        </g>
        <g transform="matrix(3.26485,0,0,3.26485,0,0)">
            <path d="M876.113,531.156C873.157,530.569 870.853,529.917 868.924,527.471C868.4,525.57 868.045,524.763 869.16,522.946C870.377,520.963 873.232,520.401 875.317,519.81C876.182,519.839 877.063,519.868 877.918,520.016C879.727,520.33 880.596,521.24 881.672,522.646C882.079,524.702 882.317,525.719 881.22,527.671C880.117,529.633 878.113,530.421 876.113,531.156Z" style="fill:white;fill-rule:nonzero;"/>
        </g>
        <g transform="matrix(3.26485,0,0,3.26485,0,0)">
            <path d="M661.123,530.779C658.573,530.934 655.588,531.365 653.39,529.739C651.649,528.451 651.57,527.689 651.34,525.699C652.128,523.225 653.448,522.252 655.41,520.743C655.803,520.68 656.197,520.625 656.592,520.58C659.149,520.3 661.842,520.692 663.784,522.548C665.344,524.039 665.268,524.95 665.259,526.939C664.285,529.053 663.109,529.657 661.123,530.779Z" style="fill:white;fill-rule:nonzero;"/>
        </g>
        <g transform="matrix(3.26485,0,0,3.26485,0,0)">
            <path d="M735.332,904.697C706.567,882.259 683.852,849.074 673.382,814.124C668.526,797.914 663.351,763.447 671.453,748.427C673.193,751.178 673.621,770.663 674.387,775.803C676.908,792.729 681.638,808.161 689.342,823.438C695.195,835.044 701.971,849.272 708.456,860.336C712.535,867.296 736.797,899.588 736.217,904.988L735.332,904.697Z" style="fill:rgb(131,197,190);fill-rule:nonzero;"/>
        </g>
        <g transform="matrix(3.26485,0,0,3.26485,0,0)">
            <path d="M801.812,904.2C800.601,904.664 800.523,904.66 799.266,904.335C799.135,899.679 811.244,884.094 814.318,879.524C828.075,859.072 845.416,828.428 853.469,805.225C859.771,787.065 862.223,768.34 861.865,749.19L862.846,750.072C866.574,760.8 866.832,773.096 866.103,784.367C863.012,832.17 837.107,873.14 801.812,904.2Z" style="fill:rgb(131,197,190);fill-rule:nonzero;"/>
        </g>
    </g>
</svg>
