<svg id="Layer_1" data-name="Layer 1" xmlns="http://www.w3.org/2000/svg" width="83.41" height="68.17" viewBox="0 0 83.41 68.17"><path d="M10.89,54.33c1.63-.5,5.27-1.72,6.57-2.69a23.57,23.57,0,0,1,3.62-2.23c9.7-5.19,4.37-.87,20.18-8.44a.15.15,0,0,0,.05-.06l.91-3.08c-.32.88-.66,1.81-1.08,3l-2,.82L36.57,41a9.53,9.53,0,0,1-1.37-2.55c-2.21-5.55-1-7.42-8.49-11.3a6.71,6.71,0,0,0,1.5.42.29.29,0,0,0,.18-.35c-.21-.64-.41-1.26-.62-1.87,1.05,1.78,3.88,4.37,5.46,5.7a.16.16,0,0,0,.24-.21,6.09,6.09,0,0,1-.83-2.18c-.24-1.55,1.7-7.9,2.19-9.28s-.57-4.83-1.08-6.27c.38,1.34,1.41,4.91.83,6.18C34,20.94,32,27,32.29,28.75a6.29,6.29,0,0,0,.52,1.55c-1.05-.89-2.06-1.78-3-2.67-2.38-2.47-2-2.1-2.72-4.17a7.73,7.73,0,0,0,1.67-3.63,5.17,5.17,0,0,0-1.74,3.42c-.41-1.18-.8-2.3-1.18-3.34.5,2.06,1.12,4.43,1.83,7-5-1.72-9.84-7.5-11.15-11.86a13.76,13.76,0,0,0,2.76-5.3,14.07,14.07,0,0,0-2.83,5.06A6.53,6.53,0,0,0,15,11.84a3,3,0,0,0-2.31-1A3,3,0,0,1,14.84,12c1.63,1.94.38,3.63,3.9,8.54A13.34,13.34,0,0,0,20,23.36a11.29,11.29,0,0,0-5.85-.82A7.84,7.84,0,0,1,11.94,21a1.67,1.67,0,0,0,.84,1.61c-2,0-4-.08-5.63-.13a20.88,20.88,0,0,0,6.79.83,17.77,17.77,0,0,1,6.16.24,6.66,6.66,0,0,0,1.84,2,63.84,63.84,0,0,1,7,3.73c4.74,3.14,3.48,4.16,6,9.3A9,9,0,0,0,36.49,41l-6-1.37A15,15,0,0,1,29.07,36a.31.31,0,0,0-.44-.07,71.11,71.11,0,0,0-7.15,5.73c-1.65-.15-3.2-.22-4.58-.22-.15-.87-1-1.12-1.71-.14-1.18,1.63-.72,4.29.6,3.51.67.13,1.42.24,2.21.34a28.62,28.62,0,0,0-5,3c-1.38-.16-2.31-.24-2.55-.26a.54.54,0,0,0-.57.51v0C9.73,51.71,9.05,52,9,52.13l-1,0a.4.4,0,0,0-.36.24,3.78,3.78,0,0,0-.38,2.5c-1.31.32-2.6.6-3.83.82a27.17,27.17,0,0,0,7.5-1.32ZM19.06,21a20,20,0,0,0,5.66,5.2c-.84-.39-1.68-.76-2.48-1.11A9.91,9.91,0,0,1,19.06,21ZM13.29,52.92l-.29-.1.56,0Zm.56-.25c-1.11-.24-2.35-.45-3.69-.65a4.81,4.81,0,0,0,.53-1.39A1,1,0,0,0,12,50.49a1,1,0,0,0-1.27-.23c.08-.4.13-.8.17-1.2a73.09,73.09,0,0,0,9,.28,31.63,31.63,0,0,1-6.07,3.33ZM20,49.32c-.46-.11-.95-.2-1.45-.3a28,28,0,0,0,4.11-3.35,19.2,19.2,0,0,1,3.49.55A35.4,35.4,0,0,0,20,49.32ZM39,41.66c-2.1.86-4.36,1.75-6.7,2.61-1.4-1.07-4.35-1.67-6.08-2a2.47,2.47,0,0,0,.72-1.7A2.92,2.92,0,0,0,27.24,39,28.59,28.59,0,0,0,39,41.66Zm-8.85-2.08c-1.06-.24-2.06-.46-3-.64a.84.84,0,0,0-.55-.68c.68-.5,1.34-1,2-1.53a8.5,8.5,0,0,0,1.51,2.85Zm-4.87-.32a3.31,3.31,0,0,0-.23,2.81l0,0c-.76-.11-1.43-.24-3.47-.42,1.12-.67,2.38-1.5,3.68-2.42ZM16.62,43a2.81,2.81,0,0,0,.29-1.48c6.56,1.21,13.19,1.7,15.36,2.73a32.33,32.33,0,0,1-3.72,1.18,2,2,0,0,0-1.93-1,2,2,0,0,0,1.55,1.12,13.93,13.93,0,0,0-1.9.59c-2.28-1.5-7.71-1.69-10.44-1.36A3,3,0,0,0,16.62,43ZM18,45.16c1.32.17,3.58.42,4.54.51A17.4,17.4,0,0,0,18.47,49c-1.6-.31-3.4-.59-5.29-.81A28.67,28.67,0,0,0,18,45.16ZM8.25,53.07a17.87,17.87,0,0,0,4.11.18,46.74,46.74,0,0,1-5,1.53,6.57,6.57,0,0,1,.9-1.71Z" fill="#e9937a"/><path d="M22.55,59.21a1.13,1.13,0,0,0-.58-.14c-1.09.09-.83,2.33.56,3.36s2.22-.51,1-2c.22.69.41,1.93-.25,1.61l.09-.27A1.66,1.66,0,0,0,22.21,60a1,1,0,0,0-.18.41c0-.05,0-.11-.05-.17-.06-.31,0-.58.09-.6s.5.07.74.24a4,4,0,0,1,.68.62,2.28,2.28,0,0,0-.88-1.23,15.78,15.78,0,0,0,4.27-1.49,15.92,15.92,0,0,0-4.33,1.46Z" fill="#e9937a"/><path d="M43.51,40.67l.4,1.14c-8,5.06-10,4.26-14,6.13-3.42,1.55-8.8,4.74-10.63,8-1.65,2.45-7.07,5.55-9.64,6.94A22.52,22.52,0,0,0,7.9,60.61a70.89,70.89,0,0,0,7.84-5.19c3.19-1.52,6-3.64,7.36-6-4.25,5.5-14.35,7.95-20.56,9.18a35.5,35.5,0,0,0,12.34-2.74c-2.6,1.67-1.61,1-4.7,3s-2.13,1.12-2.82,1.47a.29.29,0,0,0-.14.44,17.6,17.6,0,0,1,2,2.83.35.35,0,0,0,.45.13c2.83-1.4,6.88-3.62,9.2-5.79a69.14,69.14,0,0,0,12.46-1,22,22,0,0,1-5.42,3.07c2.48-.35,5.44-2,8-4.12,1.48-1.37,1.77-1.69,7.95-3.78a25.6,25.6,0,0,0-4.68,1.08,27.56,27.56,0,0,0-7.3-3.91,21.33,21.33,0,0,1,3.31-1.26,36.13,36.13,0,0,0,4.21-.17c1.88,1,5.88,2.87,8,2.68A11.54,11.54,0,0,1,49,51c-1.11.43.92,1.31,2.53,1.57A6.45,6.45,0,0,1,53,52.8a.86.86,0,0,0,.44.1l.07-.06c-.05-.35-.7-.7-1-.89,4,1.14,2.5.73,3.48,1.18C57.89,54,59.73,55,64.27,57c2.35,1.55,6.63,4,9.45,3.91a2.17,2.17,0,0,0-.89,2.79l0,0c-5.5-1.29-11-4.47-15.62-7-.9-.49-1.81-1-2.7-1.42,4.45,1.32,6.62,2.08,9,2.59-2.38-.78-5.1-1.92-8.08-2.92-4.08-1.34-2.56-1-9.49-2.27a20.14,20.14,0,0,0-3.88-1.48,88.16,88.16,0,0,0-10.94-2.46c2.37.58,8,2.19,10.75,3.09.83.28,1.7.57,2.52.9a42.7,42.7,0,0,0-10.19,3.62c-2.87,1.65-.87,2.33-9.87,5.28,2.4-.4,5.89-1.33,7.85-2.75a10.09,10.09,0,0,0,1.15-1.06A7.38,7.38,0,0,1,35,56.73a14,14,0,0,0,5.71.11,13.84,13.84,0,0,0-5-.45c3.05-1.51,6.23-2.65,8.78-3.65a9.3,9.3,0,0,1,1.17.57s1.85.36,1.91.37a1.2,1.2,0,0,1-.59.52c-1.16.55-2.38.28-3.53.77a8.94,8.94,0,0,0-4,3.52l0,0,0,0A3.72,3.72,0,0,1,37,60.8a14,14,0,0,1-3.9.49,11,11,0,0,0-1.89,1.34c-.16.23-.5.35-.43,1a.29.29,0,0,0,.3.25h.07c1.88-.16,7-.58,8.11-2a13.56,13.56,0,0,1,6.05-5.37c3.36.51,8.47.75,12,.88,4.55,2.87,10.2,6,15.6,6.42.69,1.29,2.4.64,2.38-.94-.2.55-.73,1.16-1.26,1.09s-.75-.81-.62-1.43.59-1.24,1.08-1.11.81.88.8,1.46c.47-1.19-.37-2.44-1.53-2-3.16-.4-9-4.47-9.16-4.56-1.24-.54-2.48-1.06-3.7-1.55,6.26,1.49,3.15.11,15.6,3.41h0A2.56,2.56,0,0,0,76.15,61c-2.86-1.2-7.08-3.22-10-4.06,2.51,1.68,6.86,3.79,10,4.17.75,1.36,2.07.37,1.64-1.25-.08.48-.34,1.23-.7,1.32-.21.06-.54-.7-.52-1.27s.19-1.35.41-1.31.68.78.8,1.26c.24-1.38-.64-2.2-1.33-1.64a22.37,22.37,0,0,0-2.28-1,1.87,1.87,0,0,0,.22-1.61c-.08.48-.34,1.23-.7,1.32-.21.06-.53-.7-.52-1.27s.19-1.35.41-1.31.68.78.81,1.26c.26-1.53-.84-2.31-1.52-1.47-1.6-.15-3.46-.46-5.38-.84a13.24,13.24,0,0,0-3.84-3.13c1.34-.43,2.63-.86,3.86-1.19,5.12,2.18,12.72,5.21,14.8,7.12-2.81.36-5.43.74-7.62,1.13.69,0,8.31-.45,8.55-.64a.31.31,0,0,0,0-.43C81,53.13,71.23,49.9,67.59,48.88a18.62,18.62,0,0,1,2.1-.46c.61,1.46,2.21.7,1.8-.7-.08.41-.39.93-.7.92s-.51-.42-.52-.87.19-.9.44-.91.67.45.78.86c.19-.92-.42-1.48-1-1.41.13-.07.29-.13.42-.21,1.71-1,3.28-2.28,3.81-3.86-1.37,2.72-6.63,4.61-9.69,5.66-1.46.48-2.91.91-4.34,1.32a9.14,9.14,0,0,0-4-1.38A16.74,16.74,0,0,0,61.82,46a10,10,0,0,0,4.76,1.31,10.11,10.11,0,0,0-4.5-1.46,41.83,41.83,0,0,0,4.5-2.8c-2.1.87-4.77,2.34-7.4,3.36a51.51,51.51,0,0,0-7.7,2.68,54.2,54.2,0,0,0-5.63-3.45c7.3,1.24,15.21-.27,20-5.93a4.4,4.4,0,0,0,2.9-1.31,4.28,4.28,0,0,0-2.41.68,6.94,6.94,0,0,0,1.41-3.26C67,39,63.07,41.79,60.17,43.24A11.72,11.72,0,0,0,55,41.72,1.49,1.49,0,0,0,55,40.36c-1.14-1-3.32.65-4.49,1.65a7.43,7.43,0,0,0-3.39-1.25c4.41-3.13,6.89-2,14.08-4.25,1.5-.47,5.5-1.68,6.75-2.63-1.12.75-3.07,1.21-5.68,1.93,8.29-2.89,4.1-1.82,6.45-3.09,0,0,.61-.33,3,.06s4.55-1.17,2.44-.89a24.31,24.31,0,0,1-4.91,0c.44-.88,4-3.45,4.8-3.91a4.08,4.08,0,0,1,3.27-.28c1.26.42,2.18-.49,3.69-.8s-.76-.65-1.64-.16-2.82-.08-2.82-.08a18.34,18.34,0,0,1,2.71-2.27c.9-.47,2.34-3.19,2.52-4.42s-1.25,1.4-2.52,3.18-1.75,1.39-2.35,2.15a4.66,4.66,0,0,1-3.4,1.3c-1.74-.17,1.58-3.11,1.94-4.6.15-.6-1.52,1.55-1.52,1.55-1.77,1.22-1.9,3.71-2.11,4s-3.58,3.28-5.48,4.9S56,35.31,56,35.31C59.3,32.89,61.31,25,61.31,25c.93-.17,2.59-2.23,2.11-2.64s-2,2.43-2.07,1.78.71-2.23.85-4.53,2-3.2,1.18-3.23-2,2.52-3,8S57.87,30.5,57.15,32s-3.47,3.41-3.47,3.41-8.21,2.48-10.13,4.38a4.51,4.51,0,0,0-1.37-2,4.81,4.81,0,0,0,1.33,2.85ZM20,56.52a10.94,10.94,0,0,1,2.5-2.8,60.1,60.1,0,0,0,6.81.38c-3.53,1-8.54,3-10.1,3.36a8,8,0,0,0,.79-.94Zm-.93,1.07h.45l-.53.1Zm12.43-.92a69.45,69.45,0,0,0-9.8.58A40.19,40.19,0,0,0,30.1,54.1c1.83,0,3.59-.09,5.09-.24-1.53.79-.57.52-3.66,2.81ZM37,53.1a12.43,12.43,0,0,0-1.64.65,67.5,67.5,0,0,0-12.72-.15,33.63,33.63,0,0,1,7.05-4.38A27,27,0,0,0,37,53.1Zm1.67,8.35c-.75,1-5.68,1.53-6.94,1.65a9.28,9.28,0,0,1,1.61-1.16c2.7.05,5.94-.67,6.63-3.27l0,.08c2.84-4.64,5.33-3.49,7.09-4.48a1.17,1.17,0,0,0,.57-.59c3.78.7,3.71.67,4.75.94a18.62,18.62,0,0,1-4.77.87c-3.5.16-7.32,3.2-8.91,6Zm6.81-5.07c2.24-.87,4.19-.49,6.93-1.74a4.64,4.64,0,0,1,2.14,1l2.35,1.5a39,39,0,0,0-11.42-.73Zm27.34-2.17a2.73,2.73,0,0,0-.08,2.4,37.61,37.61,0,0,0-8.86-1.8,35.42,35.42,0,0,1-7.79-2.43c1-.25,2.1-.56,3.25-.91,3.56,1.68,9.38,3.1,13.48,2.74Zm-6-1.15c-2.6-.53-5.19-1.14-7.3-1.64,1-.32,2.11-.65,3.18-1l.81-.25A13.12,13.12,0,0,0,66.81,53.06ZM65.28,48.6a34.46,34.46,0,0,0,4.73-2,1.68,1.68,0,0,0-.3,1.79c-3.6-.28-10.46,2.38-13.75,3.91A12.43,12.43,0,0,1,54.07,51,56.06,56.06,0,0,0,65.28,48.6Zm-12.17.17a7.64,7.64,0,0,0,4.35,1.31,7.74,7.74,0,0,0-4.14-1.36c1-.23,2-.51,3.06-.79a9,9,0,0,0,4.09,1.36c-2.32.66-4.53,1.24-6.42,1.72-1.58-1.24-1.28-1-2.52-1.88.5-.1,1-.23,1.58-.36Zm.7,3c-12.93-4.21-4.14.21-16.44-4A30.88,30.88,0,0,0,41.72,47a33.13,33.13,0,0,0-6.36.17,32.88,32.88,0,0,0,7-3.26,81.3,81.3,0,0,1,11.49,7.79ZM55,41.81a11.92,11.92,0,0,0,5,1.51,22.28,22.28,0,0,1-7.28,2A12.2,12.2,0,0,0,55,41.81Zm-4.69.32a24,24,0,0,0-3,3.2A35.66,35.66,0,0,1,53.19,41c.51-.25,1.32-.4,1.29-.13.23.88-1.35,3.68-1.78,4.49a41.7,41.7,0,0,1-6.94.24c-1.17-.64-2.3-1.2-3.39-1.7,1.69-1,3-1.91,4.44-2.94a7.54,7.54,0,0,0,3.52,1.16Z" fill="#e9937a"/><path d="M16.78,56.58c-.34.16-.72.35-1.1.55l1-.8s0,0-.05,0c-.75.45-1.41,1-2.15,1.49-1.28.82-2.58,1.6-3.87,2.39a10.09,10.09,0,0,0-1.42.9l0,0h0a4.05,4.05,0,0,0,.65-.21c-.2.15-.4.3-.57.45a20,20,0,0,0,7.44-4.77Z" fill="#e9937a"/><path d="M.86,59.06c1.22,1.24,2.26-.17,1.27-1.78.16,1.12,0,2.21-.76,1.32a3.33,3.33,0,0,1-.68-1.82c0-.32.08-.58.19-.58.38-.12,1,.72,1.25,1.08A2.39,2.39,0,0,0,1.51,56c.61-.1,1.23-.2,1.87-.32a8.88,8.88,0,0,0-1.89.3.78.78,0,0,0-1.31.14,3,3,0,0,0,.68,3Z" fill="#e9937a"/><path d="M19.14,59.58a1.21,1.21,0,0,0,.82-.31c0-.06,0-.1,0-.14-.15-.21-.57-.2-.81-.19s-.89.08-.89.49C18.45,59.72,18.82,59.62,19.14,59.58Z" fill="#e9937a"/><path d="M16.08,61.84l0,.09c.2.25.84.2,1.21.2s1.13.06,1.29-.25c-.1-.61-1.88-.46-2.45,0Z" fill="#e9937a"/><path d="M52.67,63.62c-.27,0-.62,0-.81.22,0,.13,0,.14,0,.25a3.06,3.06,0,0,0,2.68-.17v-.11a3.67,3.67,0,0,0-1.87-.19Z" fill="#e9937a"/><path d="M26.4,68.11c.49,0,1.34,0,1.52-.36-.15-.76-3-.36-3.22.14.17.4,1.28.27,1.7.22Z" fill="#e9937a"/><path d="M55.21,59.67c1,0,2.1,1,2.51.23v-.1c-1.92-.62-1.77-.92-3-.78-.34.07-1.13.19-1,.65a.47.47,0,0,0,.14.27c.48.17.93-.27,1.4-.27Z" fill="#e9937a"/><path d="M62.46,63.92c.44,0,2.06.09,2-.41-.41-.42-1.4-.42-1.95-.43s-1.83,0-2.26.41c0,.06,0,.09,0,.15a1.3,1.3,0,0,0,.86.29,12.34,12.34,0,0,0,1.36,0Z" fill="#e9937a"/><path d="M39.9,65.28a5.21,5.21,0,0,1,2.45,1.11c-.72,0-1.11.33-1.82.29a16.81,16.81,0,0,1-2.76-.44,3.05,3.05,0,0,0,1-.31,9.63,9.63,0,0,1,1.14-.65c-.72,0-1.17.47-1.91.47a1.08,1.08,0,0,0-.88.3l0,0,0,.17c-.05.34.51.59.83.69a7.18,7.18,0,0,0,.85.23c1.95.4,2.38.26,3.06,0s.83-.09,1.17-.23l.08,0,.05-.05,0-.07.12-.15-.06-.13c-.24-.51-.6-.56-.86-.71a3.85,3.85,0,0,0-2.45-.51Z" fill="#e9937a"/><path d="M13.18,66l0,.09a.46.46,0,0,0-.07.26.5.5,0,0,0,0,.16v0l.07.08a1,1,0,0,0,.75.31c.18,0,2.81.26,3.44.26,1.3,0,1.29-.72,4-.37,2.11.3,2.12.35,2.49.23s.23-.31.29-.47l.05-.12-.08-.07a1.58,1.58,0,0,0-.77-.45c-.51-.15-3.4-1.12-4.5-1a24.49,24.49,0,0,1,4.52,1.57c-1.3-.19-3.07-.77-4.78-.33-1.25.4-.83.32-3.91.17l-.65,0c.73-.19,1.58-.32,2.3-.49A20.24,20.24,0,0,0,18.84,65c-.82.08-1.63.51-2.56.56a16,16,0,0,0-3,.47Z" fill="#e9937a"/><path d="M44.09,62.86c2.26,0,1.6-.37,4.37.79l.1,0,.16-.07a8.1,8.1,0,0,1,1.33-.55,4.6,4.6,0,0,0,1.48-.61l.07-.05,0-.1s0,0,0-.13c0-.45-.79-.79-1.22-.94-2.21-.71-2.43-1.58-3.32-1.43.77,0,1.18.87,2,1.25s1.47.66,1.89,1a21.59,21.59,0,0,0-2.41.82c-2.08-.94-2-.87-4.45-.73a4.14,4.14,0,0,1-.79-.05c.17,0,1.16-.15,1.47-.24,1.07-.4,1.32-1.66,2.32-2.1-.76.17-1.29.95-1.91,1.44-.79.62-2.07,0-2.7.73l-.05.07s.05.23.06.26a3.23,3.23,0,0,0,1.59.55Z" fill="#e9937a"/><path d="M53.46,18.89c.49-.45,3.31-3,3.31-3s2-.6,2.26-1.4-1.71.36-2,.54-2.61,2.15-3.37,2.86a21.09,21.09,0,0,1-2.18,1.64l.28-1.41c.16-.81-.45-3.2-.67-.54s-.5,2.63-1.22,3.14-3.32,1.88-3.32,1.88a19.79,19.79,0,0,0-3.5,3.5c-1.12-1.41.87-5.73,1.29-6.78s-.79.53-1.26,1.21A11.32,11.32,0,0,0,42,25.1a23.83,23.83,0,0,1-.56,4.19,27.07,27.07,0,0,1-2.61,3.32,20.15,20.15,0,0,0-2.22,3.3l-.27.54c-2.17-6.79-2.49-7.27-2.43-8.45,0-1.53,1.46-3.73,2.36-7.3a8.1,8.1,0,0,0,0-4.68l3.1-4.46c.73.32,3.31-1.29,2.91-1.39a8.93,8.93,0,0,0-2.35.76c.55-.26,3.33-4.24,3.23-5.1S42,6.6,41.72,7.77s-2.24,2.72-2.24,2.72.47-2.64.09-2.93-1.11,3.91-1.11,3.91l-1.71,2.18L35.93,15a16,16,0,0,0-.82-2.14l1.67-6.14L37.55,6a18.49,18.49,0,0,0,2.1-2.85c.56-1.22-.34-1.36-.5-1.18a1.5,1.5,0,0,0-.32.27L36.9,4.3a2,2,0,0,1,0-.24A6.73,6.73,0,0,0,36.4.85c-.15-.36-.31-.71-.65-.83-.11-.09-.48.13-.45.2a3,3,0,0,0,0,1.36c.33,2.78.64,2.9-1,8.78C34,9.59,33.48,8,32.72,7.72a.3.3,0,0,0-.33.11c-.31.55.94,3.27,1.33,4.16-.74,1.44.4,5.75.84,7.29-.33-1.38-1.36-6-.59-7.22h0a.15.15,0,0,0,0-.13,23.1,23.1,0,0,1-1.25-3.74,8,8,0,0,1,1.33,3.11.24.24,0,0,0,.47,0C36.59,4.62,36.18,4,35.91,1.53A5.36,5.36,0,0,1,36.21,4c-.08.65,0,1.37.64,1.31A.21.21,0,0,0,37,5.2l0,0,1.31-1.4A15,15,0,0,1,37,5.44l-.83.76a.42.42,0,0,0-.11.18c-1.83,6.85-1.76,6.43-1.67,6.61a14,14,0,0,1,1.5,5.63,9.59,9.59,0,0,1-.28,1.89c-.86,3.74-2.2,5.45-2.23,7.41-.05,1.27.27,1.9,2.76,8.76v0L37.6,41l.16,0a1.34,1.34,0,0,1,.07.18l-.06-.18,1.78.2L41,40.61l.81-2.45L41.58,38l-.91,2.24-1,.48L38.27,40l-.36-1c-1-1.81,1.6-4.8,1.6-4.8a12.79,12.79,0,0,0,6.32-1.48c.61-.5-1.06-.07-2,.37s-4.27.41-3.6,0S43.81,28,44,26.74s2.36-3,2.43-3.07l3.76-2.32c1,.53,3.82,0,4.21-.56s-1.47,0-2.36.13-.74-.21-.74-.21,1.68-1.37,2.17-1.82Zm-16.69-14C36.78,4.9,36.77,4.88,36.77,4.85Z" fill="#e9937a"/><path d="M11.1,32.06a23,23,0,0,1,8.28,9.39A12.64,12.64,0,0,0,18,38c.39-1.76-1-4.43-2.25-5.72.06.24.14.48.22.74-.13-.25-.26-.52-.39-.73a12.16,12.16,0,0,0,.33,2.06,15.08,15.08,0,0,0-1.79-.77,10.77,10.77,0,0,0-3.05-1.56Zm6.6,5.41a11,11,0,0,0-1.82-2.34c.34.16.47.34.71.27a.34.34,0,0,0,.21-.29c.34.81.67,1.61.9,2.36Z" fill="#e9937a"/></svg>