<svg id="Layer_1" data-name="Layer 1" xmlns="http://www.w3.org/2000/svg" width="128.76" height="91.06" viewBox="0 0 128.76 91.06"><path d="M56.91,86.76h0l0,0Z" fill="#83c5be"/><path d="M67.25,80.35h0Z" fill="#83c5be"/><path d="M95,81.91a10.53,10.53,0,0,0,.93-.52,4.57,4.57,0,0,0,.57-.41,2,2,0,0,0,.24-.27.54.54,0,0,0,.07-.13.61.61,0,0,0,.07-.24.48.48,0,0,0-.14-.34.61.61,0,0,0-.29-.14l-.23,0-.3,0a3.85,3.85,0,0,0-1.05.26l-.52.23a4.31,4.31,0,0,0-.47.26,17,17,0,0,0-1.5,1.19l-.41.28a4.61,4.61,0,0,1-.65.38l-.8-.09-2.26-.24c-.51,0-1-.07-1.51-.09l.11,0a5.59,5.59,0,0,0,.82-.26c.25-.11.49-.23.73-.36.51-.29,1-.6,1.52-.91.25-.16.49-.31.73-.48l.15-.1.25-.19a2.85,2.85,0,0,0,.43-.42,2.63,2.63,0,0,0,.35-.52,1.45,1.45,0,0,0,.15-.62.91.91,0,0,0-.16-.6,1.42,1.42,0,0,0-.46-.42L91,77a1.29,1.29,0,0,0-.28-.08,1.23,1.23,0,0,0-.27,0,1.72,1.72,0,0,0-.91.26,1.82,1.82,0,0,0-.45.38,1.6,1.6,0,0,0-.34.54,1,1,0,0,0-.05.3.93.93,0,0,0,0,.29.91.91,0,0,0,.1.29,2.69,2.69,0,0,0,.16.29,7.16,7.16,0,0,0,.48.61.27.27,0,0,0,.38,0l-.83.56-.67.42a7.72,7.72,0,0,1-.94.51,6.87,6.87,0,0,1-.88.27,7.12,7.12,0,0,1-.92.18l-.72.07a.22.22,0,0,0-.17.09l-1.36,0L81,81.8l-.84,0L82,80.71l.62-.35a6.39,6.39,0,0,0,.76-.52,2.59,2.59,0,0,0,.61-.67,1.59,1.59,0,0,0,.3-.78.83.83,0,0,0-.07-.41.81.81,0,0,0-.35-.38,1.84,1.84,0,0,0-.36-.15,3.65,3.65,0,0,0-.46-.07l-.18,0-.22,0a1.8,1.8,0,0,0-.56.16,9,9,0,0,0-1.46.8,9.74,9.74,0,0,0-1.53,1.33l-.63.66a9.46,9.46,0,0,0-.82,1,4.08,4.08,0,0,0-.29.5l-1.36,0c-.72,0-1.44.1-2.16.17l.08,0c.3-.11.61-.22.9-.35a9.79,9.79,0,0,0,.92-.45,5.17,5.17,0,0,0,.75-.55l.31-.28a1.37,1.37,0,0,1,.17-.17l.21-.26a1.92,1.92,0,0,0,.18-.31,3.85,3.85,0,0,0,.19-.47,1.32,1.32,0,0,0,.06-.48,1.54,1.54,0,0,0,0-.31,2.42,2.42,0,0,0-.12-.35l-.14-.22a1.3,1.3,0,0,0-.19-.22.8.8,0,0,0-.27-.18,1,1,0,0,0-.4-.12H76.3a1.85,1.85,0,0,0-.47.08,2.85,2.85,0,0,0-.31.12,2.09,2.09,0,0,0-.28.17.92.92,0,0,0-.23.25.6.6,0,0,0-.05.39,1.4,1.4,0,0,0,.09.29l.15.27.06.07a.36.36,0,0,0,.19.15.33.33,0,0,0,.24,0,.31.31,0,0,0,.11-.43,2.79,2.79,0,0,1-.18-.34.31.31,0,0,1,0-.08h0a1.38,1.38,0,0,1,.24-.14,1.32,1.32,0,0,1,.3-.09h.2l.07,0,.16.09.07.08a1.15,1.15,0,0,1,.22.53.88.88,0,0,1,0,.23,2.56,2.56,0,0,1-.17.6,1.49,1.49,0,0,1-.14.24l-.2.24-.18.18a4.28,4.28,0,0,1-.45.4,8.3,8.3,0,0,1-1.66.9c-.3.12-.61.24-.92.34l-.51.14-.75.16a.22.22,0,0,0-.13.12l-.66.06c-.77.06-1.54.08-2.31.12l-2.48.18-2.11.14c.28-.17.57-.33.86-.49l.6-.31.64-.3c.37-.18.75-.33,1.13-.5s.75-.31,1.11-.48l.56-.28a5.11,5.11,0,0,0,.62-.41,1.58,1.58,0,0,0,.27-.31,1.08,1.08,0,0,0,.08-.19.5.5,0,0,0,0-.32.68.68,0,0,0-.25-.37.76.76,0,0,0-.18-.09l-.15,0-.37,0h-.22a4,4,0,0,0-.69.09,6,6,0,0,0-1.4.48l-.33.18-.26.14c-.32.2-.63.39-.93.61s-.35.26-.51.4l-.48.41c-.25.22-.49.45-.73.7-.41.44-.85.87-1.3,1.27-.33,0-.65.06-1,.11l-.44.06-.57.08.2,0c-.81.1-1.62.16-2.43.23s-1.53.13-2.3.17l-2.54.14c-.78,0-1.55.11-2.33.14H50.8l1.79-.49.89-.25.55-.18.56-.19a5.79,5.79,0,0,0,1-.45c.2-.12.39-.26.58-.39a3.29,3.29,0,0,0,.41-.33,1.52,1.52,0,0,0,.22-.22l.1-.14A1.63,1.63,0,0,0,57,81a.47.47,0,0,0-.17-.58.42.42,0,0,0-.14-.06.45.45,0,0,0-.16,0h-.35c-.2,0-.41,0-.61.08s-.29.06-.44.09l-.49.13-.47.15-.62.24a9.82,9.82,0,0,0-1.05.46c-.21.11-.42.22-.62.34a4.92,4.92,0,0,0-.43.26l-.53.36c-.39.26-.76.53-1.14.79l-.35.26-.46.12a2.36,2.36,0,0,0-.68.27h0c-.73,0-1.45,0-2.18-.09s-1.55-.11-2.32-.19l-1-.09.13,0,.62-.09a11.32,11.32,0,0,0,1.89-.46,7.37,7.37,0,0,0,1.44-.55c.33-.19.65-.38,1-.59a1.91,1.91,0,0,0,.49-.45,1.68,1.68,0,0,0,.29-.62,1.88,1.88,0,0,0,0-.33,1.34,1.34,0,0,0,0-.35,1.83,1.83,0,0,0-.3-.63,1.39,1.39,0,0,0-.23-.25,2.9,2.9,0,0,0-.29-.19,2.49,2.49,0,0,0-.69-.25,1.84,1.84,0,0,0-.41,0h-.22a2,2,0,0,0-.65.2,1.12,1.12,0,0,0-.29.19.76.76,0,0,0-.11.14,1.24,1.24,0,0,0-.1.2.68.68,0,0,0,0,.4,1.46,1.46,0,0,0,.16.36.31.31,0,1,0,.53-.31h0l-.07-.14,0-.1h0a.07.07,0,0,1,0-.05l0,0,.05,0,.17-.1a2,2,0,0,1,.33-.09,1.5,1.5,0,0,1,.3,0,3.45,3.45,0,0,1,.43.12,2.88,2.88,0,0,1,.38.22l.13.12c.06.1.12.19.17.29a2.5,2.5,0,0,1,.07.26v.19a2.76,2.76,0,0,1-.08.27,1.35,1.35,0,0,1-.15.26,1.1,1.1,0,0,1-.22.21c-.19.15-.4.28-.6.41a8.67,8.67,0,0,1-.79.43c-.29.11-.59.2-.89.3l-.77.22c-.26.07-.53.13-.8.18l-.78.13-.7.08-.66,0a.4.4,0,0,0-.21-.07c-.51,0-1-.09-1.51-.15l-2.56-.44c-.43-.08-.85-.15-1.28-.21s-.86-.14-1.29-.22c-.71-.15-1.43-.28-2.14-.41l1-.26,1.1-.3,1.23-.38A8.1,8.1,0,0,0,37,80.1a10.14,10.14,0,0,0,1.15-.67,3.93,3.93,0,0,0,.61-.54,1.45,1.45,0,0,0,.38-.82.74.74,0,0,0-.09-.36.88.88,0,0,0-.26-.25,1.8,1.8,0,0,0-.34-.17,2.77,2.77,0,0,0-.41-.12,4,4,0,0,0-1-.12,5.49,5.49,0,0,0-.7,0c-.21,0-.42.06-.63.11a9.91,9.91,0,0,0-1.19.31c-.2.07-.39.13-.59.22s-.42.18-.64.28c-.38.18-.74.39-1.1.6a9.82,9.82,0,0,0-1,.67,10,10,0,0,0-.78.65,6.13,6.13,0,0,0-.8.89,1.13,1.13,0,0,0-.1.13h-.25c-.42-.08-.83-.15-1.25-.2a8.52,8.52,0,0,0-1.24-.08c-.53,0-1.06,0-1.6.08a.49.49,0,0,0-.1,1,.4.4,0,0,0,.46.21l.7-.14c.26,0,.51-.06.77-.07h.65l.46,0c.78.11,1.55.28,2.33.46l1.16.26c.39.11.78.22,1.18.31l1.41.32.36.07.89.16,1,.2.69.13s0,0,0,0a.52.52,0,0,0,.19.71c.38.23.75.47,1.11.74.63.5,1.25,1,1.88,1.54l1.09.85a5.58,5.58,0,0,0,.58.35,6.65,6.65,0,0,0,.58.33c.2.12.41.22.62.33a3.42,3.42,0,0,0,1.69.42,2.65,2.65,0,0,0,.84-.2,1.15,1.15,0,0,0,.33-.21.89.89,0,0,0,.1-1.18,4.08,4.08,0,0,0-.31-.39,4.7,4.7,0,0,0-.49-.51,6.18,6.18,0,0,0-.88-.64l-.26-.15L44,85.58a6.27,6.27,0,0,0-.58-.29L42.72,85l-.64-.23c-.43-.15-.87-.27-1.31-.39l-.38-.12.93.13c.81.11,1.63.19,2.44.28s1.58.16,2.37.22,1.65.15,2.48.18c.53,0,1,0,1.58,0a.31.31,0,0,0,.06.16.33.33,0,0,0,.19.08l.69.07a6.39,6.39,0,0,1,1.61.49c.29.12.58.26.87.39l.38.19a4.62,4.62,0,0,1,.67.41,3.91,3.91,0,0,1,.58.57,3.25,3.25,0,0,1,.33.57,2,2,0,0,1,.07.26.2.2,0,0,1,0,.11.75.75,0,0,1,0,.16.86.86,0,0,1-.1.16,1,1,0,0,1-.45.34,2.61,2.61,0,0,1-.61.16,3,3,0,0,1-.52,0,2.42,2.42,0,0,1-.46-.13,2.82,2.82,0,0,1-.53-.31,5,5,0,0,1-.76-.77l-.12-.17a.4.4,0,1,0-.69.4h0A4.81,4.81,0,0,0,52,89a5.47,5.47,0,0,0,.59.49,2.89,2.89,0,0,0,.72.37A2.22,2.22,0,0,0,54,90a2.68,2.68,0,0,0,.79-.1l.29-.11a.79.79,0,0,0-.19.49.82.82,0,0,0,1.63,0,.82.82,0,0,0-.82-.82h0a1.78,1.78,0,0,0,.32-.35,1.08,1.08,0,0,0,.16-.3,1.28,1.28,0,0,0-.13-1.11,3.45,3.45,0,0,0-1-1.18,6.51,6.51,0,0,0-1.43-.81c-.4-.18-.81-.36-1.22-.51-.16-.06-.33-.09-.5-.14L53.3,85l1.53,0s0,0,0,0a.32.32,0,0,0,.32.31h.16a.47.47,0,0,0,.21.53c.2.11.41.23.6.36l.53.37.27.22.58.44.5.33c.17.11.35.21.53.31l.61.35c.16.1.34.18.51.27a5.42,5.42,0,0,0,.83.35,3.58,3.58,0,0,0,.91.18A2.89,2.89,0,0,0,63,88.6a.7.7,0,0,0,.42-.63,1.14,1.14,0,0,0-.05-.37,1.6,1.6,0,0,0-.23-.45,4,4,0,0,0-.63-.74,3.85,3.85,0,0,0-.89-.54,9.57,9.57,0,0,0-1-.42L60,85.23a10.2,10.2,0,0,0-1.52-.37l-.58-.07h.34l1.21-.09c.37,0,.74,0,1.11-.08.8-.09,1.6-.21,2.4-.27s1.59-.11,2.39-.16a.44.44,0,0,0,.3.33c.6.17,1.21.32,1.81.5l.49.15.5.17.76.29,1,.44,1.09.52c.33.16.65.33,1,.48a6.59,6.59,0,0,0,.73.3,3.24,3.24,0,0,0,.83.19,2.31,2.31,0,0,0,1.54-.31,1.19,1.19,0,0,0,.47-.59,1.1,1.1,0,0,0,0-.8,1.94,1.94,0,0,0-.4-.62,2.24,2.24,0,0,0-.61-.45,6.51,6.51,0,0,0-.71-.33,6.43,6.43,0,0,0-.78-.24c-.26-.07-.53-.11-.79-.16s-.79-.11-1.18-.16l-.51,0-.39,0c.75,0,1.5-.11,2.25-.19l.53,0a.09.09,0,0,0,0,0,.35.35,0,0,0,.26.11c.4,0,.81-.09,1.22-.12s.69,0,1,0l2.16,0a31.86,31.86,0,0,1,3.91.3l.61.08a.29.29,0,0,0,.22,0,.27.27,0,0,0,.08-.1,6.69,6.69,0,0,1,.77.2c.32.1.64.22,1,.35a7.92,7.92,0,0,1,1.12.58l.51.32c.22.14.43.29.64.44a.51.51,0,0,0,0,.63,9.41,9.41,0,0,0,1.19,1,13.1,13.1,0,0,0,1.1.73,3.85,3.85,0,0,0,.71.34,2.07,2.07,0,0,0,.43.1,1.75,1.75,0,0,0,.56,0,.75.75,0,0,0,.61-.54.9.9,0,0,0,0-.43,1.3,1.3,0,0,0-.2-.43,2.61,2.61,0,0,0-.55-.55,4,4,0,0,0-.8-.48,5,5,0,0,0-1.78-.49h-.39a2.83,2.83,0,0,0-.37-.32l-.38-.25-.71-.42-.52-.3q-.42-.21-.84-.39h0c.34,0,.68,0,1,0S86.63,84,87,84l1.17-.14.27,0,1.16.13,2.13.26,1.92.29q1.13.17,2.25.27h0a3.75,3.75,0,0,1,.47.17l.48.2.31.14a3.2,3.2,0,0,1,.51.29,3.78,3.78,0,0,1,.41.39c.08.09.17.18.24.27a.7.7,0,0,1,.13.26v.08c0,.06,0,.11,0,.17s-.05.09-.09.14a2.23,2.23,0,0,1-.27.26,2,2,0,0,1-.4.23,2.52,2.52,0,0,1-.47.13,1.6,1.6,0,0,1-.31,0,2.21,2.21,0,0,1-.5-.15h0a2,2,0,0,1-.43-.24l0,0h0a.37.37,0,0,0,0-.25v-.11h0a.37.37,0,0,0,.26-.46.38.38,0,0,0-.36-.28l-.1,0a.77.77,0,0,0-.28.12.69.69,0,0,0-.13.11.62.62,0,0,0-.12.19.73.73,0,0,0,0,.44.24.24,0,0,0,0,.12.5.5,0,0,0,0,.12l.06.15a1.24,1.24,0,0,0,.18.22,1.91,1.91,0,0,0,.51.32,2.29,2.29,0,0,0,1.17.27,2.26,2.26,0,0,0,1.53-.76,1.11,1.11,0,0,0,.26-.57.91.91,0,0,0,0-.33,1.25,1.25,0,0,0-.1-.27,1.44,1.44,0,0,0-.18-.25l-.11-.13-.33-.34A2.73,2.73,0,0,0,97.8,85a2.21,2.21,0,0,0-.34-.18h0a15.9,15.9,0,0,0,2.84-.2.77.77,0,0,0-.2-1.52c-.4,0-.8,0-1.19,0H97.67c-.79,0-1.58,0-2.36-.11s-1.32-.15-2-.24l.66-.31Q94.47,82.17,95,81.91Zm-5.06-2.45-.06-.08,0,.06-.2-.28a1.74,1.74,0,0,1-.11-.18,1.64,1.64,0,0,1-.16-.29,1,1,0,0,1-.05-.16.54.54,0,0,1,0-.18l0-.13c0-.08.09-.15.14-.23a2.23,2.23,0,0,1,.27-.26,1,1,0,0,1,.25-.15,1.67,1.67,0,0,1,.32-.08.82.82,0,0,1,.44.06,2.14,2.14,0,0,1,.3.17l.15.14a.35.35,0,0,0,0,.08.24.24,0,0,0,0,.08v.26l-.06.21A2.6,2.6,0,0,1,91,79a3.73,3.73,0,0,1-.66.6l-.43.3a.28.28,0,0,0,.08-.2A.27.27,0,0,0,89.89,79.46ZM65.13,81.22l.64-.52.35-.26.38-.24a7.55,7.55,0,0,1,1-.52,4.07,4.07,0,0,1,.82-.25l.36-.07a3.43,3.43,0,0,1,.64,0l-.06.06a8,8,0,0,1-1.37.7l.09,0-.69.29h0l0,0-.06,0,0,0L66,80.87c-.35.14-.68.31-1,.48Zm-8.62-.41v0Zm0,0v0h0Zm-4.87,1.81a11.64,11.64,0,0,1,2-1.07l.67-.27c.19-.08.4-.14.6-.21l.31-.09.32-.08q.3-.08.6-.12a2.41,2.41,0,0,1,.38,0l-.08.13a2.42,2.42,0,0,1-.33.31,4.87,4.87,0,0,1-.47.32,4.28,4.28,0,0,1-.7.38c-.24.1-.48.18-.72.26l-.44.14c-.36.1-.73.21-1.1.3l-.88.22-.74.18.58-.4ZM30.75,80.49l.34-.31.48-.4c.17-.12.34-.24.52-.35l.62-.38.64-.35a6.45,6.45,0,0,1,.59-.29l.41-.18-.07,0,.24-.08.2-.07.57-.17.61-.14.47-.08a5,5,0,0,1,1.09,0,3.83,3.83,0,0,1,.74.19.94.94,0,0,1,.22.12h0a.74.74,0,0,1,0,.14,1.74,1.74,0,0,1-.11.18,2.14,2.14,0,0,1-.38.36,7.83,7.83,0,0,1-1.58.87l-.54.2-.62.19c-.39.12-.78.22-1.18.32s-.75.17-1.12.27-.76.2-1.14.27l-.23,0-.63.09a.45.45,0,0,0-.19.11.22.22,0,0,0-.05.08l-.4-.08A7.15,7.15,0,0,1,30.75,80.49Zm10.51,4.6.67.22.64.24,0,0,.52.24c.17.08.34.18.51.27a8.51,8.51,0,0,1,.9.57,4.77,4.77,0,0,1,.57.53,3.47,3.47,0,0,1,.25.29,1.85,1.85,0,0,1,.25.37.13.13,0,0,1,0,.06v0s0,0,0,.06l0,0,0,0-.12.08a2.37,2.37,0,0,1-.36.09,2.44,2.44,0,0,1-.54,0,3,3,0,0,1-.67-.2,9.91,9.91,0,0,1-1.16-.62,10.34,10.34,0,0,1-.89-.57l-.46-.37-.47-.39-1-.85-.87-.79c.32.11.64.2,1,.3S40.85,85,41.26,85.09Zm18.1.61.78.25c.16.06.32.1.47.17l.52.2a6.62,6.62,0,0,1,.9.5,3,3,0,0,1,.43.44,3.12,3.12,0,0,1,.31.49l0,.1V88a1.35,1.35,0,0,1-.26.15,3.7,3.7,0,0,1-.57.16,2.56,2.56,0,0,1-.62,0,4,4,0,0,1-.92-.26,13.55,13.55,0,0,1-1.3-.72l-.6-.37L58,86.58l-.42-.33-.45-.4c-.24-.2-.48-.39-.74-.57h.11a12.44,12.44,0,0,1,1.37.11A12.19,12.19,0,0,1,59.36,85.7ZM71,84.42l.43,0,.72.08h0l.66.1a7.68,7.68,0,0,1,1.32.39,3.28,3.28,0,0,1,.71.39,1.32,1.32,0,0,1,.43.56,1.21,1.21,0,0,1,0,.18.43.43,0,0,1,0,.16.36.36,0,0,1,0,.1l-.06.1-.12.11a.82.82,0,0,1-.2.12,1.7,1.7,0,0,1-.37.1,2.57,2.57,0,0,1-.62,0,4,4,0,0,1-.9-.26c-.41-.18-.79-.4-1.19-.59l-1-.5c-.73-.33-1.45-.65-2.19-.91l-.54-.19.66,0h1.53Zm17.26,1.89a5.32,5.32,0,0,1,1.18.34,3.73,3.73,0,0,1,.7.4,3.42,3.42,0,0,1,.43.42,1,1,0,0,1,.1.18.56.56,0,0,1,0,.12v0h-.2a1.82,1.82,0,0,1-.38-.11,6.71,6.71,0,0,1-.92-.57l-.6-.44-.41-.35Zm7.72.36h0Zm-2.89-4.78c.23-.21.46-.4.7-.6l.22-.16a3.37,3.37,0,0,1,.32-.19,5,5,0,0,1,.57-.28l.36-.14a3.4,3.4,0,0,1,.46-.09,2.42,2.42,0,0,1,.47,0,1.07,1.07,0,0,1-.16.14,5,5,0,0,1-.63.38l-.35.19-.82.4-1.45.65Zm-14.61-.38c.23-.28.47-.54.72-.8l.42-.44c.36-.37.74-.73,1.13-1.06a8.25,8.25,0,0,1,1-.66,6.7,6.7,0,0,1,.7-.37,2.1,2.1,0,0,1,.24-.06,2.8,2.8,0,0,1,.41,0,2.14,2.14,0,0,1,.34.09l.09.05h0v.07a.66.66,0,0,1,0,.15,2,2,0,0,1-.22.37,3.15,3.15,0,0,1-.37.36,14.67,14.67,0,0,1-1.58.91L80,80.86l-1.66.91h-.09Z" fill="#83c5be"/><circle cx="47.71" cy="78.47" r="0.41" fill="#83c5be"/><circle cx="48.75" cy="79.32" r="0.42" fill="#83c5be"/><circle cx="49.02" cy="78.33" r="0.42" fill="#83c5be"/><path d="M56.22,89.27a.41.41,0,0,0,.42.41.41.41,0,0,0,.41-.41.41.41,0,0,0-.41-.42h0A.43.43,0,0,0,56.22,89.27Z" fill="#83c5be"/><path d="M57.06,90.29a.43.43,0,0,0,.43.43.43.43,0,1,0,0-.86A.44.44,0,0,0,57.06,90.29Z" fill="#83c5be"/><path d="M92.46,76.71a.46.46,0,0,0-.45-.46.47.47,0,0,0-.46.46.46.46,0,0,0,.46.45h0A.45.45,0,0,0,92.46,76.71Z" fill="#83c5be"/><circle cx="92.35" cy="77.75" r="0.41" fill="#83c5be"/><path d="M92.25,78.9a.41.41,0,0,0-.41.42.41.41,0,0,0,.41.41.41.41,0,0,0,.42-.41h0A.44.44,0,0,0,92.25,78.9Z" fill="#83c5be"/><polygon points="96.39 87.31 96.38 87.31 96.39 87.31 96.39 87.31" fill="#83c5be"/><path d="M99.35,88.3a.61.61,0,1,0-.61-.61h0A.61.61,0,0,0,99.35,88.3Z" fill="#83c5be"/><circle cx="98.09" cy="88.74" r="0.46" fill="#83c5be"/><circle cx="96.04" cy="88.68" r="0.42" fill="#83c5be"/><path d="M126,61.59a.41.41,0,0,0,.41.42.42.42,0,0,0,.42-.42.42.42,0,0,0-.83,0Z" fill="#83c5be"/><circle cx="127.99" cy="61.36" r="0.77" fill="#83c5be"/><path d="M128,62.28a.63.63,0,0,0-.6.47,1.81,1.81,0,0,0-.3-.25.64.64,0,0,0-.4-.11,1.61,1.61,0,0,0-.53.1,2.39,2.39,0,0,0-.79.45l-.27.22a4,4,0,0,0-.56.6,5.18,5.18,0,0,0-.62,1.1c-.12.27-.24.54-.34.82v0c0-.32.06-.65.1-1,.07-.73.13-1.45.19-2.18s.08-1.23.1-1.84l.48-.79c.16-.26.32-.52.5-.77l.65-.87c.18-.23.35-.46.52-.7s.18-.25.26-.38l.28-.47c.18-.28.34-.58.5-.87a6.09,6.09,0,0,0,.46-1,1.88,1.88,0,0,0,.11-.62,1,1,0,0,0,0-.29.83.83,0,0,0-.43-.49,1,1,0,0,0-.29-.1,3.75,3.75,0,0,0-.47-.05l-.23,0a2,2,0,0,0-.57.22,2.49,2.49,0,0,0-.54.43,3.91,3.91,0,0,0-.73,1.07,2.77,2.77,0,0,0-.1.26,13.79,13.79,0,0,0,0-1.82,24.26,24.26,0,0,0-.43-3c-.09-.47-.21-.93-.32-1.39-.17-.66-.36-1.31-.47-2,0-.38-.06-.77-.08-1.16s0-.75,0-1.12c0-.55,0-1.1.08-1.65.56-1.12,1.2-2.2,1.86-3.27l.2-.32.25-.45c.09-.16.18-.32.26-.48s.14-.28.21-.42.26-.59.38-.89A3.25,3.25,0,0,0,126.5,36a1.63,1.63,0,0,0-.19-.64.88.88,0,0,0-.19-.24.61.61,0,0,0-.37-.15h0a.72.72,0,0,0-.29.06,1.15,1.15,0,0,0-.26.19,2.14,2.14,0,0,0-.41.49,5.72,5.72,0,0,0-.39.73l-.39.8c-.24.5-.47,1-.69,1.51,0-.31,0-.62,0-.93,0-.73,0-1.46,0-2.2s.06-1.61.12-2.41.15-1.58.21-2.37.13-1.53.2-2.29c0-.34.07-.66.11-1s.12-.78.19-1.16.15-.76.24-1.14.19-.76.27-1.15a6.59,6.59,0,0,0,.12-1.54,7.05,7.05,0,0,0-.17-1.21c-.16-.79-.38-1.57-.56-2.35-.08-.36-.15-.73-.23-1.09l-.12-.56a1.36,1.36,0,0,1,0-.17,4.34,4.34,0,0,1,.16-.47c.09-.2.2-.4.31-.6s.28-.42.4-.64a.22.22,0,0,0,.23,0l.09-.07,0,0,.13-.1.36-.27.37-.24.76-.55.37-.29.24-.2a4.88,4.88,0,0,0,.48-.53,2.16,2.16,0,0,0,.27-.55,1.17,1.17,0,0,0,0-.67.8.8,0,0,0-.37-.42.55.55,0,0,0-.25-.1h-.13l-.24,0a2.64,2.64,0,0,0-.38.18l-.19.11a3.74,3.74,0,0,0-.66.53,2.55,2.55,0,0,0-.26.3l-.17.21-.16.23-.12.19c-.08.13-.16.27-.23.41s-.13.27-.2.41-.12.29-.17.43-.12.32-.19.48a.29.29,0,0,0-.12.07,2.47,2.47,0,0,0-.44.58c-.08.12-.14.26-.21.39,0-.2-.06-.39-.1-.59l-.06-.56c0-.19,0-.37,0-.56s0-.34,0-.5l.06-.3a.31.31,0,0,0,0-.1.29.29,0,0,0,0-.16c.1-.5.21-1,.34-1.49.08-.29.17-.58.25-.87s.1-.32.16-.48.09-.27.14-.4.22-.47.35-.7a5.28,5.28,0,0,1,.44-.68,3.41,3.41,0,0,1,.5-.57l.2-.11a2.17,2.17,0,0,1,.36-.12h.13V8a3.11,3.11,0,0,1-.22.65h0l0,.12a.33.33,0,0,0,0,.24.3.3,0,0,0,.14.19.33.33,0,0,0,.43-.11,2.67,2.67,0,0,0,.43-.88L127,8a.76.76,0,0,0,0-.21.64.64,0,0,0-.06-.18.91.91,0,0,0-.11-.16,1.15,1.15,0,0,0-.33-.21l-.2,0h0l-.24,0a1.92,1.92,0,0,0-.31.11l-.11,0a1.74,1.74,0,0,0-.45.29,2.8,2.8,0,0,0-.35.41c-.12.15-.23.31-.35.47a5.21,5.21,0,0,0-.3.46,9.11,9.11,0,0,0-.51,1c-.11.28-.19.56-.28.85l0,.12v-.23c0-.36,0-.72,0-1.07s0-.8,0-1.2c0-.82-.17-1.64-.28-2.46a2,2,0,0,0,0-.24.4.4,0,0,0-.41-.3h-.1a.41.41,0,0,0-.25.19.47.47,0,0,0,0,.33l0,.18V6.13c0,.21,0,.42.08.63l.12,1.14c0,.41,0,.83,0,1.24s0,.73-.06,1.09c0-.12,0-.25-.05-.37l-.12-.73c0-.25-.09-.5-.13-.75a3.87,3.87,0,0,0-.2-.72,3.54,3.54,0,0,0-.42-.73,3.64,3.64,0,0,0-.4-.48,1.41,1.41,0,0,0-.45-.28,1.15,1.15,0,0,0-.41-.08h-.08a.8.8,0,0,0-.45.17,1.1,1.1,0,0,0-.34.4,1.45,1.45,0,0,0-.14.46,2.71,2.71,0,0,0-.05.56,4.24,4.24,0,0,0,.51,1.81,5.72,5.72,0,0,0,.58.87c.32.4.65.79,1,1.19s.49.65.72,1l.32.52,0,0c0,.25,0,.49,0,.73a9.74,9.74,0,0,0,0,1.08c0,.22,0,.43.06.64s.07.52.11.78c.06.47.17.94.26,1.41s.19.94.28,1.4c.2,1.05.55,2.07.71,3.13a7.38,7.38,0,0,1,0,.94c0-.2-.09-.39-.14-.59a3.17,3.17,0,0,0-.12-.41c-.06-.15-.12-.3-.19-.44s-.13-.26-.19-.4a1.86,1.86,0,0,0-.22-.35,3,3,0,0,0-.41-.46l-.26-.17a1.23,1.23,0,0,0-.26-.12,2.53,2.53,0,0,0-.36-.12l-.09,0a1.5,1.5,0,0,0-.29-.06h-.09a1.45,1.45,0,0,0-.57.17,1.65,1.65,0,0,0-.36.22,2.16,2.16,0,0,0-.33.27,1.33,1.33,0,0,0-.24.51,1.52,1.52,0,0,0-.07.64,2,2,0,0,0,.15.59,2,2,0,0,0,.35.6,1.23,1.23,0,0,0,.52.35,4.56,4.56,0,0,0,.52.18l.41.1a.3.3,0,0,0,.36-.21.29.29,0,0,0-.21-.35c-.26-.08-.52-.16-.77-.26a1.71,1.71,0,0,1-.23-.13,1,1,0,0,1-.15-.14,1.9,1.9,0,0,1-.2-.37,2.64,2.64,0,0,1-.12-.4,1.31,1.31,0,0,1,0-.28,1.4,1.4,0,0,1,.1-.35.3.3,0,0,1,0-.08l.13-.12,0,0h0l.05,0h0a2.55,2.55,0,0,1,.39-.24l.18-.05h.12l.28.07.36.12a1.61,1.61,0,0,1,.28.17,2.13,2.13,0,0,1,.33.34,3.47,3.47,0,0,1,.34.59l.14.25.09.2.12.38c0,.13.06.26.1.38l.09.36c0,.13,0,.26.07.39s0,.55,0,.82c-.11.45-.22.89-.3,1.34-.14.8-.26,1.6-.35,2.4l-.12,1.28c-.07-.35-.15-.7-.25-1a4.52,4.52,0,0,0-1.35-2.4,2.91,2.91,0,0,0-.89-.51,1,1,0,0,0-.25,0h0l-.21,0a.87.87,0,0,0-.24.1l-.25.19a1.14,1.14,0,0,0-.15.23,1.25,1.25,0,0,0-.09.25,4.54,4.54,0,0,0-.09.51,4.35,4.35,0,0,0,0,1,4,4,0,0,0,.22.89,5.64,5.64,0,0,0,.48.95c.14.24.31.46.47.69a10.24,10.24,0,0,1,.75,1.22c.23.41.45.83.66,1.25l.3.61a4.13,4.13,0,0,0,.36.65.87.87,0,0,0,.14.12c0,.37-.07.75-.08,1.13l-.06,1.22c0-.11-.06-.21-.1-.31l-.07-.15,0,0,0-.09a3,3,0,0,0-.69-1,3.2,3.2,0,0,0-.61-.49,2.14,2.14,0,0,0-.71-.31l-.29,0h-.25l-.26,0a.41.41,0,1,0-.66-.32.41.41,0,0,0,.34.4l-.22.11a1.7,1.7,0,0,0-.3.23,1.59,1.59,0,0,0-.2.24,2,2,0,0,0-.14.25,1.68,1.68,0,0,0-.17.49c0,.19-.06.37-.08.56a1.87,1.87,0,0,0,0,.53,1.15,1.15,0,0,0,.22.46,1.23,1.23,0,0,0,.63.49l.21.09.16,0,.13,0,.12,0,.15-.05a.61.61,0,0,0,.16-.12.78.78,0,0,0,.22-.26.3.3,0,0,0-.11-.42.26.26,0,0,0-.24,0,.31.31,0,0,0-.16.12l-.1.09-.07,0-.3-.1a1,1,0,0,1-.21-.11,1.53,1.53,0,0,1-.18-.18.86.86,0,0,1-.1-.16l-.06-.23a2.74,2.74,0,0,1,0-.5,1.57,1.57,0,0,1,.09-.43,2.12,2.12,0,0,1,.21-.36l.12-.13a2.48,2.48,0,0,1,.31-.18l.17,0a3.32,3.32,0,0,1,.63,0l.15,0a3.21,3.21,0,0,1,.5.31l.31.28c.11.11.21.23.31.35a2.7,2.7,0,0,1,.3.52l0-.08c0,.1.08.21.13.31v0c.07.17.12.34.18.52s.14.42.19.63.07.45.1.67l.09.51,0,.31a2.26,2.26,0,0,0,0,.26,1.55,1.55,0,0,1-.07.23c-.07.15-.14.29-.22.44a.25.25,0,0,0,.09.34.29.29,0,0,0,.13,0c0,.61-.1,1.21-.17,1.81s-.13,1.47-.15,2.21c0,.32,0,.65,0,1l-.2-.37a4.4,4.4,0,0,0-1-1.28,4.81,4.81,0,0,0-.52-.4,1,1,0,0,0-.48-.16h0a1,1,0,0,0-.52.15,1.17,1.17,0,0,0-.35.31,4,4,0,0,0-.3.42,2.53,2.53,0,0,0-.34,1.1,3.25,3.25,0,0,0,.54,2c.2.34.44.66.67,1l.47.63a8.39,8.39,0,0,0,1.32,1.41,5.22,5.22,0,0,0,.8.52l.39.18a1.89,1.89,0,0,0,.34.09l.14,0c.06.35.14.7.19,1.06s.07.69.09,1,0,.74,0,1.12a12.54,12.54,0,0,1-.16,2c-.11.78-.25,1.57-.32,2.36,0,.38,0,.75,0,1.13s0,.76-.06,1.14c-.06.77-.14,1.54-.21,2.31s-.11,1.38-.16,2.08l-.32-.4c-.19-.25-.38-.49-.55-.75a.67.67,0,0,0-.21-.2c0-.14,0-.28,0-.42l-.06-.51a2,2,0,0,0-.15-.47,5.21,5.21,0,0,0-.43-.85,1.77,1.77,0,0,0-.26-.35,1.52,1.52,0,0,0-.39-.32,2,2,0,0,0-.88-.29h-.12a1.1,1.1,0,0,0-.31,0,1,1,0,0,0-.43.27,2.69,2.69,0,0,0-.27.32,1.06,1.06,0,0,0-.18.33,1.63,1.63,0,0,0-.13.39,2,2,0,0,0,0,.49,2.35,2.35,0,0,0,.27.9,3.38,3.38,0,0,0,.47.67,3.07,3.07,0,0,0,.49.46,10.65,10.65,0,0,0,1.2.77,7,7,0,0,0,.66.37.52.52,0,0,0,.24.05l.27.34c.31.39.64.76,1,1.12,0,.1,0,.19,0,.29,0,.34,0,.68,0,1s0,.73-.08,1.09c-.1.72-.21,1.44-.29,2.16s-.13,1.45-.15,2.19,0,1.41,0,2.11,0,1.51,0,2.26a.74.74,0,0,0,.2.49.71.71,0,0,0,1,0,.8.8,0,0,0,.2-.49c.07-.61.09-1.21.12-1.82,0-.17,0-.34,0-.51s.2-.4.31-.6a9.6,9.6,0,0,1,.59-.83c.35-.43.73-.85,1.06-1.3s.61-.84.89-1.27l.87-1.4c.31-.49.63-1,.92-1.48.12-.19.22-.4.32-.6a2.76,2.76,0,0,0,.31-1,.88.88,0,0,0-.4-.89.81.81,0,0,0-.34-.08.85.85,0,0,0-.23,0,1.57,1.57,0,0,0-.49.31c-.22.17-.42.35-.63.52A9,9,0,0,0,124.67,69a10.41,10.41,0,0,0-.72,1.14c-.18.32-.35.63-.52,1s-.34.7-.5,1.06c0-.22,0-.45.07-.68l.24-1.74a11.3,11.3,0,0,0,.48-1.07c.09-.24.17-.48.26-.71l.34-.93c.21-.58.4-1.18.63-1.75,0-.09.07-.17.11-.25a4.7,4.7,0,0,1,.47-.85c.12-.14.25-.27.38-.4a3.47,3.47,0,0,1,.34-.32,1.65,1.65,0,0,1,.32-.18l.17,0,0,0,.07.06v0c0,.13,0,.25,0,.38s0,.06,0,.08a.36.36,0,0,0,.25.44.35.35,0,0,0,.45-.25,2.06,2.06,0,0,0,.12-.6.59.59,0,0,0,.38.14.64.64,0,1,0,0-1.27Zm-2.9-47.87.15-.33.18-.32c.12-.19.24-.38.37-.56L126,13a3.78,3.78,0,0,1,.49-.49,4.78,4.78,0,0,1,.61-.38l.11,0h0l.09.06,0,0a.06.06,0,0,1,0,0,.56.56,0,0,1,0,.13,1.4,1.4,0,0,1-.09.29,1.46,1.46,0,0,1-.17.3,2.82,2.82,0,0,1-.33.36l-.24.21-.26.21c-.27.2-.54.4-.82.59l-.41.29Zm1.08-6.53Zm0,0h0l0,0,0,0Zm-6-.86h0Zm0,0Zm.84,3c-.08-.11-.17-.22-.25-.34a5.61,5.61,0,0,1-.49-.86,3.72,3.72,0,0,1-.22-.79,2.41,2.41,0,0,1,0-.6,1.76,1.76,0,0,1,.07-.27.41.41,0,0,1,0-.09h0l.08,0,.14.09a3,3,0,0,1,.42.46,2.59,2.59,0,0,1,.29.47,7.83,7.83,0,0,1,.33,1.33c.08.38.16.77.22,1.16a1.94,1.94,0,0,1,0,.24L121,10Zm-.49,10.94h0l.06,0-.06,0ZM119,64.14l-.29-.24a2.82,2.82,0,0,1-.33-.36,2.51,2.51,0,0,1-.26-.45,1.74,1.74,0,0,1-.11-.39,2.53,2.53,0,0,1,0-.28l.06-.22a1.64,1.64,0,0,1,.14-.22l.16-.18h.18l.24.07A1.28,1.28,0,0,1,119,62a1.52,1.52,0,0,1,.22.22,2.85,2.85,0,0,1,.23.37l.21.42a2.88,2.88,0,0,1,.15.5,5.85,5.85,0,0,1,0,.59c0,.07,0,.14,0,.22a.66.66,0,0,0-.12.3c-.25-.16-.51-.32-.75-.49Zm4.81,8.45a15.12,15.12,0,0,1,.83-1.66,13.82,13.82,0,0,1,.85-1.35,8.33,8.33,0,0,1,1.08-1.14l.24-.2a14.42,14.42,0,0,1-.84,1.48l-.69,1.08c-.23.37-.46.75-.7,1.11l-.41.6c-.11.17-.23.32-.35.48l-.33.4C123.57,73.12,123.68,72.85,123.79,72.59Zm.72-16.2.15-.38c.08-.22.16-.43.25-.65a4.26,4.26,0,0,1,.49-.85,3.73,3.73,0,0,1,.44-.45,2.77,2.77,0,0,1,.37-.22l.22-.07a2.57,2.57,0,0,1,.48,0l.14,0,.1.05.06.06a.36.36,0,0,1,.07.18v.19a3.3,3.3,0,0,1-.2.63,10.7,10.7,0,0,1-.86,1.51c-.1.17-.22.33-.33.5l-.16.23a2,2,0,0,0-.17.23l-.56.68-.6.74c-.14.18-.27.36-.4.55v-.27c0-.37,0-.74.07-1.11,0-.15,0-.3.05-.45s0-.1,0-.15.1-.27.15-.41.13-.4.2-.6Zm-1.08-16.48a3.45,3.45,0,0,1,.14-.34c.25-.54.51-1.07.77-1.61l.44-.88.19-.39a5.41,5.41,0,0,1,.42-.74,3.07,3.07,0,0,1,.25-.26l.06,0h0l0,0a.47.47,0,0,1,.07.12.79.79,0,0,1,.06.22,2.67,2.67,0,0,1,0,.4,6.49,6.49,0,0,1-.34,1.14v0a3.73,3.73,0,0,1-.16.35c-.07.14-.13.29-.2.42l-.27.5c-.07.14-.15.26-.23.39-.31.54-.64,1.07-1,1.6l-.54.93,0-.31,0-1,0-.15Zm-3.51-13.2,0,0,0,0Zm0,0h0l0,0A.05.05,0,0,1,119.89,26.74Zm1.83,4.79c-.21-.4-.43-.78-.67-1.16l-.37-.53-.23-.33a5.29,5.29,0,0,1-.4-.74,3.65,3.65,0,0,1-.22-.8,3.45,3.45,0,0,1,0-.85,2.74,2.74,0,0,1,.09-.39h0a3.21,3.21,0,0,1,.46.29,4.67,4.67,0,0,1,.44.45,5.08,5.08,0,0,1,.42.76c.07.19.15.39.21.58s.14.47.2.71.12.48.17.72l.15.81c0,.33.09.66.13,1a.52.52,0,0,0,.14.34.42.42,0,0,0,.18.11l0,.33-.07-.13C122.14,32.3,121.93,31.91,121.72,31.53Zm.45,18.55a4.68,4.68,0,0,1-.71-.44,8.52,8.52,0,0,1-1.23-1.32l-.43-.59a7.38,7.38,0,0,1-.82-1.31,3.08,3.08,0,0,1-.16-.54,2.36,2.36,0,0,1,0-.46,3.25,3.25,0,0,1,.11-.42,2.92,2.92,0,0,1,.24-.37l.13-.15.23.15.13.1a3.6,3.6,0,0,1,.58.59,10.6,10.6,0,0,1,.79,1.29c.2.37.38.75.55,1.14s.3.88.43,1.32.18.7.25,1h0Zm4.68,13.26h0l0,0Z" fill="#83c5be"/><polygon points="122.03 36.45 122.03 36.46 122.04 36.46 122.03 36.45" fill="#83c5be"/><path d="M122,36.24h0Z" fill="#83c5be"/><path d="M117.42,35.26a.41.41,0,0,0,.41-.42.41.41,0,0,0-.41-.41.41.41,0,0,0-.42.41h0A.43.43,0,0,0,117.42,35.26Z" fill="#83c5be"/><path d="M117.51,32.83a.42.42,0,0,0,0,.83.42.42,0,0,0,.42-.42h0A.42.42,0,0,0,117.51,32.83Z" fill="#83c5be"/><path d="M120.51,20.92h0l0,0Z" fill="#83c5be"/><circle cx="121.65" cy="19.49" r="0.41" fill="#83c5be"/><path d="M120.26,19.43a.41.41,0,0,0,.41-.41.41.41,0,0,0-.41-.42.42.42,0,0,0-.42.42h0A.42.42,0,0,0,120.26,19.43Z" fill="#83c5be"/><circle cx="119.31" cy="19.86" r="0.41" fill="#83c5be"/><path d="M125.57,7.26a.52.52,0,0,0,.52-.52.52.52,0,0,0-.52-.52.52.52,0,1,0,0,1Z" fill="#83c5be"/><circle cx="126.51" cy="6.53" r="0.41" fill="#83c5be"/><path d="M127.39,8a.24.24,0,0,0,.24.24.24.24,0,0,0,0-.48h0A.24.24,0,0,0,127.39,8Z" fill="#83c5be"/><path d="M127.74,7.1a.42.42,0,1,0-.41-.42A.41.41,0,0,0,127.74,7.1Z" fill="#83c5be"/><path d="M27.82,6c.54-.16,1.08-.32,1.63-.45a14.71,14.71,0,0,1,1.61-.3c.5-.06,1-.1,1.51-.15l.41,0,.63,0c.68,0,1.36,0,2,0l-.85.14-.43.09a6.85,6.85,0,0,0-.81.2,3.73,3.73,0,0,0-1.18.63,2.13,2.13,0,0,0-.44.46,1.35,1.35,0,0,0-.14.22,1.06,1.06,0,0,0-.09.35.81.81,0,0,0,.06.31,1,1,0,0,0,.41.48,2.16,2.16,0,0,0,.34.17,3.23,3.23,0,0,0,1.34.19,8.15,8.15,0,0,0,1.21-.14,5.42,5.42,0,0,0,1-.28,5.63,5.63,0,0,0,1-.51l.43-.28.44-.3c.26-.19.51-.4.76-.6l.59-.49a2.5,2.5,0,0,1,.39-.23l.13,0a.38.38,0,0,0,.19-.16l.72.06.94.11L43,5.58c.4,0,.8.06,1.2.08h.75c-.19.09-.38.17-.56.27s-.25.15-.37.23l-.23.18-.14.11a1.93,1.93,0,0,0-.22.28,2.93,2.93,0,0,0-.31.7A2.36,2.36,0,0,0,43,8a.67.67,0,0,0,.05.31,1.75,1.75,0,0,0,.13.28,1.49,1.49,0,0,0,.53.47,4.43,4.43,0,0,0,.45.2l.25.08.23.07a1.35,1.35,0,0,0,.71-.06l.29-.11a1.2,1.2,0,0,0,.26-.18,1.44,1.44,0,0,0,.22-.27,1.18,1.18,0,0,0,.11-.19,1.47,1.47,0,0,0,.1-.22,1.58,1.58,0,0,0,.09-.31.36.36,0,0,0,0-.25.33.33,0,0,0-.45-.12h0a.43.43,0,0,0-.15.2V8a3.65,3.65,0,0,1-.32.54l-.1.1a.47.47,0,0,1-.12.07,1.58,1.58,0,0,1-.31.09h-.1a3.13,3.13,0,0,1-.66-.2,3.07,3.07,0,0,1-.31-.17l-.11-.11-.09-.16s0,0,0-.06a1.62,1.62,0,0,1,0-.22,3.58,3.58,0,0,1,.18-.64,2.15,2.15,0,0,1,.14-.26,3.52,3.52,0,0,1,.35-.31l.26-.18.28-.16.27-.13L45.4,6l.34-.14L46,5.78a2.78,2.78,0,0,1,.5-.11h1.36l.81.06a.19.19,0,0,0,.16-.06c.78,0,1.57,0,2.35,0,1.62,0,3.25.1,4.86.21L58.36,6l2.44.2.7,0-.09,0-1,.25c-.68.2-1.35.45-2,.7l-.35.13-.36.17a1.5,1.5,0,0,0-.33.23,1.32,1.32,0,0,0-.25.28,2.61,2.61,0,0,0-.17.28,2.37,2.37,0,0,0-.13.34.84.84,0,0,0,0,.47,1,1,0,0,0,.17.33,1.23,1.23,0,0,0,.25.26l.16.12A1.35,1.35,0,0,0,58,10a3,3,0,0,0,.73-.09,3.9,3.9,0,0,0,.46-.12c.34-.1.67-.2,1-.32s.67-.24,1-.37a8.66,8.66,0,0,0,1.06-.52,7.79,7.79,0,0,0,1.37-1.12l.4-.34c.21-.16.42-.32.64-.47l.42-.24.56,0c1.58.05,3.15.16,4.72.22.78,0,1.55,0,2.33,0s1.62,0,2.42-.1,1.66-.13,2.48-.21l2.35-.2L82.37,6c.68-.06,1.37-.08,2-.1L84.28,6l-.24.2-.24.23a6,6,0,0,0-.42.45.23.23,0,0,0-.27,0L83,7l-.32.23-.42.24c-.26.15-.53.28-.81.41s-.57.26-.84.41-.3.16-.44.25-.3.19-.45.29-.51.37-.76.55-.52.36-.77.55-.44.35-.65.54a1.67,1.67,0,0,0-.37.5.63.63,0,0,0-.07.3.77.77,0,0,0,0,.15.34.34,0,0,0,.11.17.65.65,0,0,0,.21.16,1.17,1.17,0,0,0,.26.1,2,2,0,0,0,.59,0l.54-.07.48-.12.24-.08a2.18,2.18,0,0,0,.23-.09,3.68,3.68,0,0,0,.71-.37,4.7,4.7,0,0,0,.65-.53,3.43,3.43,0,0,0,.33-.33l.37-.38c.22-.23.43-.46.62-.7L83,8.49c.2-.23.4-.45.61-.66l.62-.61A2.84,2.84,0,0,0,84.49,7a3.08,3.08,0,0,1,.26-.24c.12-.08.24-.16.37-.23a3.26,3.26,0,0,1,.38-.18c.37-.15.74-.29,1.1-.45l.08,0,2.72,0,3.45,0c.75,0,1.49.06,2.24.13l-.35,0-.23.06-.18.05-.18.06-.24.08a4.09,4.09,0,0,0-1,.62l-.29.26c0,.06-.09.13-.14.2l-.17.28a1.09,1.09,0,0,0-.1.25.62.62,0,0,0,.09.46,1.44,1.44,0,0,0,.22.27l.12.11a1.5,1.5,0,0,0,.25.19.93.93,0,0,0,.36.14,1.8,1.8,0,0,0,.45.09.81.81,0,0,0,.22,0,1.21,1.21,0,0,0,.37-.07L94.55,9l.06,0,.11-.1a1.16,1.16,0,0,0,.16-.21.21.21,0,0,0,0-.19.23.23,0,0,0-.12-.15.24.24,0,0,0-.2,0,.29.29,0,0,0-.15.12l-.07.1-.08.08-.16.09a.9.9,0,0,1-.22.06,1.09,1.09,0,0,1-.31,0,2.49,2.49,0,0,1-.47-.12,1.06,1.06,0,0,1-.2-.12l0,0a3.84,3.84,0,0,1-.29-.27l-.06-.11a.64.64,0,0,1,0-.07V8l0-.15a2.68,2.68,0,0,1,.26-.47,1.15,1.15,0,0,1,.22-.22L93.2,7l.21-.15.16-.1.32-.17a6.21,6.21,0,0,1,.61-.2l.28-.07.25,0,.51,0,.61,0h.46l.74.11c.5.07,1,.15,1.51.19l.3,0h.41c.21,0,.42,0,.63,0a5.46,5.46,0,0,0,.69-.1l.83-.17a.6.6,0,0,0,.42-.73.54.54,0,0,0-.16-.26.58.58,0,0,0-.41-.17,21.76,21.76,0,0,1-2.42.1c-.39,0-.79-.06-1.17-.1s-.74-.08-1.11-.12l-1.41-.16,0,0c-.59-.31-1.19-.62-1.81-.88l.1,0-1.38-.58-.56-.24-.47-.23c-.33-.17-.66-.36-1-.56l-1-.59c-.32-.18-.64-.35-1-.51L87.88,1a4.66,4.66,0,0,0-.71-.26l-.4-.07h-.21l-.24,0a.88.88,0,0,0-.62.47.84.84,0,0,0-.08.38,1.06,1.06,0,0,0,.12.43,2.19,2.19,0,0,0,.25.37,4.37,4.37,0,0,0,.37.48,6.23,6.23,0,0,0,1.16,1,3.91,3.91,0,0,0,.67.36,5.65,5.65,0,0,0,.8.24c.4.1.8.18,1.2.25h-3c-1.58,0-3.15,0-4.72,0-.76,0-1.51.1-2.26.15L78.39,5l-.23-.06a3.18,3.18,0,0,1-.64-.38A4.42,4.42,0,0,1,77,4c-.14-.14-.28-.29-.41-.44a2.38,2.38,0,0,1-.18-.3.5.5,0,0,1,0-.13.61.61,0,0,1,0-.19,1.89,1.89,0,0,1,.09-.34,2,2,0,0,1,.19-.31l.19-.23.28-.28.27-.15.16-.05h.14a1.06,1.06,0,0,1,.19.06l.24.14a2.81,2.81,0,0,1,.29.31c.06.09.12.18.17.27l0,.1v.07h0l-.08.13a.8.8,0,0,1-.13.13l-.13.07a.29.29,0,0,0,.22.52.88.88,0,0,0,.24-.11.77.77,0,0,0,.18-.18.87.87,0,0,0,.24-.57A.82.82,0,0,0,79,2.05l-.21-.28a1.68,1.68,0,0,0-.9-.6.83.83,0,0,0-.22,0,1.06,1.06,0,0,0-.31.05,1.59,1.59,0,0,0-.27.12l-.27.18-.19.19-.15.16-.21.27a1.77,1.77,0,0,0-.27.53,1.52,1.52,0,0,0-.07.52,1.28,1.28,0,0,0,.21.56,2.93,2.93,0,0,0,.39.48l.33.33a3,3,0,0,0,.68.49c-.7.05-1.39.12-2.09.16l-.78,0h0L74,5.06l-.36-.12-.31-.11-.51-.2-.42-.19c-.13-.06-.26-.14-.39-.21s-.5-.28-.75-.43c-.47-.29-1-.53-1.46-.79a15.91,15.91,0,0,0-1.6-.8A7.61,7.61,0,0,0,67.51,2a3.38,3.38,0,0,0-.57-.11h-.19a1,1,0,0,0-.38,0,.76.76,0,0,0-.4.3.5.5,0,0,0-.09.24.64.64,0,0,0,.05.33,1.48,1.48,0,0,0,.3.45l.21.22a3.93,3.93,0,0,0,.79.62c.17.11.34.2.52.3s.52.25.79.37c.5.21,1,.4,1.54.56L68.3,5.22l-2.56-.1c-.75,0-1.49,0-2.23,0s-1.63,0-2.45-.07L59.86,5a3.58,3.58,0,0,1-.56-.16,5,5,0,0,1-1-.61,3.2,3.2,0,0,1-.47-.43,1.76,1.76,0,0,1-.14-.23,2.29,2.29,0,0,1-.08-.28v-.1s0,0,0,0a.21.21,0,0,1,0-.06A.17.17,0,0,1,57.73,3l.07,0a1.55,1.55,0,0,1,.31-.07h.18l.11,0,.16.1.54.45a.27.27,0,0,0,.19.08.27.27,0,0,0,.27-.27.27.27,0,0,0-.08-.19l-.33-.32a2.17,2.17,0,0,0-.55-.36h.08a.41.41,0,1,0,0-.82.41.41,0,0,0-.41.41.42.42,0,0,0,.22.36l-.23,0h0a.76.76,0,0,0-.21,0,1.31,1.31,0,0,0-.27.06.92.92,0,0,0-.43.24.76.76,0,0,0-.24.48,1.49,1.49,0,0,0,.06.52,1.57,1.57,0,0,0,.34.57,2.92,2.92,0,0,0,.41.37c.12.1.25.19.38.28h0c-1.47-.09-2.94-.18-4.42-.23l-.71,0a4,4,0,0,0-.64-.27L52,4.16l-.9-.32c-.61-.22-1.22-.45-1.82-.7l-.54-.22c-.63-.28-1.25-.56-1.88-.82-.16-.07-.33-.12-.49-.18L46,1.77a8.84,8.84,0,0,0-1.35-.32,3.57,3.57,0,0,0-.46,0h-.2a1.09,1.09,0,0,0-.3.07.53.53,0,0,0-.3.23.9.9,0,0,0-.09.32,1.22,1.22,0,0,0,0,.17,1.11,1.11,0,0,0,.07.16,2.14,2.14,0,0,0,.23.38,3.57,3.57,0,0,0,.3.38,3,3,0,0,0,.52.42,5.38,5.38,0,0,0,.85.38l.43.14.54.16c.17.06.36.09.54.14l.43.09.47.1c-1.13,0-2.26,0-3.38,0q-.66,0-1.32-.06l-.85-.28-1-.31-.86-.27-.87-.29c-.15-.07-.3-.13-.44-.21l-.55-.26a.2.2,0,0,0,0-.08.23.23,0,0,0-.19-.07h-.12c-.28-.11-.57-.21-.85-.33l-.92-.39a8,8,0,0,0-.86-.31A2.14,2.14,0,0,0,35,1.67l-.29,0h0a1.84,1.84,0,0,0-.33,0,1.4,1.4,0,0,0-.29.09,1.1,1.1,0,0,0-.21.14.39.39,0,0,0-.08.1.24.24,0,0,0-.06.11.57.57,0,0,0,0,.13.6.6,0,0,0,.06.19.83.83,0,0,0,.08.12l.1.1a.71.71,0,0,0,.14.1l.18.13a2,2,0,0,0,.39.19,2.84,2.84,0,0,0,.49.17c.14,0,.29.06.44.09a6.07,6.07,0,0,0,1.13.05l.59,0,.47,0,.32.1a.3.3,0,0,0,.18.2L39.37,4l.85.29h0l-.6,0c-.74,0-1.47-.11-2.21-.13H34.93l-1.3,0-.58,0-.48,0c-.55,0-1.09.1-1.63.17l-.29,0a5.67,5.67,0,0,1-.83-.24,5.07,5.07,0,0,1-.72-.4,2.69,2.69,0,0,1-.27-.2,2.65,2.65,0,0,1-.34-.33A1.64,1.64,0,0,1,28.35,3l0-.11V2.82l0-.09a1.18,1.18,0,0,1,.11-.19.8.8,0,0,1,.13-.13,1.63,1.63,0,0,1,.34-.19,2.94,2.94,0,0,1,.58-.16,1.7,1.7,0,0,1,.39,0,3,3,0,0,1,.43.12l.2.11h0v0h0v0s0,0,0,.06l-.05.09-.06.05a.24.24,0,0,0,.29.38.91.91,0,0,0,.21-.18,1.23,1.23,0,0,0,.12-.26.71.71,0,0,0,0-.29.63.63,0,0,0-.16-.27.64.64,0,0,0-.22-.14l-.27-.11a2.36,2.36,0,0,0-.59-.11A.42.42,0,0,0,30,1a.42.42,0,0,0-.76.34.41.41,0,0,0,.25.23l-.25,0a2.73,2.73,0,0,0-.57.19L28.43,2a1.49,1.49,0,0,0-.2.15,1.24,1.24,0,0,0-.18.22.89.89,0,0,0-.15.31.67.67,0,0,0,0,.28.66.66,0,0,0,.06.27,1.68,1.68,0,0,0,.35.5,4.4,4.4,0,0,0,.52.43,3.82,3.82,0,0,0,.48.29,3,3,0,0,0,.41.18l-.48.1c-.55.14-1.09.3-1.63.46a.46.46,0,0,0,.24.88Zm35.05.81c-.27.28-.55.55-.85.81a8.46,8.46,0,0,1-1.48.8c-.29.12-.57.24-.87.34a8.27,8.27,0,0,1-1.47.43,1.31,1.31,0,0,1-.28,0l-.14,0-.05,0-.11-.11a.41.41,0,0,1-.07-.11h0l0-.12a3.07,3.07,0,0,1,.17-.31l.14-.14a2.32,2.32,0,0,1,.41-.22l1.1-.42c.3-.11.6-.23.91-.33.67-.22,1.35-.4,2-.57l.73-.17-.21.19ZM89.76,4a10,10,0,0,1-1.32-.38,3.62,3.62,0,0,1-.76-.45,5.35,5.35,0,0,1-.9-.88A4,4,0,0,1,86.55,2a4,4,0,0,1-.2-.35s0-.07,0-.11,0,0,0,0a.09.09,0,0,1,0-.05v0l0,0,.07,0h.27a4.22,4.22,0,0,1,.79.23c.35.15.68.33,1,.5l.46.26.45.28c.33.21.65.42,1,.62s.62.35,1,.51l.92.41.94.41h0l-1.16-.14c-.51-.09-1-.16-1.53-.27ZM82.69,7.9l-.48.62c-.27.34-.54.67-.83,1a9.1,9.1,0,0,1-1.07,1.08,3.5,3.5,0,0,1-.62.37l-.32.15-.23.08-.25.07a3.71,3.71,0,0,1-.48.1,2.32,2.32,0,0,1-.59,0,.58.58,0,0,1-.25-.09l0,0v0s0,0,0,0a1.62,1.62,0,0,1,.1-.18,3.39,3.39,0,0,1,.51-.49L79,10l.76-.54.44-.29.38-.23.87-.41c.36-.16.71-.32,1.06-.5l.27-.15ZM69.61,4.75l-.43-.16-.4-.16c-.25-.12-.5-.23-.74-.36a6.21,6.21,0,0,1-1-.6,4.12,4.12,0,0,1-.66-.66,1.18,1.18,0,0,1-.11-.19l0-.09V2.45l0-.06.06-.06a.31.31,0,0,1,.1-.05.27.27,0,0,1,.12,0h.33a4.37,4.37,0,0,1,.89.27,7.05,7.05,0,0,1,.73.36l.76.43c.51.3,1,.59,1.53.9.25.16.5.33.76.48a6.44,6.44,0,0,0,.73.4c.15.08.31.13.46.2H71.49l-.31-.07-.32-.08L70.37,5l-.43-.14Zm-23.2-1-.62-.19c-.19-.06-.37-.14-.56-.21A3.36,3.36,0,0,1,44.56,3a2.78,2.78,0,0,1-.42-.42,3,3,0,0,1-.3-.48s0,0,0-.06h0L44,2a2,2,0,0,1,.49,0,7.63,7.63,0,0,1,1.33.34l.44.16.45.18.7.32.85.4c.53.25,1.07.47,1.61.69.37.16.75.31,1.13.45h-.41l-.86-.14c-.31,0-.61-.08-.92-.14l-.54-.09-.53-.11C47.26,4,46.83,3.86,46.41,3.75Zm-9.77-.86a6.77,6.77,0,0,1-.9,0l-.36-.06a3.43,3.43,0,0,1-.57-.17,2.7,2.7,0,0,1-.52-.3l-.09-.1h0l.09,0,.17,0a1.48,1.48,0,0,1,.42,0,4,4,0,0,1,.9.26l1,.48Zm2.18,2.35-.43.39c-.31.28-.63.56-1,.82a8.46,8.46,0,0,1-1.49.93,5.06,5.06,0,0,1-.94.27l-.45.08-.41,0a4.22,4.22,0,0,1-.87,0,2.26,2.26,0,0,1-.58-.16,1.46,1.46,0,0,1-.3-.17l-.09-.08,0-.09a.31.31,0,0,0,0-.08V7.11s0,0,0-.06a1.74,1.74,0,0,1,.11-.18,3,3,0,0,1,.4-.39,3.58,3.58,0,0,1,.66-.37,5.08,5.08,0,0,1,.94-.28l.54-.1.54-.08.37-.06c.66-.1,1.31-.21,2-.3l.94-.14h.19Z" fill="#83c5be"/><path d="M49.86,4.11l0,0h0Z" fill="#83c5be"/><path d="M92.87,7h0Z" fill="#83c5be"/><circle cx="91.98" cy="6.88" r="0.41" fill="#83c5be"/><circle cx="91.21" cy="8.32" r="0.41" fill="#83c5be"/><path d="M93,9.56a.42.42,0,0,0-.42-.42.41.41,0,0,0-.41.42.41.41,0,0,0,.41.41A.42.42,0,0,0,93,9.56Z" fill="#83c5be"/><path d="M78.65,1.45A.41.41,0,0,0,79.07,1a.42.42,0,0,0-.42-.42.41.41,0,0,0-.41.42h0A.41.41,0,0,0,78.65,1.45Z" fill="#83c5be"/><path d="M77.26.94a.47.47,0,1,0-.47-.47A.47.47,0,0,0,77.26.94Z" fill="#83c5be"/><path d="M75.91,1.7a.41.41,0,0,0,.41-.41.41.41,0,1,0-.82,0A.41.41,0,0,0,75.91,1.7Z" fill="#83c5be"/><path d="M57.54,2.29A.41.41,0,0,0,58,1.87a.41.41,0,0,0-.41-.41.41.41,0,0,0-.42.41A.43.43,0,0,0,57.54,2.29Z" fill="#83c5be"/><path d="M56.31,2.79a.42.42,0,0,0,.42-.42A.41.41,0,0,0,56.31,2a.41.41,0,0,0-.41.41h0A.43.43,0,0,0,56.31,2.79Z" fill="#83c5be"/><circle cx="42.42" cy="7.6" r="0.41" fill="#83c5be"/><path d="M41.73,8.7a.42.42,0,1,0,.41-.41h0A.41.41,0,0,0,41.73,8.7Z" fill="#83c5be"/><path d="M43.84,9.6a.41.41,0,1,0-.82,0,.41.41,0,0,0,.82,0Z" fill="#83c5be"/><path d="M28,1.91a.42.42,0,1,0-.42-.42A.42.42,0,0,0,28,1.91Z" fill="#83c5be"/><circle cx="28.82" cy="0.7" r="0.41" fill="#83c5be"/><path d="M5.12,62.74c0-.09,0-.18,0-.27v0Z" fill="#83c5be"/><path d="M4.14,73.78a5.09,5.09,0,0,0,0-.78.33.33,0,0,0,.21-.09,2,2,0,0,0,.24-.33l.37-.34A1.06,1.06,0,0,0,5.1,72a2.28,2.28,0,0,1,0,.26c.07,1.16.07,2.32.06,3.47,0,.56,0,1.12,0,1.68s0,1.18.08,1.77a.77.77,0,0,0,.22.54.76.76,0,0,0,1.08,0h0a.83.83,0,0,0,.23-.54c.08-.8.16-1.6.2-2.4s.07-1.65.07-2.47,0-1.63,0-2.45S7,70.25,7,69.43c0-.48,0-1,0-1.44,0-.31,0-.62,0-.92a1.54,1.54,0,0,0,.08.19c.07.18.15.34.23.51a6.05,6.05,0,0,0,.62,1,3,3,0,0,0,1.69,1.08,1,1,0,0,0,.35,0,1.09,1.09,0,0,0,.36-.12,1,1,0,0,0,.4-.57,1.51,1.51,0,0,0,0-.79,3.12,3.12,0,0,0-.29-.71c-.09-.17-.18-.34-.26-.51s-.22-.43-.34-.63a4.27,4.27,0,0,0-.45-.6A5.44,5.44,0,0,0,9,65.48l-.49-.4a6,6,0,0,1-.9-.84,5,5,0,0,1-.34-.59v0c.11-.71.22-1.41.36-2.11s.35-1.59.58-2.38.41-1.33.63-2a4.91,4.91,0,0,0,.15.51,9.47,9.47,0,0,0,.67,1.26c.1.16.2.32.31.48a3.11,3.11,0,0,0,.55.6,5.6,5.6,0,0,0,.49.36,2.48,2.48,0,0,0,.66.31.91.91,0,0,0,.61,0,1,1,0,0,0,.55-.54,1.76,1.76,0,0,0,.17-.55c0-.11,0-.21,0-.32a.31.31,0,0,0,0-.1,1.63,1.63,0,0,0,0-.31,2,2,0,0,0-.44-.84.61.61,0,0,0-.24-.15.58.58,0,0,0-.32,0,.22.22,0,1,0,0,.43h.13l0,0,.07.06.06.11a2.37,2.37,0,0,1,.09.36,1.48,1.48,0,0,1,0,.21l-.06.25c0,.12-.07.23-.11.35a2.25,2.25,0,0,1-.12.21l-.07.07h0a2.4,2.4,0,0,1-.38-.12,4.59,4.59,0,0,1-.52-.33l.05,0L11,59.39a2.76,2.76,0,0,1-.3-.29L10.59,59c-.14-.2-.27-.4-.39-.61a8.21,8.21,0,0,1-.44-.83,4.58,4.58,0,0,1-.19-.66c0-.09,0-.19-.05-.29,0-.32,0-.64,0-1,0-.15,0-.29,0-.44s.14-.38.2-.58a19.22,19.22,0,0,0,.5-2.25,17.94,17.94,0,0,0,.31-2.64c0-.77,0-1.55-.08-2.32s-.05-1.51-.05-2.26h0l.09.26q.25.68.57,1.32c.09.17.18.35.28.52a8.11,8.11,0,0,0,.7,1,2.8,2.8,0,0,0,.6.54,1.11,1.11,0,0,0,.88.18.84.84,0,0,0,.48-.64l.06-.41a4,4,0,0,0,0-1,7,7,0,0,0-.2-.91c0-.11-.07-.23-.1-.34a7.27,7.27,0,0,0-.35-.92,3.62,3.62,0,0,0-.42-.74,4.54,4.54,0,0,0-.39-.48c-.21-.24-.43-.47-.65-.7s-.44-.49-.65-.74l-.34-.44c-.12-.15-.22-.3-.33-.45l-.27-.4,0,0v-.37c0-.78,0-1.56-.09-2.33S10,36.4,9.87,35.56c-.07-.38-.15-.75-.24-1.13s-.2-.75-.31-1.12-.2-.7-.33-1-.32-.8-.5-1.19a7.27,7.27,0,0,1-.37-1.31c0-.42,0-.84,0-1.26s0-.79,0-1.19c0-.82,0-1.63,0-2.45s.05-1.73.09-2.6l.15.2a2.74,2.74,0,0,0,.36.32l.33.25,0,.09.37.62a6.54,6.54,0,0,1,.3.59,9.32,9.32,0,0,1,.37,1.05c.11.38.2.77.31,1.16.06.19.12.38.2.57a4.11,4.11,0,0,0,.41.81,1.61,1.61,0,0,0,.58.58.67.67,0,0,0,.37.08.56.56,0,0,0,.37-.15,1.14,1.14,0,0,0,.18-.25,2.06,2.06,0,0,0,.12-.35,2.33,2.33,0,0,0,0-.53q0-.33-.09-.66a2.42,2.42,0,0,0-.1-.45c-.05-.16-.11-.31-.17-.46a6.77,6.77,0,0,0-.59-1.09c-.12-.18-.24-.37-.37-.55s-.29-.38-.44-.55a6.91,6.91,0,0,0-.88-.83l-.57-.43c-.09-.07-.18-.12-.27-.18L9.08,22a3.57,3.57,0,0,1-.28-.27A6.59,6.59,0,0,1,8.36,21c0-.26,0-.52,0-.78,0-.79.11-1.59.19-2.38s.19-1.68.28-2.51S9,13.79,9.07,13c0-.24,0-.48,0-.72A2.93,2.93,0,0,0,9.15,12c.06.13.12.26.19.39a3.3,3.3,0,0,0,.18.32,4,4,0,0,0,.22.34,1.29,1.29,0,0,0,.19.21,2.11,2.11,0,0,0,.23.19l.3.18.29.14h0a.51.51,0,0,0-.16.37.51.51,0,0,0,1,0,.48.48,0,0,0-.14-.34l.27-.09a1.19,1.19,0,0,0,.42-.28,1.15,1.15,0,0,0,.22-.46,4.7,4.7,0,0,0,.13-.63,2.27,2.27,0,0,0-.91-1.91.36.36,0,0,0-.22-.09.31.31,0,0,0-.31.31.29.29,0,0,0,.09.22,4.47,4.47,0,0,1,.42.45,2.89,2.89,0,0,1,.27.44,1.47,1.47,0,0,1,.08.28,1.82,1.82,0,0,1,0,.33l-.06.3c0,.1-.05.2-.09.3l0,.09,0,0-.16.09-.28.08h-.2l-.16,0a4.15,4.15,0,0,1-.53-.32,1.7,1.7,0,0,1-.19-.19,3.77,3.77,0,0,1-.39-.64l-.24-.48h0v0l0,0v0l0,0,0-.08,0-.05,0-.06a4.72,4.72,0,0,1-.23-1c0-.34-.05-.68-.07-1s0-.41,0-.62,0-.44,0-.66a.28.28,0,0,0-.1-.21c0-.1,0-.2,0-.31S9,7.08,9,6.84s-.07-.51-.1-.77a1.57,1.57,0,0,1,0-.23c.08.07.23,0,.16-.14l-.31-.49a.57.57,0,0,0,0-.14c0-.12-.06-.23-.19-.27h0l-.06,0c-.14.09-.12.26-.12.4s0,.34,0,.5l0,1.13c0,.7,0,1.41,0,2.12s-.08,1.45-.11,2.18S8,12.52,7.92,13.22c0,0,0,0,0,.08a1.42,1.42,0,0,1-.08.18,4.91,4.91,0,0,1-.51.85c-.25.31-.51.62-.79.91s-.55.56-.81.85l-.41.49-.43.57-.69.94L3.5,19l-.17.25a3.75,3.75,0,0,0-.24.36,3.85,3.85,0,0,0-.34.71,1.36,1.36,0,0,0-.08.39,1.63,1.63,0,0,0,0,.44,1,1,0,0,0,.13.33,1.3,1.3,0,0,0,.21.31.73.73,0,0,0,.33.19l.17,0,.27,0a1.39,1.39,0,0,0,.65-.3l.29-.25c.14-.12.26-.26.39-.39a9.16,9.16,0,0,0,.76-.89,10.52,10.52,0,0,0,.62-1l.27-.5c.11-.23.21-.45.32-.67s.08-.18.12-.27l0,.21c-.12.79-.2,1.58-.28,2.37S6.75,22,6.67,22.84c-.16,1.59-.2,3.19-.31,4.79,0,.37-.05.75-.07,1.12s0,.55,0,.82-.09.32-.15.47l-.21.43-.29.46c-.09.1-.17.2-.27.3a2.75,2.75,0,0,1-.26.22,1.35,1.35,0,0,1-.33.19l-.09,0a3,3,0,0,1-.43.12H4.09l-.2-.05-.28-.16a1.89,1.89,0,0,1-.2-.2,1.6,1.6,0,0,1-.24-.59,1.18,1.18,0,0,1,0-.2,1.5,1.5,0,0,1,0-.3,2.11,2.11,0,0,1,.12-.43,1.59,1.59,0,0,1,.13-.22l.09-.09.1,0a1.34,1.34,0,0,1,.27-.07H4l0,0a.3.3,0,0,0,.16-.58h0a1,1,0,0,0-.3-.05H3.72l-.17,0a1.13,1.13,0,0,0-.59.31,1.3,1.3,0,0,0-.18.23,1.15,1.15,0,0,0-.12.25,2,2,0,0,0-.18.58,2.06,2.06,0,0,0,0,.35c0,.08,0,.17,0,.26a1.55,1.55,0,0,0,.08.36,2.45,2.45,0,0,0,.24.52,1.75,1.75,0,0,0,.47.47,1.41,1.41,0,0,0,.24.13,1.45,1.45,0,0,0,.29.11,1.18,1.18,0,0,0,.62,0,2.48,2.48,0,0,0,.48-.17l.28-.14a3.44,3.44,0,0,0,.36-.28,2.13,2.13,0,0,0,.3-.3c.08-.09.15-.2.23-.3s.11-.18.16-.27l.14-.25a7.58,7.58,0,0,0,.23.94l.19.52c.08.21.15.43.23.64l0,.1c0,.2,0,.4,0,.6a2.53,2.53,0,0,0,0,.28h0a.46.46,0,0,0-.28.21c-.2.42-.39.84-.6,1.25s-.37.7-.57,1-.46.77-.71,1.15-.46.63-.68,1A9.28,9.28,0,0,0,3.27,40a2.41,2.41,0,0,0-.16.42A3,3,0,0,0,3,40.8a1.7,1.7,0,0,0,0,.39,3.1,3.1,0,0,0,.11.51,1.35,1.35,0,0,0,.17.34.6.6,0,0,0,.32.25.76.76,0,0,0,.21,0,.64.64,0,0,0,.2,0,2.19,2.19,0,0,0,.38-.17c.18-.1.35-.21.51-.32l.4-.29A4,4,0,0,0,6,40.89c.16-.2.3-.42.45-.63L6.55,40l.18-.31A5.39,5.39,0,0,0,7.07,39a8.71,8.71,0,0,0,.32-.85,10.46,10.46,0,0,0,.24-1.08c0-.3.1-.59.16-.89,0,.12,0,.23.06.35.08.73.14,1.47.17,2.21S8,40.27,8,41c0,1.56,0,3.12,0,4.69H8c-.09.33-.19.66-.31,1a5.24,5.24,0,0,1-.45.76l-.17.22-.19.23c-.08.07-.15.16-.22.23l-.25.22-.24.2a2.18,2.18,0,0,1-.31.22l-.2.14a3.78,3.78,0,0,1-.53.27A5.43,5.43,0,0,1,4,49.53a2.18,2.18,0,0,1-.51,0A1.85,1.85,0,0,1,3,49.42a2.55,2.55,0,0,1-.5-.3,3.19,3.19,0,0,1-.45-.45,2.07,2.07,0,0,1-.19-.32,4.15,4.15,0,0,1-.2-.77l0-.18a3.09,3.09,0,0,1,0-.43,3,3,0,0,1,.12-.43A1.92,1.92,0,0,1,2,46.23a3,3,0,0,1,.48-.46l.29-.2.32-.17a2.13,2.13,0,0,1,.43-.13,3.42,3.42,0,0,1,.64,0l.13,0,.16.09a.28.28,0,0,0,.38-.1.27.27,0,0,0,0-.33,1.24,1.24,0,0,0-.22-.18,1,1,0,0,0-.27-.1,1.63,1.63,0,0,0-.31,0l-.42,0a2.19,2.19,0,0,0-1,.43,4.64,4.64,0,0,0-.66.59,1.94,1.94,0,0,0-.41.6,2.1,2.1,0,0,0-.16,1.08h0a3.19,3.19,0,0,0,.44,1.44,3,3,0,0,0,.81.78,2.59,2.59,0,0,0,.5.25,2.44,2.44,0,0,0,.61.11,3,3,0,0,0,.6-.05,4.29,4.29,0,0,0,.62-.14,5.1,5.1,0,0,0,.55-.19,3.33,3.33,0,0,0,.5-.25l.35-.23L6.43,49c.08,0,.15-.12.22-.17a5.32,5.32,0,0,0,.61-.55,6.27,6.27,0,0,0,.77-1c0,.35,0,.69,0,1s0,.84,0,1.26,0,.74-.08,1.1a1.84,1.84,0,0,1-.05.25,7.31,7.31,0,0,1-.52.84A10.24,10.24,0,0,1,6.13,53l-.25.18-.33.21c-.21.14-.42.26-.64.39a9.74,9.74,0,0,0-1.29.92L3,55.25a4.66,4.66,0,0,0-.66.74,4.23,4.23,0,0,0-.53,1,5.31,5.31,0,0,0-.29,1,5.14,5.14,0,0,0-.06.55,2.45,2.45,0,0,0,0,.27,2.29,2.29,0,0,0,.07.36,1.28,1.28,0,0,0,.23.43.83.83,0,0,0,.4.24A1.19,1.19,0,0,0,3,59.58l.6-.33L3.93,59a5.88,5.88,0,0,0,.88-.59,6.21,6.21,0,0,0,.72-.73c.17-.21.32-.43.47-.65s.27-.44.39-.66.17-.31.25-.46c-.15.46-.3.92-.44,1.38-.22.74-.41,1.48-.57,2.23-.21,1-.34,1.94-.47,2.91a34.81,34.81,0,0,0-.25,4.09h0L4.85,67a.22.22,0,0,1,0-.08,3.9,3.9,0,0,1-.13.57,5.39,5.39,0,0,1-.3.52l-.25.35c0,.06-.1.13-.16.19l-.21.2-.16.12L3.38,69,3,69.21a4,4,0,0,1-.49.15H2.31l-.2-.06a2.59,2.59,0,0,1-.33-.19L1.63,69l-.1-.17a3.23,3.23,0,0,1-.16-.63.54.54,0,0,1,0-.18,1.17,1.17,0,0,1,0-.2l.05-.09.15-.15.2-.1.13,0h.1l.15,0,.14.09a.22.22,0,0,0,.15.06.2.2,0,0,0,.15-.06.21.21,0,0,0,.07-.15.27.27,0,0,0-.11-.19A1,1,0,0,0,2.16,67H1.92a1.14,1.14,0,0,0-.26.09,1.17,1.17,0,0,0-.4.3,1.27,1.27,0,0,0-.13.19,1,1,0,0,0-.08.22,1.19,1.19,0,0,0,0,.53l0,.18a1.89,1.89,0,0,0,.21.66,1.37,1.37,0,0,0,.38.38,1.74,1.74,0,0,0,.48.22,1.4,1.4,0,0,0,.61,0,3.26,3.26,0,0,0,.69-.22l0,0,0,0h0l.09,0-.06,0,.18-.08.15-.08.17-.1.15-.1a2.75,2.75,0,0,0,.56-.57,3.78,3.78,0,0,0,.22-.33c0,.36,0,.71,0,1.07h0c-.07.3-.16.6-.24.9a5,5,0,0,1-.17.55v0l-.14.22a8.13,8.13,0,0,1-1.29,1.2c-.18.13-.34.27-.51.42s-.34.35-.5.53a5,5,0,0,0-.54.67,5.3,5.3,0,0,0-.39.61,3.69,3.69,0,0,0-.29.64,1.49,1.49,0,0,0,0,1,.72.72,0,0,0,.14.24l.16.13a1.27,1.27,0,0,0,.35.17.93.93,0,0,0,.44,0,1.54,1.54,0,0,0,.46-.19l.35-.23A3.22,3.22,0,0,0,3,76.09a7,7,0,0,0,.51-.58c.08-.09.14-.19.21-.28A1.92,1.92,0,0,0,4,74.77,3.33,3.33,0,0,0,4.14,73.78Zm4.29-7.57a5,5,0,0,1,.69.69c.16.22.29.47.43.71a7.78,7.78,0,0,1,.42.74,1.92,1.92,0,0,1,.09.32v.17A1,1,0,0,1,10,69s0,0,0,.08h0l-.09,0h0L9.5,69A3,3,0,0,1,9,68.73a3.71,3.71,0,0,1-.55-.57,5.76,5.76,0,0,1-.59-1L7.82,67c0-.09-.08-.18-.11-.27s-.15-.39-.2-.59-.12-.44-.16-.66h0C7.69,65.71,8.07,66,8.43,66.21ZM10.9,42.85c.16.17.31.35.47.51.33.35.66.68,1,1a5.06,5.06,0,0,1,.51.91c.13.33.23.66.33,1a4.94,4.94,0,0,1,.19.78,4.42,4.42,0,0,1,0,.89c0,.12,0,.23-.07.35l0,0h0l-.12,0a1.38,1.38,0,0,1-.24-.14,2.63,2.63,0,0,1-.4-.42,5.93,5.93,0,0,1-.4-.62l-.19-.35c-.12-.24-.23-.47-.34-.71A14.08,14.08,0,0,1,11,44.3c-.08-.32-.12-.64-.17-1s-.07-.49-.11-.73ZM12,27.94Zm-1-3.16c.16.22.32.43.46.65a9.27,9.27,0,0,1,.44.82,5.09,5.09,0,0,1,.24.95,2.26,2.26,0,0,1,0,.45,1.05,1.05,0,0,1-.05.19l-.06.1-.07,0-.14-.15a3,3,0,0,1-.29-.49c-.06-.16-.12-.31-.17-.47s-.12-.41-.17-.62L10.92,25a4.42,4.42,0,0,0-.15-.48ZM9.48,11.38h0v0h0Zm0-.05h0v0Zm-6,62.77a3,3,0,0,1-.16.59c-.07.12-.14.25-.22.36l-.31.37a3.28,3.28,0,0,1-.34.31A3.23,3.23,0,0,1,2,76l-.13,0H1.77L1.7,76,1.6,76l0,0h0V75.7c0-.09.05-.19.08-.28a4.48,4.48,0,0,1,.44-.72,6.25,6.25,0,0,1,.61-.65,6.48,6.48,0,0,1,.62-.54l.15-.11a4.1,4.1,0,0,1,0,.7Zm0-52.72h0Zm0,0h0l0,0Zm4.11-5.91-.49,1.23c-.11.24-.22.49-.32.73l-.3.62a11.64,11.64,0,0,1-1.14,2c-.22.27-.46.52-.7.77a5.8,5.8,0,0,1-.52.47,1.18,1.18,0,0,1-.19.11l-.22.05H3.51l0,0-.05,0a1.28,1.28,0,0,1-.11-.2c0-.05,0-.1-.05-.16V20.8a1.7,1.7,0,0,1,.1-.32,6.23,6.23,0,0,1,.7-1.08c.45-.56.9-1.12,1.34-1.69v0c.24-.32.49-.63.76-.93s.55-.57.82-.85.42-.45.62-.68l0,.17ZM7,37.16c0,.23-.1.47-.16.7a6,6,0,0,1-.25.71,6.63,6.63,0,0,1-.4.8l-.25.41c-.13.21-.27.41-.41.61a4.31,4.31,0,0,1-.67.68l-.39.27a3,3,0,0,1-.52.3l-.08,0a.35.35,0,0,1,0-.08,2.37,2.37,0,0,1-.09-.36,2.44,2.44,0,0,1,0-.38,2.13,2.13,0,0,1,.13-.43,6.64,6.64,0,0,1,.67-1.12c.11-.17.23-.33.35-.49.26-.32.52-.64.75-1l.76-1.14c.2-.33.39-.66.58-1l.24-.47a.26.26,0,0,0,.15,0c-.08.48-.17,1-.25,1.45C7.06,36.83,7,37,7,37.16ZM2.51,59h0l.05,0Zm3.43-3.23A13.06,13.06,0,0,1,5.15,57a5.26,5.26,0,0,1-.84.86,9.51,9.51,0,0,1-1.73,1l-.1,0v0a2.54,2.54,0,0,1,0-.39,5.31,5.31,0,0,1,.31-1,4.32,4.32,0,0,1,.44-.78,9.68,9.68,0,0,1,1.28-1.2L5,55.12c.18-.12.37-.23.56-.34l.57-.34.32-.2c.12-.07.22-.16.33-.23L7,53.84c-.14.29-.29.58-.44.87S6.15,55.43,5.94,55.78Z" fill="#83c5be"/><path d="M9.58,11.62v0Z" fill="#83c5be"/><path d="M13.75,13.34a.47.47,0,1,0-.47.46h0A.47.47,0,0,0,13.75,13.34Z" fill="#83c5be"/><path d="M12.13,14.39a.52.52,0,0,0,.52.52.52.52,0,0,0,0-1h0A.52.52,0,0,0,12.13,14.39Z" fill="#83c5be"/><circle cx="1.64" cy="30.66" r="0.41" fill="#83c5be"/><circle cx="2.42" cy="32.73" r="0.47" fill="#83c5be"/><circle cx="4.33" cy="33.22" r="0.59" fill="#83c5be"/><path d="M13.53,59.57a.41.41,0,0,0,.42-.41.42.42,0,0,0-.42-.42.41.41,0,0,0-.41.42h0A.41.41,0,0,0,13.53,59.57Z" fill="#83c5be"/><path d="M13.55,61a.61.61,0,1,0,0-1.21.61.61,0,1,0,0,1.21Z" fill="#83c5be"/><path d="M12.6,61.53a.47.47,0,1,0-.47.46A.47.47,0,0,0,12.6,61.53Z" fill="#83c5be"/><circle cx="1.98" cy="70.52" r="0.41" fill="#83c5be"/><path d="M1.1,69.3a.42.42,0,0,0-.42-.42.42.42,0,0,0-.41.42.41.41,0,0,0,.41.41h0A.41.41,0,0,0,1.1,69.3Z" fill="#83c5be"/><path d="M1.36,70.77a.46.46,0,0,0-.46-.46.46.46,0,0,0,0,.91A.46.46,0,0,0,1.36,70.77Z" fill="#83c5be"/><circle cx="0.41" cy="49.18" r="0.41" fill="#83c5be"/><path d="M2.15,50.48a.42.42,0,0,0-.83,0,.42.42,0,0,0,.41.42A.43.43,0,0,0,2.15,50.48Z" fill="#83c5be"/><circle cx="3.34" cy="51.5" r="0.41" fill="#83c5be"/><path d="M5.23,51.36A.41.41,0,1,0,4.82,51,.41.41,0,0,0,5.23,51.36Z" fill="#83c5be"/><circle cx="0.68" cy="47.41" r="0.41" fill="#83c5be"/></svg>