<svg id="Layer_1" data-name="Layer 1" xmlns="http://www.w3.org/2000/svg" width="87.08" height="90.71" viewBox="0 0 87.08 90.71"><path id="footer_bird_0" d="M64.09,47S59.59,39.34,54,39.12s-22-.23-27.22-1.58c0,0,11,8.1,20.69,8.1s9,6.52,5.18,8.1-10.8,2-8.55,5.62c0,0,2.25,2,5.84-.67s4.73-1.13,11-.45,7.2,2,7.87,5.62-.67,8.33,5.4,18,9.45,10.57,9.22,6.75S78.48,72,78,65s-3.59-9.9-8.55-12.6a3.43,3.43,0,0,1,3.38-2.25c2.7,0,5.62-.45,1.8-2.93s-5.4-.22-7.43.45-2,.23-3.14-.67Z" fill="#83c5be"/><path id="footer_bird_1" d="M33.87,68.74s-.15-.9,1.35-1.49.3-2-2.25-2.85-1.49.9-3.14,1.5-2.25.15-3.74-.75-2.55-1.8-10.63-1.5S-3.25,61.86,1,64.4s4.19,2.85,8.82,2.7S24.14,67,24.14,68.74s-1.05,3.59-2.39,4-3.59,3.29-1.35,3.44,2.54-2.09,5.09-2.84,5.39-1.95,7.48.15S41.2,86,46.29,87.45s5.09.3,2.4-3.59S38.51,68.3,33.87,68.74Z" fill="#83c5be"/><path id="footer_bird_2" d="M57.2,20a17,17,0,0,0-4.52-6.88C49.46,10.32,45.38,8,42.15,5S37.21,0,37.21,0,39.57,9.24,46,14s8.17,8.6,7.52,11.18A4.1,4.1,0,0,0,54.19,29S48.81,36.76,52,34.4a9.12,9.12,0,0,0,3.66-5.59s5.59-1.93,6.23-4.3,1.5-1.72,11-1.72S87.08,20,87.08,20s-7.31.86-12.25-.22-10.75-.43-13.33,1.29L63.65,17,58.7,15.05Z" fill="#83c5be"/></svg>