<svg id="Layer_1" data-name="Layer 1" xmlns="http://www.w3.org/2000/svg" width="87.5" height="87.5" viewBox="0 0 87.5 87.5"><path d="M68.75,15.62H68a.77.77,0,0,1-.78-.78V13.28A.78.78,0,0,1,68,12.5h9.37a3.92,3.92,0,0,0,3.91-3.91V3.91A3.92,3.92,0,0,0,77.34,0H68a3.92,3.92,0,0,0-3.91,3.91V14.84a.77.77,0,0,1-.78.78H29.69A18.77,18.77,0,0,0,10.94,34.38H1.5a1.28,1.28,0,0,0-.33.06,1,1,0,0,0-.26.08,1.67,1.67,0,0,0-.24.16,1,1,0,0,0-.25.2s0,0-.06,0a.76.76,0,0,0-.09.18,1,1,0,0,0-.16.29.91.91,0,0,0-.06.32.72.72,0,0,0,0,.21v25s0,.14.05.2a1,1,0,0,0,.06.33,1,1,0,0,0,.16.28,1.07,1.07,0,0,0,.09.19s0,0,0,0a2.88,2.88,0,0,0,.39.3l.14.08a1.41,1.41,0,0,0,.62.14H10L4.86,72.73a1.59,1.59,0,0,0,.06,1.54A1.56,1.56,0,0,0,6.25,75H40.62a1.54,1.54,0,0,0,1.4-.86l3.29-6.58V85.84a1.64,1.64,0,0,0,1.3,1.64,1.58,1.58,0,0,0,1.83-1.54V62.5h6.25V85.84A1.63,1.63,0,0,0,56,87.48a1.57,1.57,0,0,0,1.83-1.54V62.5h25a4.7,4.7,0,0,0,4.69-4.69V34.37A18.77,18.77,0,0,0,68.75,15.62Zm-34,21.88-14.44,12L5.87,37.5ZM3.12,39.27l11,9.17-11,9.17Zm2.75,20.1,10.69-8.9,2.75,2.3a1.62,1.62,0,0,0,1,.35,1.6,1.6,0,0,0,1-.35l2.75-2.3,10.69,8.9ZM37.5,57.61l-11-9.17,11-9.17Zm46.87.2a1.56,1.56,0,0,1-1.56,1.56H48.44v-25A18.69,18.69,0,0,0,43,21.11a19.11,19.11,0,0,0-2.89-2.36H63.28a.78.78,0,0,1,.78.78V34.59a6.26,6.26,0,0,0-4.67,6.5,6.33,6.33,0,0,0,6.15,5.78,6.24,6.24,0,0,0,1.65-12.28V19.53a.78.78,0,0,1,.78-.78h0a16.45,16.45,0,0,1,16.4,16.41Z" fill="#83c5be"/></svg>