<?xml version="1.0" encoding="UTF-8" standalone="no"?>
<!DOCTYPE svg PUBLIC "-//W3C//DTD SVG 1.1//EN" "http://www.w3.org/Graphics/SVG/1.1/DTD/svg11.dtd">
<svg width="100%" height="100%" viewBox="0 0 4821 3217" version="1.1" xmlns="http://www.w3.org/2000/svg" xmlns:xlink="http://www.w3.org/1999/xlink" xml:space="preserve" xmlns:serif="http://www.serif.com/" style="fill-rule:evenodd;clip-rule:evenodd;stroke-linejoin:round;stroke-miterlimit:2;">
    <g transform="matrix(1,0,0,1,-85.8912,-88.4302)">
        <g transform="matrix(1.00532,0,0,1.00532,-16.0216,6.03645)">
            <g transform="matrix(3.26485,0,0,3.26485,0,0)">
                <path d="M365.34,176.885C353.04,156.455 334.277,146.311 315.605,132.676C290.023,113.994 244.373,77.935 233.749,47.786C231.103,40.276 229.716,32.49 233.255,25.103C235.036,25.129 236.531,25.191 238.017,26.27C242.743,29.702 245.853,35.089 249.685,39.427C255.486,45.995 261.583,52.441 267.74,58.675C304.949,96.348 359.56,138.43 407.191,161.911C383.323,133.642 352.665,104 338.165,69.648C334.827,61.741 329.274,43.525 333.079,35.331C334.26,32.787 336.063,30.985 338.736,30.156C339.277,30.272 340.511,30.37 340.94,30.631C341.156,30.763 366.009,71.248 369.691,76.143C398.699,114.718 432.699,148.256 470.215,178.514C483.215,188.998 496.078,199.378 510.604,207.713C506.443,195.854 500.07,177.393 502.161,164.835C502.588,162.266 503.3,160.49 505.467,158.971C507.628,158.754 508.275,159.538 509.766,161.141C513.822,165.503 516.519,171.476 519.715,176.494C523.32,182.154 527.392,187.537 531.569,192.784C545.066,209.498 559.677,225.281 575.303,240.023C582.93,247.139 591.229,253.62 598.647,260.936C606.356,268.539 610.01,279.355 617.998,286.749C630.044,297.899 644.022,307.933 657.304,317.593C683.61,336.755 710.904,354.522 739.073,370.821C763.439,384.847 788.699,397.565 813.403,411.013C860.686,408.718 925.295,398.894 970.741,406.028C987.584,408.672 1005.15,414.252 1015.59,428.618C1028.36,431.908 1044.29,438.879 1051.24,450.638C1054.91,456.845 1055.63,463.813 1053.82,470.744C1051.99,477.758 1048.51,483.071 1042.26,486.811C1042.33,486.611 1042.41,486.413 1042.48,486.211C1043.7,482.376 1041.64,475.997 1039.82,472.593C1031.09,478.5 1017.95,475.813 1008.23,475.176C1004.38,474.923 1001.09,475.631 997.564,477.162C984.015,483.051 953.992,506.651 942.203,516.743C963.88,546.355 1055.85,596.944 1091.98,612.749C1106.09,618.92 1122.32,621.708 1135.69,628.911C1145.21,634.036 1153.77,641.224 1162.86,647.114C1184.26,660.996 1207.33,674.447 1230.79,684.476C1240.42,688.59 1250.33,692.432 1260.36,695.457C1267.08,697.485 1300.35,702.898 1303.15,706.852C1302.66,708.815 1302.47,709.709 1300.7,710.945C1298.13,712.738 1293.71,713.119 1290.68,713.509C1270.35,716.122 1253.31,710.465 1233.57,707.251C1244.33,711.387 1267.91,729.205 1279.02,736.666C1303.64,753.21 1328.96,768.696 1356.32,780.348C1375.43,788.487 1394.46,795.344 1414.76,799.941C1421.26,801.414 1466.09,807.554 1466.31,807.671C1467.74,808.412 1467.68,809.02 1468.1,810.46C1467.23,812.238 1466.77,812.735 1465.01,813.699C1459.61,816.662 1451.54,817.269 1445.42,817.826C1420.06,820.133 1394.27,814.105 1370.66,805.186C1361.49,801.722 1352.61,797.397 1343.24,794.478C1352.13,799.09 1359.86,807.596 1368.07,813.496C1386.08,826.426 1408.16,837.719 1428.78,845.715C1441.19,850.421 1454,853.993 1467.05,856.388C1475.86,857.916 1487.27,858.049 1495.48,861.375C1497.74,862.292 1498.62,863.059 1499.59,865.225C1498.91,866.839 1498.79,867.232 1497.27,868.108C1493.15,870.493 1486.43,870.606 1481.67,870.857C1449.71,872.537 1419.14,862.422 1390.33,849.588C1380.1,845.028 1369.39,836.898 1358.67,834.163C1358.4,834.094 1358.13,834.032 1357.87,833.967C1365.92,837.991 1373.56,845.874 1380.78,851.34C1389.96,858.28 1399.56,864.252 1409.43,870.126C1420.84,876.921 1432.43,883.715 1444.51,889.251C1453.77,893.49 1464.69,896.886 1473.28,902.151C1473.91,903.913 1473.81,904.183 1473.43,905.93C1472.52,907.065 1471.62,907.849 1470.23,908.344C1460.68,911.724 1445.48,908.747 1435.74,906.335C1401.4,897.827 1372.69,882.11 1344.76,860.497C1335.49,853.322 1325.05,842.622 1314.35,838.032C1314.13,837.936 1313.9,837.845 1313.67,837.752C1319.68,842.766 1324.37,854.778 1329.3,861.496C1339.45,875.313 1350.68,888.785 1361.88,901.754C1373.59,915.319 1405.76,940.813 1412.17,953.167C1412.35,953.524 1412.52,953.891 1412.68,954.26C1412.6,956.38 1412.49,956.315 1411.12,957.772C1407.05,958.688 1402.57,957.075 1398.67,955.889C1371.21,947.534 1339.56,923.582 1319.58,903.424C1311.8,895.577 1303.98,887.528 1296.72,879.199C1292.44,874.283 1288.67,868.886 1284.12,864.205C1283.16,863.225 1282.18,862.552 1280.95,861.955C1280.78,861.876 1280.61,861.809 1280.45,861.736C1286.45,868.898 1290.86,879.021 1295.48,887.205C1301.16,897.156 1307.13,906.94 1313.38,916.543C1327.13,938.039 1344.85,958.101 1356.41,980.807C1357.98,983.887 1359.38,987.1 1358.28,990.571C1357.14,991.786 1356.86,992.177 1355.21,992.46C1349.83,993.384 1341.42,988.241 1337.04,985.549C1302.91,964.555 1277.99,924.133 1257.07,890.889C1253.03,884.469 1245.6,868.983 1239.93,865.24C1239.73,865.109 1239.53,864.985 1239.33,864.857C1239.62,865.326 1239.89,865.808 1240.18,866.276C1245.19,874.385 1250.8,896.946 1254.68,907.525C1260.84,924.329 1267.24,941.106 1273.69,957.804C1277.42,967.467 1281.61,976.967 1284.71,986.862C1286.03,991.078 1288.3,997.517 1287.11,1001.91C1286.58,1003.87 1285.9,1004.19 1284.15,1005.01C1279.25,1004.23 1274.11,998.66 1270.53,995.321C1245.95,972.359 1230.95,939.622 1216.83,909.557C1213.76,903.01 1211.3,891.967 1206.17,887.122C1206.02,886.984 1205.86,886.859 1205.71,886.727C1206.12,887.703 1206.5,888.683 1206.82,889.691C1209.13,897.024 1208.78,906.885 1209.54,914.625C1210.95,929.011 1218.44,982.189 1212.42,993.66C1210.98,994.806 1211.04,994.842 1209.22,994.762C1193.61,986.741 1180.78,953.956 1175.71,938.408C1173.7,932.249 1171.89,921.814 1167.81,916.912C1167.69,916.773 1167.57,916.642 1167.45,916.507C1169.66,925.785 1166.16,956.129 1162.83,965.666C1162.03,967.975 1161.31,969.247 1159.08,970.335C1144.78,966.559 1134.18,938.826 1131.33,925.916C1130.19,920.735 1128.6,904.412 1126.34,901.067C1126.16,900.788 1125.95,900.522 1125.75,900.25C1126.2,898.962 1126.26,898.276 1126.06,896.928C1124.65,898.116 1116.4,935.293 1113.48,941.584C1112.34,944.031 1111.31,945.599 1108.69,946.574C1104.83,946.259 1102.63,943.177 1100.43,940.3C1096.59,935.361 1093.48,929.904 1091.17,924.089C1088.96,918.592 1085.09,900.224 1082.09,897.243C1081.97,897.124 1081.83,897.017 1081.71,896.903C1082,897.889 1082.12,898.79 1081.99,899.824C1081.3,905.09 1074.09,919.036 1069.43,921.644C1068.07,922.406 1067.05,922.406 1065.63,921.821C1062.77,920.649 1060.08,917.972 1057.87,915.895C1049.55,908.083 1047.06,899.531 1044.95,888.611C1044.34,885.463 1043.98,882.262 1042.47,879.393C1042.39,879.23 1042.29,879.073 1042.2,878.913C1042.32,881.536 1040.25,884.425 1038.77,886.51C1035.42,891.223 1030.99,894.071 1025.24,894.986C1019.17,895.95 1012.97,894.379 1008.09,890.641C998.735,883.556 995.744,873.306 994.335,862.254C994.059,862.548 993.78,862.838 993.499,863.126C985.768,871.025 975.371,876.607 964.121,876.639C957.648,876.658 950.875,874.628 946.254,869.924C940.636,864.205 940.308,857.668 940.38,850.092C934.679,854.549 929.641,857.921 922.369,859.169C914.68,860.489 905.927,859.038 899.509,854.46C892.74,849.631 890.7,843.335 889.283,835.492C885.982,837.542 882.744,839.266 879.028,840.453C870.84,843.068 861.68,843.062 853.972,838.959C846.558,835.012 843.419,829.2 841.081,821.442C831.245,824.687 821.703,827.21 811.901,822.249C803.835,818.167 799.51,810.732 796.685,802.47C787.808,805.491 779.383,805.796 770.842,801.502C762.978,797.548 759.205,792.055 756.531,783.906C749.085,785.218 741.258,785.585 734.273,782.219C726.366,778.409 723.153,771.579 720.416,763.686C713.627,764.931 706.74,765.865 700.263,762.779C693.287,759.456 690.202,753.19 687.654,746.272C681.987,747.557 675.628,748.553 669.978,746.553C662.724,743.985 657.308,735.624 654.107,729.028C649.029,729.016 644.418,728.655 639.585,726.959C629.663,723.475 629.532,717.376 625.29,709.202C623.258,705.286 617.794,706.256 613.96,704.895C611.324,703.958 609.155,702.211 608.042,699.606C605.727,694.187 608.176,687.332 610.146,682.257C603.403,684.094 596.897,686.094 590.846,689.692C581.798,695.073 573.888,703.005 566.105,710.058C544.428,729.7 524.232,751.357 503.542,772.05C492.741,782.852 482.043,794.483 469.692,803.519C460.587,810.18 448.377,816.967 437.026,817.734C430.53,818.172 427.555,815.967 422.917,811.853C413.578,817.143 397.611,825.368 386.732,823.526C380.816,822.524 378.33,819.292 375.136,814.673C362.878,820.008 351.244,824.247 337.743,824.896C332.183,822.279 329.485,820.33 326.754,814.683C316.537,819.139 299.903,825.819 289.03,821.586C284.381,819.776 282.821,816.908 280.978,812.601C274.775,814.325 266.781,816.723 260.39,814.978C257.015,814.056 255.725,812.057 254.035,809.221L253.529,808.364C250.875,807.056 248.916,808.03 246.088,807.805C244.149,807.651 243.521,807.128 242.229,805.748C238.233,793.57 258.345,775.147 262.889,765.083C260.321,763.248 255.392,765.654 251.918,763.357C250.225,762.257 249.061,760.506 248.703,758.518C246.718,746.879 262.168,733.158 268.216,724.239L267.73,723.577C266.512,723.64 265.292,723.679 264.072,723.692C261.144,723.717 257.197,722.668 255.173,720.416C254.045,719.161 253.586,717.558 253.728,715.89C254.676,704.746 275.784,689.481 284.441,682.449C281.887,681.238 278.63,680.171 277.73,677.223C277.261,675.686 277.438,674.221 278.182,672.811C283.683,662.389 309.998,650.108 320.952,646.1C339.001,639.496 359.332,635.616 378.031,631.143C426.841,619.465 476.342,610.241 524.683,596.69L530.707,589.772C526.582,587.732 524.101,585.857 521.568,581.983C516.442,582.655 510.338,583.882 505.322,582.24C499.873,580.456 497.853,576.563 495.425,571.814C487.812,574.206 479.537,575.838 471.626,573.936C465.642,572.498 461.809,569.602 458.637,564.401C456.05,565.059 453.416,565.524 450.759,565.79C444.722,566.381 437.222,565.728 432.502,561.485C429.14,558.463 428.183,554.791 427.849,550.488L427.784,549.596C418.864,548.272 410.263,554.198 401.61,548.411C396.223,544.81 393.961,538.979 392.78,532.912C384.446,532.587 374.048,531.618 367.44,525.925C363.025,522.121 362.109,518.2 361.712,512.59C356.47,512.374 351.103,511.69 346.183,509.797C341.495,507.993 337.148,504.916 335.193,500.124C332.742,494.114 334.553,489.163 336.766,483.427C329.469,484.001 322.655,483.615 315.992,480.244C307.762,476.08 302.961,469.067 300.229,460.455C301.055,457.164 302.345,453.94 303.48,450.742C296.537,450.64 289.895,450.156 283.375,447.528C277.291,445.075 271.553,440.726 268.97,434.526C266.504,428.607 267.451,423.667 269.777,417.919C262.091,417.073 254.397,416.271 247.229,413.14C242.206,410.945 237.305,407.571 235.35,402.212C233.306,396.606 234.986,392.164 237.32,387.021C235.67,386.82 234.021,386.603 232.375,386.37C221.532,384.822 204.308,380.794 197.815,371.475C196.305,369.309 195.625,366.875 196.172,364.262C197.294,358.889 202.166,355.385 206.431,352.532C195.196,351.498 183.789,351.788 172.635,349.935C166.988,348.997 148.339,344.791 145.142,339.779C144.259,338.394 144.657,337.777 144.983,336.322C150.982,328.58 168.393,326.486 177.533,323.56C163.843,321.735 117.678,320.469 110.068,311.572C109.877,310.353 109.557,309.939 110.189,308.807C113.766,302.396 167.963,291.549 178.152,289.137C150.399,287.773 84,285.897 61.816,271.514C60.08,270.388 59.071,269.673 58.622,267.618C58.865,267.189 58.921,267.02 59.237,266.682C67.791,257.519 150.552,256.379 167.356,255.391C133.125,249.653 97.071,246.697 64.015,235.804C55.795,233.096 34.997,226.415 31.05,218.581C31.177,217.88 31.109,217.156 31.657,216.668C42.454,207.047 124.749,216.305 140.995,217.582C162.241,219.251 183.537,221.036 204.818,222.106C179.463,214.651 153.644,208.493 128.182,201.339C113.91,197.329 99.752,193.446 86.027,187.768C75.265,183.316 44.035,168.55 39.86,157.067C39.192,155.231 39.478,153.946 40.301,152.238C49.926,147.047 209.261,189.361 233.125,191.84C225.23,187.168 216.203,183.812 207.894,179.871C174.549,164.055 128.89,145.156 103.138,118.496C99.383,114.608 90.927,105.68 91.34,99.742C91.448,98.179 92.083,97.866 93.115,96.871C95.772,96.175 98.056,96.594 100.615,97.409C117.285,102.72 133.861,111.206 150.036,118.033C164.551,124.16 179.191,130 193.612,136.348C226.981,151.037 259.935,166.356 294.077,179.242C281.418,170.873 269.112,161.981 256.447,153.632C221.73,130.744 172.498,100.821 148.753,66.611C146.252,63.007 139.81,53.175 140.988,48.613C141.46,46.785 142.384,46.449 143.871,45.566C145.689,45.408 147.234,45.409 148.927,46.169C154.267,48.565 160.362,54.093 165.294,57.441C179.305,66.972 193.418,76.352 207.631,85.579C241.778,107.83 276.701,128.866 312.335,148.648C329.839,158.368 347.895,167.096 365.34,176.885ZM363.457,149.54C356.29,144.356 348.68,139.757 341.46,134.62C324.047,122.314 307.357,109.016 291.472,94.792C275.421,80.439 261.351,63.966 245.351,49.711C263.386,80.117 300.595,109.401 329.486,129.523C340.281,137.041 351.879,142.831 361.079,152.453C375.197,170.919 386.61,189.037 407.525,200.726C410.843,202.58 414.153,204.147 418,203.024C418.089,202.398 418.204,201.792 418.313,201.17C418.895,197.849 420.233,195.725 422.041,192.936L433.75,189.224C423.333,181.567 410.767,175.81 399.4,169.666C387.32,163.136 375.528,156.088 363.457,149.54ZM1228.49,739.179C1229,733.715 1213.7,717.908 1210.25,712.14C1209,710.051 1207.46,707.563 1208.08,705.167C1216.41,709.984 1233.17,727.119 1240.51,728.864C1242.33,729.297 1243.05,729.062 1244.61,728.163L1246.25,726.682L1245.9,725.356C1239.79,718.928 1216.67,707.209 1208.08,705.167C1206.29,701.677 1187.14,692.805 1182.69,690.46C1167.66,682.541 1152.32,674.341 1138.84,663.946C1132.73,659.231 1127.89,652.906 1121.53,648.551L1120.9,648.13C1136.88,652.523 1160.69,666.845 1176.32,674.491C1187.71,680.068 1199.47,683.997 1211.48,687.978C1209.75,684.781 1201.22,681.163 1197.84,679.201C1184.88,671.812 1172.09,664.139 1159.47,656.187C1148.95,649.464 1138.48,641.866 1127.39,636.107C1121.21,632.898 1113.94,631.215 1107.32,629.069C1100,626.692 1092.95,623.897 1085.93,620.734C1034.98,597.77 972.377,561.962 933.234,521.843L926.747,528.076C937.818,536.705 948.319,546.064 959.446,554.628C986.334,575.569 1015.08,594.01 1045.32,609.72C1060.85,617.959 1077.21,625.081 1093.36,632.026C1098.17,634.092 1120.57,641.693 1122.53,644.176L1120.93,644.772L1122.35,643.825L1122,643.543L1120.99,644.683C1105.16,647.591 1006.64,622.323 986.653,615.828C951.524,606.164 917.098,594.105 883.617,579.735C862.838,598.137 823.182,611.609 796.528,618.395C799.121,622.111 802.342,624.651 806.548,626.307C819.823,631.536 834.876,624.377 846.991,619.167C846.177,620.139 845.372,621.118 844.576,622.105C842.477,624.714 839.922,627.728 840.463,631.325C840.76,633.302 841.605,634.794 843.359,635.877C851.051,640.627 865.453,637.041 873.726,635.027C873.084,635.896 872.461,636.778 871.829,637.654C871.078,638.697 870.189,639.779 869.666,640.96C869.098,642.236 869.075,643.689 869.603,644.982C870.126,646.244 871.224,647.164 872.52,647.603C880.811,650.41 893.39,645.041 901.043,641.722C900.173,645.021 899.459,648.354 898.728,651.685C910.213,652.699 917.358,651.26 927.275,645.543C926.741,649.773 925.73,654.69 928.253,658.456C933.394,660.668 936.873,655.776 941.648,654.826C946.334,653.894 945.023,661.235 948.601,663.173C954.086,666.142 967.398,660.774 973.005,659.035C972.532,661.701 971.417,665.311 972.757,667.826C973.558,669.329 974.962,670.225 976.556,670.726C983.131,672.79 993.635,667.881 999.627,665.07L999.606,666.267C999.554,670.044 999.156,673.27 1001.97,676.174C1006.23,678.426 1011.18,677.899 1015.79,677.15C1021.72,676.185 1031.38,674.155 1035.13,668.962C1037.19,672.778 1035.05,676.94 1036.23,681.018C1037.31,682.414 1038.17,683.043 1039.9,683.508C1050.85,686.439 1070.31,679.37 1079.99,673.506C1081,675.841 1080.14,677.653 1079.83,680.014C1078.53,689.846 1086.1,689.033 1090.26,695.011C1090.41,695.24 1090.56,695.476 1090.72,695.709C1096.09,693.896 1101.14,690.223 1104.55,685.691C1106.85,687.85 1106.71,695.326 1108.69,698.623C1111.89,703.928 1117.08,707.22 1121.03,711.773C1121.13,711.886 1121.23,712.002 1121.32,712.116C1124.51,709.116 1129.45,701.593 1129.82,697.243C1129.9,697.377 1129.98,697.509 1130.05,697.645C1130.17,697.871 1130.27,698.104 1130.39,698.329C1133.36,703.844 1130.95,711.002 1134.1,716.671C1137.34,722.509 1147.53,726.69 1153.84,728.22C1155.76,728.686 1156.96,728.964 1158.65,727.922C1158.73,720.704 1153.54,714.738 1154.42,707.124C1156.21,707.215 1162.18,714.494 1163.74,716.179C1170.17,723.121 1177.42,731.933 1186.03,736.076C1189.61,737.799 1193.69,738.238 1197.3,739.97C1197.44,740.04 1197.58,740.114 1197.73,740.185C1197.75,740.004 1197.78,739.824 1197.79,739.642C1197.85,737.384 1180.54,707.929 1177.94,705.401C1178.1,705.481 1178.27,705.558 1178.43,705.642C1178.69,705.782 1178.96,705.932 1179.22,706.073C1183.36,708.258 1186.74,711.795 1190.18,714.928C1202.49,726.145 1212.25,734.118 1228.49,739.179ZM346.122,61.279C357.193,91.618 385.747,119.957 406.684,144.308C414.089,152.92 420.83,162.122 428.585,170.425C435.659,178 443.413,184.843 450.63,192.25C451.982,190.414 453.276,188.449 454.738,186.704C456.434,185.833 458.248,185.031 459.869,184.035C428.179,157.692 400.154,130.1 373.953,98.217C367.533,90.439 361.384,82.442 355.517,74.24C352.461,70.028 349.587,65.11 346.122,61.279ZM168.926,73.226C197.301,104.656 236.57,127.633 271.359,151.406L308.536,176.294C318.396,182.887 327.891,189.676 338.275,195.481C352.441,203.401 367.773,209.009 382.481,215.877L383.307,215.69C383.411,213.684 383.218,211.945 382.844,209.974C385.303,207.927 387.752,205.876 390.299,203.938C369.827,188.424 345.945,178.596 323.248,166.751C300.15,154.442 277.372,141.539 254.938,128.055C242.751,120.744 230.527,113.25 218.663,105.427C208.638,98.816 178.02,75.679 168.926,73.226ZM112.234,113.787C125.551,125.244 142.411,134.963 157.823,143.323C185.378,158.27 214.506,171.113 243.161,183.799C252.11,187.76 260.717,192.467 269.688,196.371C293.366,206.674 318.591,215.703 343.368,222.985C350.909,225.201 359.214,228.188 367.077,228.571C368.474,228.027 369.059,227.62 370.071,226.514L371.382,224.333C370.746,222.456 369.228,221.548 367.52,220.677C362.992,218.367 358.016,217.199 353.413,215.062C342.865,210.166 332.498,204.734 321.727,200.34C312.252,196.475 302.422,193.537 292.821,190.005C273.156,182.675 253.621,174.999 234.226,166.983C205.479,154.865 177.094,141.559 148.549,128.934C138.158,124.339 122.867,116.242 112.234,113.787ZM65.221,165.841C93.813,181.576 125.941,189.276 157.232,197.716C208.516,211.549 259.993,222.977 312.031,233.538C330.705,237.327 349.874,242.826 368.805,244.854C368.167,243.269 367.487,240.239 365.896,239.456C362.26,237.669 356.272,236.97 352.278,236.065C335.184,232.196 318.855,226.863 302.46,220.685C291.494,216.552 280.485,211.56 269.132,208.676C246.318,202.882 222.132,201.614 199.028,196.598C164.565,189.118 130.477,180.004 96.047,172.37C87.195,170.408 73.971,166.192 65.221,165.841ZM463.632,192.472C462.732,195.123 462.324,196.839 463.595,199.436C466.572,205.519 474.742,210.319 480.926,212.31C483.904,213.269 487.197,213.724 490.267,214.312C490.411,211.224 486.421,206.548 484.38,204.275C479.718,199.086 471.583,192.793 464.35,192.489C464.111,192.479 463.872,192.478 463.632,192.472ZM431.067,199.48C429.754,201.727 429.4,202.189 429.469,204.753C433.155,212.313 459.878,223.269 468.343,229.081C469.726,226.262 468.182,221.268 467.895,218.049C458.011,209.929 444.38,199.524 431.067,199.48ZM526.876,203.122C529.999,210.889 536.535,218.176 541.783,224.608C550.066,234.836 558.593,244.864 567.357,254.683C575.83,264.081 584.896,273.056 592.157,283.465C570.643,273.175 542.775,251.838 524.399,236.199C512.712,226.252 501.253,214.099 487.603,206.956L518.82,238.017C510.241,233.267 490.06,221.798 480.559,222.705C478.741,223.86 478.885,223.832 478.401,225.783C480.489,231.866 506.229,243.304 513.029,247.256C509.393,247.081 505.894,246.782 502.352,245.909C493.52,243.735 473.478,235.101 466.04,242.274C464.595,243.668 464.145,245.196 463.959,247.134C465.247,249.515 466.394,250.542 469.138,251.355C479.199,254.334 488.552,253.343 498.18,258.782C490.134,259.611 475.253,257.983 469.238,263.492C468.778,265.151 468.535,265.491 469.353,267.01C470.822,269.735 473.932,271.346 476.811,272.087C484.01,273.94 504.517,273.271 509.106,277.162C500.943,281.875 488.27,276.409 481.713,282.341C481.555,283.536 481.243,283.758 482.007,284.796C487.83,292.708 515.857,294.054 525.839,296.415C519.637,299.083 505.503,300.304 502.067,305.154C501.689,307.016 501.626,308.523 502.652,310.208C504.065,312.529 507.103,313.519 509.641,313.988C516.225,315.204 523.856,314.316 530.558,314.111C524.639,317.175 517.286,320.168 515.319,327.247C514.685,329.525 514.92,331.937 516.125,333.989C518.126,337.401 522.439,339.222 526.179,339.974C529.297,340.601 532.553,340.763 535.728,340.784C532.407,345.451 528.558,350.252 529.699,356.404C530.252,359.385 532.091,361.391 534.609,362.949C538.549,365.389 543.064,365.513 547.546,365.529C545.853,370.512 542.557,377.604 545.038,382.704C546.093,384.872 548.125,385.873 550.341,386.503C555.375,387.935 561.658,387.092 566.855,386.859C564.741,391.9 561.773,397.552 564.216,403.033C565.425,405.745 567.94,407.494 570.694,408.405C576.856,410.446 583.051,409.328 589.303,408.475C586.633,412.614 583.029,417.048 584.021,422.286C584.372,424.139 585.506,425.58 587.092,426.563C592.993,430.221 602.514,428.715 609.142,428.211C607.273,431.797 605.079,435.332 606.41,439.518C607.588,443.226 611.754,445.96 614.993,447.762C621.401,447.929 627.311,447.562 633.556,445.946C631.449,450.441 628.597,454.84 630.465,459.936C631.177,461.878 632.642,463.209 634.5,464.053C641.301,467.141 654.139,464.417 661.284,462.587C658.911,466.4 655.388,471.106 656.213,475.853C656.386,476.846 656.876,477.491 657.473,478.272C665.956,483.383 684.349,473.642 689.906,482.462C690.649,487.255 687.965,491.345 685.242,495.048C674.808,509.236 657.409,527.844 639.193,530.312C634.816,530.905 630.98,530.075 626.735,529.077C606.048,557.728 577.404,576.88 544.743,589.639C541.377,594.234 537.787,598.434 533.957,602.641L521.72,615.413C525.191,613.975 529.485,611.567 533.233,611.419L534.031,611.851L533.696,612.685C533.411,613.402 533.198,614.081 533.041,614.839C537.342,615.914 543.405,614.858 547.825,614.364C555.371,613.521 564.076,612.765 571.257,610.212C577.483,607.999 582.868,604.094 588.925,601.561C603.666,595.395 615.917,601.486 623.748,614.518C634.217,612.244 644.828,610.806 655.329,608.71C671.378,605.357 687.259,601.245 702.919,596.388C694.235,595.176 685.295,594.312 676.78,592.212C688.539,589.931 700.441,588.626 712.224,586.52C738.509,581.822 772.85,573.782 797.244,562.842C787.625,562.737 778.123,562.4 768.533,561.644C778.695,557.969 789.334,555.777 799.722,552.842C825.001,545.701 852.934,535.731 872.973,518.173C864.016,520.676 842.535,527.482 833.882,524.538C833.043,522.892 833.266,522.182 833.876,520.404C835.907,514.489 842.208,507.802 846.269,503.042C835.637,504.317 825.67,506.453 815.382,509.38C821.264,498.102 829.271,489.587 838.386,480.844C826.435,483.553 814.918,483.423 802.817,484.454C810.775,472.35 823.89,464.123 834.813,454.893C825.756,453.83 816.657,452.543 807.548,452.071C823.811,439.077 836.688,435.094 856.66,431.3C850.924,428.766 834.806,419.65 829.192,420.465C827.831,422.93 831.018,427.801 828.399,428.7C814.478,424.691 798.665,413.946 785.66,406.915C769.85,398.368 753.782,390.361 738.143,381.486C706.181,363.326 675.392,343.175 645.957,321.152C633.291,311.706 620.069,302.256 608.725,291.222C603.353,285.995 600.411,278.51 595.408,272.93C583.074,259.173 568.048,247.57 555.108,234.306C548.487,227.385 542.048,220.293 535.796,213.037C533.096,209.963 530.082,205.574 526.876,203.122ZM399.016,211.686C397.008,213.004 395.704,213.545 394.591,215.782L394.952,217.574C402.205,221.425 410.695,223.74 418.447,226.474C430.7,230.796 443.184,235.681 455.818,238.77C456.875,237.922 458.203,237.246 458.619,235.942C453.273,229.575 413.348,212.452 403.871,211.504C402.244,211.341 400.632,211.473 399.016,211.686ZM64.7,223.841C81.271,231.725 105.968,234.932 124.32,237.881C163.791,244.222 204.121,249.878 244.014,252.592C268.964,254.29 293.989,254.063 318.939,255.52C328.762,256.129 338.571,256.961 348.356,258.014C353.451,258.534 358.953,259.574 364.057,259.516C363.56,257.561 363.523,256.17 361.967,254.776C352.005,252.669 341.956,251.072 331.978,249.019C310.033,244.503 287.951,239.651 265.667,237.135C253.136,235.721 240.366,235.817 227.78,235.054C206.864,233.586 185.956,232.005 165.058,230.309C131.968,227.609 97.874,222.867 64.7,223.841ZM383.296,228.981C380.983,230.491 377.922,232.22 377.368,235.166C377.137,236.396 377.602,236.891 378.105,237.973C387.217,244.029 435.117,248.063 449.825,251.069C451.466,251.3 452.127,251.737 453.511,250.749C449.859,247.13 391.719,228.49 386.493,228.599C385.423,228.622 384.347,228.793 383.296,228.981ZM378.831,251.158C376.828,252.755 375.138,253.883 374.201,256.366C374.368,258.401 374.358,259.394 376.075,260.8C378.841,263.065 383.522,263.966 386.966,264.415C396.214,265.622 405.951,265.181 415.276,265.24C428.584,265.238 441.887,265.734 455.157,266.728L457.512,266.809C458.566,265.439 458.526,264.985 458.722,263.315C457.722,261.799 457.143,261.513 455.317,261.23C429.918,257.288 404.185,255.182 378.831,251.158ZM242.549,264.423C205.391,265.092 168.078,265.922 130.944,267.334C116.508,267.883 102.09,269.368 87.649,269.665C110.859,274.596 136.262,277.891 159.962,278.901C181.815,279.833 203.937,279.021 225.814,278.864C253.15,278.046 280.491,277.418 307.835,276.981C316.133,276.91 373.055,278.094 376.002,276.145L376.504,274.612C375.417,272.541 374.389,271.884 372.145,271.198C363.928,268.687 353.498,268.778 344.91,268.057C310.878,265.03 276.71,263.817 242.549,264.423ZM395.271,274.94C392.594,274.956 389.818,274.695 387.496,276.243L387.037,277.501C388.975,280.915 393.975,282.966 397.629,283.981C415.666,288.993 434.748,281.951 452.823,281.505C458.699,280.783 464.738,280.307 470.51,278.976C446.752,274.719 419.447,274.596 395.271,274.94ZM317.622,286.971C294.245,287.182 271.081,287.679 247.773,289.699C237.302,290.606 146.137,304.481 140.658,309.509C153.777,314.041 191.399,313.001 207.188,312.998C221.243,313.061 235.041,309.724 248.771,307.019C261.128,304.578 273.513,302.275 285.923,300.112C317.69,294.503 350.59,290.728 382.799,288.667L383.397,288.031C375.619,284.205 328.913,286.596 317.622,286.971ZM470.401,288.21C450.307,293.136 429.706,293.288 409.387,296.73C415.027,302.744 420.381,305.644 428.82,305.936C452.738,308.37 466.19,303.835 489.152,299.922C485.52,298.576 481.377,297.317 478.197,295.085C476.01,293.552 472.679,288.562 470.401,288.21ZM394.214,296.677C317.354,303.961 241.227,317.583 166.61,337.406C170.236,338.037 174.266,339.138 177.927,339.21C197.568,341.685 224.501,343.309 244.016,340.634C262.484,338.102 280.763,331.417 298.555,325.986C331.783,315.842 365.717,305.601 400.37,301.819C399.184,299.83 398.153,297.392 395.996,296.361L394.214,296.677ZM488.81,309.244C479.946,311.273 471.051,313.519 462.108,315.149C456.353,316.199 449.862,316.423 444.308,318.135C442.611,318.658 441.453,319.205 440.206,320.47C439.777,321.734 439.584,322.078 440.159,323.383C441.321,326.022 444.344,328.316 447.03,329.187C448.163,329.546 449.306,329.872 450.458,330.164C467.276,330.568 482.116,326.187 497.332,319.37C494.256,316.207 492.766,313.359 490.953,309.406C490.145,309.234 489.623,309.025 488.81,309.244ZM503.724,327.87C486.803,334.606 471.105,340.258 452.96,342.338C451.187,344.464 449.369,346.326 448.643,349.061C449.027,351.124 449.161,352.037 450.986,353.373C452.395,354.405 454.323,355.151 455.909,355.901C473.665,360.121 493.917,350.463 509.086,341.623C506.944,337.415 506.036,331.64 503.724,327.87ZM516.674,348.79C496.664,357.481 489.296,363.226 466.467,368.335C465.092,368.643 463.941,369.551 463.427,370.931C462.911,372.319 462.909,373.463 463.622,374.809C465.298,377.971 469.298,379.716 472.469,380.957C475.989,381.296 479.545,381.689 483.068,381.2C491.305,380.054 513.613,371.913 520.231,366.302C521.288,365.405 522.288,364.385 522.211,362.908C522.044,359.72 519.404,358.143 519.89,354.388C520.158,352.319 520.669,351.165 519.54,349.314C518.619,349.133 517.606,348.832 516.674,348.79ZM529.699,372.108C520.442,377.511 510.474,382.716 500.619,386.933C495.891,388.956 489.612,390.248 485.333,392.793C484.229,393.45 482.948,395.517 482.617,396.738C482.252,398.089 482.442,399.41 483.204,400.598C485.192,403.699 488.261,404.836 491.61,405.783C509.051,405.921 523.1,396.983 537.476,388.259C536.024,385.794 534.69,383.875 534.622,380.948C534.582,379.213 534.871,375.531 533.652,374.286C532.707,373.32 530.938,372.68 529.699,372.108ZM544.436,395.446C534.935,401.896 524.755,407.9 514.1,412.236C510.526,413.691 503.377,415.377 501.374,418.466C501.624,421.011 502.493,422.049 504.447,423.637C507.618,426.214 509.41,427.1 513.542,427.261C528.988,425.323 542.787,416.703 556.41,409.683C554.339,405.499 553.238,402.33 553.18,397.586C550.328,396.894 547.199,396.389 544.436,395.446ZM916.53,413.671C892.092,415.034 867.569,415.82 843.23,418.453C854.531,424.239 866.38,427.169 878.001,431.968C862.348,437.578 845.182,439.355 829.83,445.458C840.455,447.958 851.561,448.698 862.363,450.239C847.465,457.359 834.983,466.157 821.503,475.608C837.584,471.645 853.652,466.435 870.24,465.419C858.286,475.878 844.583,484.274 834.851,497.095C846.027,494.878 857.199,491.091 868.448,489.581C865.553,493.648 862.635,497.45 859.27,501.151C854.899,506.219 850.683,511.264 846.821,516.734C881.101,505.127 903.768,491.182 941.703,488.031C947.06,480.059 952.836,473.937 962.628,472.084C967.97,471.073 973.631,471.581 979.05,471.382C985.397,471.148 992.504,469.441 998.51,467.348C990.386,465.929 974.151,462.698 967.838,457.258C968.005,455.573 968.16,455.676 969.464,454.55C972.515,454.229 975.334,455.093 978.323,454.857C987.22,454.153 996.452,447.834 1001.92,441.055C1004.42,437.965 1005.8,434.508 1007.36,430.902C1001.57,425.942 995.955,422.012 988.768,419.213C968.709,411.402 937.997,412.206 916.53,413.671ZM564.71,416.356C556.668,420.784 548.595,425.205 540.285,429.115C537.08,430.623 522.901,435.588 521.108,437.587C520.654,438.094 520.588,438.845 520.329,439.474C520.643,442.598 522.577,444.528 524.923,446.422C526.777,447.918 529.117,448.947 531.393,449.616C547.984,448.727 561.747,438.378 574.957,429.297C574.087,426.4 573.722,419.326 571.248,418.03C569.324,417.022 566.835,416.753 564.71,416.356ZM1013.57,435.168C1007.17,445.556 1000.22,452.413 989.173,457.704C997.451,458.177 1005.75,458.108 1014.02,457.499C1021.58,455.331 1025.61,449.26 1036.45,446.364C1032.98,440.575 1019.73,437.3 1013.57,435.168ZM581.652,436.449C574.23,442.026 566.671,448.199 558.424,452.499C553.693,454.967 547.679,455.625 543.448,458.897C543.406,461.771 545.64,464.468 547.627,466.479C549.6,468.477 552.325,469.849 555.18,469.796C556.437,469.773 557.691,469.632 558.939,469.487C573.136,465.854 587.614,458.167 598.369,448.076C596.91,445.172 595.436,442.3 594.269,439.263C589.621,438.638 586.095,437.965 581.652,436.449ZM517.231,455.201C489.451,472.776 462.215,491.198 435.564,510.443C424.816,518.114 411.619,525.928 402.931,535.896C409.437,538.932 413.223,539.603 420.407,539.315C454.892,532.275 491.957,481.293 534.289,468.299C533.437,465.498 532.505,462.706 531.922,459.835C526.791,459.281 523.012,457.935 518.451,455.617C517.755,455.264 518.057,455.388 517.231,455.201ZM605.864,455.156C597.718,461.716 589.799,467.589 580.57,472.541C577.115,474.394 571.474,475.57 569.396,478.878C569.74,481.117 570.176,482.136 572.171,483.54C576.37,486.496 580.478,487.989 585.542,488.504C597.22,485.671 611.53,475.535 620.399,467.538L620.082,466.667C619.041,463.761 618.63,461.332 618.541,458.259C617.152,456.599 616.15,456.605 613.985,456.408C611.153,456.15 608.632,455.865 605.864,455.156ZM629.053,472.565C620.955,481.129 611.542,487.64 601.235,493.276C598.747,494.636 594.61,495.849 593.96,498.545C594.746,500.762 596.281,501.717 598.323,502.71C603.621,505.287 607.524,506.415 613.38,506.402C628.175,502.127 636.378,491.229 648.387,482.804C646.525,480.239 645.491,478.035 644.556,475.008C639.431,474.488 633.919,474.335 629.053,472.565ZM540.86,477.124C530.491,480.409 521.173,484.306 511.935,490.133C506.463,493.585 441.982,545.924 440.993,547.689C440.101,549.279 440.29,550.163 440.669,551.87C443.584,553.941 448.29,552.976 451.68,552.643C479.401,548.153 494.778,528.603 514.84,511.385C527.023,500.831 539.792,490.972 553.085,481.856C548.908,480.45 544.873,478.95 540.86,477.124ZM656.305,488.311C646.822,497.716 637.467,505.945 625.966,512.798C627.739,515.873 629.085,518.758 632.715,519.893C636.928,521.209 642.157,519.202 645.976,517.368C658.445,510.072 669.252,499.516 678.541,488.526C671.086,488.81 663.745,489.003 656.305,488.311ZM561.109,489.111C548.095,498.128 535.284,507.618 523.448,518.157C513.028,527.435 503.444,537.573 492.566,546.343C489.161,549.087 471.659,559.999 470.953,561.096C473.842,563.41 478.5,562.809 482.035,562.579C507.994,556.193 552.859,515.758 572.734,496.606C568.503,494.368 564.84,492.099 561.109,489.111ZM583.557,501.767C568.382,513.338 554.496,526.829 540.117,539.382C529.118,548.984 517.384,558.034 505.696,566.787C504.912,567.374 505.022,567.655 504.768,568.567C506.17,570.221 507.902,571.089 510.106,571.279C511.215,571.374 512.353,571.322 513.462,571.277C540.89,566.797 573.806,538.328 589.477,516.355C590.285,515.222 591.063,514.069 591.811,512.895C589.611,510.632 585.181,502.593 583.557,501.767ZM601.142,516.375C582.152,546.431 564.74,560.407 534.297,577.514L534.328,577.484L533.305,578.604C534.613,579.797 534.884,579.705 536.674,579.675C539.625,579.626 543.22,578.387 545.925,577.229C568.585,566.482 587.096,552.898 604.858,535.24C608.534,531.586 614.203,526.821 615.75,521.75C616.07,520.7 615.958,519.883 615.772,518.825L614.897,517.751C610.341,517.408 605.555,517.6 601.142,516.375ZM599.816,607.796C589.267,610.142 581.799,616.428 572.01,620.179C566.35,622.349 559.557,622.157 554.489,625.665C547.241,630.68 541.325,638.692 534.53,644.467C551.981,644.372 565.875,637.163 579.506,626.726C582.999,624.395 593.655,616.033 597.364,616.526C599.681,621.407 598.166,626.765 596.473,631.617C593.94,638.876 589.644,645.079 585.274,651.333L586.062,652.179C591.101,651.933 595.773,649.298 599.155,645.638C605.123,639.181 611.915,624.38 611.435,615.698C611.321,613.642 610.677,611.448 609.131,610.006C606.721,607.758 602.924,607.708 599.816,607.796ZM510.86,610.07C463.464,623.718 414.706,632.395 366.925,644.661C353.828,648.023 340.269,650.964 327.452,655.254C319.082,658.056 297.614,666.317 292.586,673.477L293.309,674.452C308.413,673.586 324.298,671.583 339.385,672.136C362.482,658.293 391.917,651.406 417.638,643.786C435.975,638.353 454.185,632.655 472.436,626.949C482.913,623.673 494.517,621.367 504.386,616.565C507.043,615.272 509.055,613.33 511.139,611.284C511.097,610.856 511.182,610.372 510.86,610.07ZM775.729,622.021C774.549,622.222 772.879,622.305 771.776,622.695C769.375,623.546 761.591,632.013 758.933,634.104C753.216,638.599 746.963,641.93 740.133,644.38C745.87,647.6 752.109,649.711 758.754,649.754C771.504,646.886 783.523,639.599 793.026,630.674C788.515,627.98 780.726,621.386 775.729,622.021ZM751.594,625.046C742.511,627.147 733.228,628.889 724.225,631.251C725.215,633.069 727.439,634.056 729.28,635.028C737.368,634.385 748.045,631.204 754.164,625.624L753.891,624.948L751.594,625.046ZM482.46,634.083C450.143,645.949 416.43,654.089 383.743,664.972C375.155,667.862 366.686,671.093 358.355,674.656C352.567,677.104 346.429,680.372 340.298,681.759C328.451,684.439 310.993,684.301 298.639,684.206C293.443,688.372 266.175,708.311 265.753,714.043C265.747,714.119 265.768,714.195 265.776,714.271C276.751,713.24 287.44,711.254 298.319,709.634C305.614,708.548 313.698,707.982 320.757,705.84C327.814,703.699 335.04,699.234 341.663,695.978C352.547,690.537 363.64,685.525 374.917,680.953C398.334,671.565 422.278,663.216 445.955,654.489C452.233,652.175 462.332,649.826 467.834,647.054C473.053,644.425 477.798,639.667 482.071,635.704C482.252,635.183 482.593,634.625 482.46,634.083ZM709.289,636.072C679.027,650.058 653.712,670.751 621.806,682.28C620.501,685.59 618.335,689.672 618.507,693.227C619.405,694.607 619.413,695 621.076,695.395C622.177,695.657 623.338,695.566 624.46,695.521C659.348,689.255 693.575,674.941 714.55,644.903C715.118,644.088 715.676,643.266 716.223,642.437C714.224,640.465 711.734,637.378 709.289,636.072ZM800.823,635.982C792.565,644.456 781.616,651.543 771.173,657.024C775.996,662.012 781.055,665.257 788.205,665.305C792.183,665.332 796.083,664.32 799.73,662.769C809.389,657.804 824.425,650.753 829.428,640.743L829.388,638.816C825.093,635.569 816.218,637.824 810.855,637.575C807.487,637.418 804.135,636.586 800.823,635.982ZM727.627,645.651C706.183,677.313 676.117,696.623 638.391,703.862C637.504,704.035 636.613,704.192 635.719,704.331C637.552,709.101 639.238,713.847 644.271,716.106C644.596,716.252 644.93,716.38 645.263,716.507C651.728,716.543 657.692,715.86 663.995,714.336C677.683,711.026 717.273,696.552 726.968,687.085C734.498,679.732 735.269,664.069 736.764,654.167C733.505,651.494 730.556,648.68 727.627,645.651ZM838.581,645.68C829.419,656.225 819.011,664.348 806.943,671.349C815.498,676.852 820.985,677.315 830.903,675.157C831.502,675.026 832.1,674.892 832.697,674.754C844.43,670.251 855.01,663.186 863.667,654.074C861.767,651.898 859.857,649.785 858.317,647.331C851.701,647.294 845.042,647.319 838.581,645.68ZM622.769,656.293C608.627,666.202 595.394,672.342 577.707,669.861C574.035,671.487 563.642,674.821 561.599,677.613L563.813,678.051C578.18,678.276 613.198,676.574 623.777,666.377C625.29,664.918 626.786,662.938 626.906,660.746C626.953,659.887 626.82,658.644 626.18,658.041C624.983,656.912 624.396,656.52 622.769,656.293ZM885.661,657.496C881.753,657.807 877.911,657.995 873.991,657.964C864.287,668.079 853.067,677.38 840.208,683.171C845.135,687.123 848.451,688.424 854.684,689.483C871.835,689.272 884.923,677.299 896.277,665.641C897.657,664.246 898.997,662.811 900.295,661.338C894.182,661.024 890.558,656.784 885.661,657.496ZM748.089,659.76C746.136,673.383 745.396,688.13 733.504,697.056C720.158,707.075 681.451,720.036 664.67,724.624C668.454,729.597 671.854,734.534 678.545,735.542C682.716,736.171 686.89,734.962 690.899,733.939C720.47,722.174 752.014,695.435 774.449,672.903C767.962,669.359 763.485,666.956 759.487,660.444C755.629,660.42 751.914,660.287 748.089,659.76ZM532.704,661.849C540.991,666.467 550.413,669.318 559.829,666.554C562.157,665.871 564.447,665.011 566.72,664.165L567.46,663.025C563.242,661.897 557.196,663.273 552.703,663.175C546.022,663.029 539.357,662.444 532.704,661.849ZM912.622,661.588C906.677,669.092 900.537,676.207 893.31,682.518C889.46,685.881 880.703,689.421 878.418,693.396C878.674,694.836 878.601,695.267 879.912,696.132C885.231,699.642 895.3,699.203 901.426,698.175C917.246,692.676 926.01,681.304 935.586,668.359C932.433,669.297 929.158,670.625 925.986,669.049C920.142,666.146 920.319,661.171 912.622,661.588ZM440.207,666.909C415.124,676.869 389.413,685.182 364.671,695.995C357.986,698.87 351.447,702.075 345.08,705.599C338.695,709.119 331.973,713.723 324.983,715.849C313.041,719.481 296.763,719.736 284.058,721.25C277.852,728.771 262.985,743.949 260.462,752.178L261.012,753.259L261.929,753.439C275.248,749.992 301.539,742.949 313.569,737.68C319.966,734.878 325.208,729.313 331.069,725.557C339.92,719.885 349.87,715.18 359.193,710.273C373.628,702.632 388.15,695.156 402.756,687.848C413.52,682.526 432.778,675.782 441.042,668.244L441.305,667.104L440.207,666.909ZM944.297,671.851C935.723,683.925 928.395,694.491 915.618,702.71C920.899,706.968 925.421,709.04 932.303,708.22C934.737,707.93 937.421,707.415 939.741,706.61C951.774,701.604 961.187,690.749 968.255,680.007C966.438,678.211 963.662,676.115 963.154,673.522L962.16,672.613C956.013,673.052 950.385,673.069 944.297,671.851ZM990.715,679.137C986.722,679.968 982.865,680.58 978.797,680.88C971.658,692.141 964.33,701.802 954.915,711.236C959.572,715.682 964.417,718.594 970.79,719.928C982.521,718.483 991.186,709.048 998.108,700.07C1000.94,696.396 1003.16,692.441 1005.36,688.373C998.854,687.047 995.794,685.229 991.735,680.033C991.151,679.285 991.453,679.538 990.715,679.137ZM1024.37,685.087C1021.85,686.884 1018.59,687.291 1015.62,687.974C1012.26,699.459 1005.39,708.319 997.393,716.968C1002.84,721.89 1008.54,726.772 1016.34,726.415C1017.91,726.344 1019.5,726.204 1021.04,725.941C1031.9,720.604 1044.31,709.02 1047.55,696.914C1047.76,696.109 1047.73,695.546 1047.68,694.723C1040.54,694.605 1034.93,694.336 1029.62,688.99C1028.53,687.9 1027.53,686.723 1026.55,685.539L1024.37,685.087ZM1068.15,689.034C1065.45,690.685 1062.13,691.56 1059.04,692.162C1060.11,697.897 1053.09,708.463 1049.92,713.044C1046.05,718.634 1041.49,723.933 1035.81,727.738C1041.26,731.7 1045.71,734.144 1052.28,735.93C1056.13,736.223 1059.7,736.546 1063.51,735.782C1071.87,731.961 1078.03,720.961 1081.09,712.688C1082.16,709.81 1083.72,706.411 1083.16,703.321C1081.73,701.047 1073.4,692.112 1070.84,689.103C1069.91,689.028 1069.08,688.957 1068.15,689.034ZM408.067,696.84C383.763,708.147 359.985,720.551 336.804,734.012C330.162,737.922 324.45,744.715 317.541,747.808C306.529,752.739 292.948,754.806 281.338,758.456C272.932,768.803 260.918,781.79 255.55,793.745C255.961,794.041 256.276,794.371 256.786,794.444C272.224,787.132 288.65,778.828 302.96,769.438C309.564,765.105 315.646,759.729 321.972,754.984C328.787,749.873 336.04,745.25 343.18,740.603C365.196,726.275 388.1,713.98 408.853,697.664L408.798,696.933L408.067,696.84ZM562.785,696.901C552.589,701.538 542.277,704.157 531.303,706.277C516.262,721.997 500.766,737.276 484.837,752.095C474.585,761.57 463.148,770.441 453.638,780.61C448.668,785.925 445.99,791.685 441.99,797.543C440.034,800.408 436.97,802.849 434.66,805.494C434.867,806.828 434.83,806.823 435.844,807.704C445.917,806.279 454.853,800.974 462.937,795.013C479.807,782.571 494.318,765.455 509.287,750.772C527.168,733.233 546.313,716.279 563.345,697.959L563.33,697.082L562.785,696.901ZM1098.85,702.545L1092.29,704.467C1091.98,712.771 1086.25,730.459 1080.08,736.265C1079.79,736.536 1079.43,736.757 1079.1,736.976C1086.85,745.587 1084.5,749.608 1096.75,758.012C1099.01,758.149 1100.84,757.912 1102.67,756.449C1103.56,755.74 1104.91,754.498 1105.28,753.412C1106.5,747.466 1106.61,740.949 1108.34,735.173C1109.52,731.209 1114.63,723.829 1114.32,720.096C1112.58,717.773 1109.74,716.929 1107.95,714.742C1105.04,711.198 1102.73,704.673 1098.85,702.545ZM511.032,711.452C504.333,713.037 495.329,714.182 489.444,717.682C485.901,719.79 409.29,786.483 409.083,786.785C406.825,790.084 406.151,794.495 403.656,797.651C401.034,800.968 386.289,808.899 385.769,810.655C385.605,811.209 385.923,813.007 386.067,813.596C386.113,813.785 386.174,813.97 386.228,814.156C400.473,814.393 421.807,801.019 433.301,792.784C441.507,775.182 456.203,764.852 470.057,751.952C479.33,743.158 488.529,734.286 497.651,725.335C501.143,721.933 508.181,716.663 510.593,712.964C510.832,712.598 511.108,711.925 511.032,711.452ZM467.907,721.158C461.593,722.456 455.369,725.222 448.937,725.307C448.579,725.312 448.222,725.354 447.865,725.378C424.219,743.639 399.861,761.451 376.826,780.444C369.945,786.118 364.414,793.306 357.554,798.892C353.81,801.94 338.247,808.989 336.914,811.196C337.314,812.85 337.78,813.764 338.823,815.103C354.531,816.222 382.896,801.329 395.216,791.528C395.827,788.882 396.342,785.733 397.969,783.515C406.911,771.319 467.191,726.912 468.37,721.463L467.907,721.158ZM1124.55,722.798C1120.89,735.193 1112.46,752.384 1119.27,765.041C1120.46,767.262 1122.54,768.816 1124.96,769.515C1126.35,769.915 1127.48,769.827 1128.87,769.549C1129.79,769.298 1131.64,769.118 1132.1,768.27C1133.16,766.272 1137.59,734.804 1136.87,732.243C1135.21,730.152 1127.05,723.284 1124.55,722.798ZM390.389,726.951C381.315,732.357 371.447,735.54 362.363,741.013C351.483,747.569 339.709,754.15 329.595,761.795C323.148,766.668 317.483,773.376 310.702,777.653C304.293,781.695 264.57,800.601 262.901,804.861L263.736,806.665C280.926,803.232 306.462,792.203 320.667,782.253C326.078,778.463 330.847,773.889 335.921,769.681C342.454,764.263 349.271,759.136 355.998,753.958C367.392,745.189 379.375,737.131 390.568,728.129L391.016,727.027L390.389,726.951ZM421.868,730.751C415.364,732.783 408.11,733.613 401.874,736.206C386.005,742.807 360.623,762.719 347.115,773.819C341.53,778.409 336.558,784.53 330.657,788.57C319.53,796.188 300.818,802.532 291.446,809.747C291.732,811.397 292.095,812.161 293.053,813.536C311.231,812.47 338.159,800.974 352.158,789.531C362.292,781.247 370.964,771.386 381.353,763.298C394.99,752.682 409.918,743.47 422.776,731.879L422.841,730.841L421.868,730.751ZM1253.7,732.551C1252.76,733.377 1251.89,734.083 1251.25,735.187C1255.42,740.204 1278.64,759.297 1284,759.764C1284.82,759.836 1285.59,759.734 1286.4,759.633L1289.42,758.99C1289.96,758.059 1290.4,757.9 1290.04,756.796C1289.14,754.072 1260.18,734.578 1256.61,732.953C1255.67,732.523 1254.72,732.58 1253.7,732.551ZM1146.07,736.299C1147.12,740.283 1143.26,769.755 1141.57,773.429C1141.68,773.532 1141.79,773.635 1141.9,773.74C1146.58,778.292 1151.24,787.548 1158.85,787.735C1160.38,787.773 1160.77,787.512 1162.04,786.671C1163.89,785.808 1165.67,785.195 1166.83,783.415C1165.54,774.409 1164.41,765.445 1163.84,756.359C1163.5,750.789 1163.85,744.821 1163.04,739.328C1162.9,738.354 1162.44,737.465 1161.93,736.633C1157.06,736.897 1150.61,735.43 1146.07,736.299ZM1237.05,737.803C1236.84,739.282 1236.67,740.684 1236.68,742.179C1243.67,750.164 1260.57,771.795 1268.43,776.851C1270.4,778.114 1272.54,778.794 1274.87,778.959C1276.53,779.078 1277.34,779.233 1278.77,778.318C1280.08,776.922 1281.39,775.499 1281.47,773.469C1281.49,772.826 1281.31,772.235 1281.14,771.622C1279.72,769.477 1241.07,738.374 1238.6,737.878C1237.77,737.713 1237.77,737.753 1237.05,737.803ZM1171.83,740.802C1171.9,740.965 1171.97,741.127 1172.04,741.292C1173.36,744.771 1173.3,748.914 1173.6,752.618C1174.79,767.056 1174.58,789.586 1189.77,797.026C1190.69,797.475 1191.22,797.58 1192.23,797.468C1193.29,796.31 1194.18,794.804 1194.3,793.21C1195.97,791.793 1197.36,791.003 1198.08,788.872C1190.95,774.06 1185.12,759.044 1178.83,743.883C1176.78,742.53 1174.29,741.122 1171.83,740.802ZM1211.1,743.802C1211.23,743.963 1211.36,744.121 1211.48,744.284C1220.48,755.911 1232.28,786.593 1248.1,788.603C1250.32,788.885 1252.05,788.994 1253.96,787.768L1254.14,786.105C1255.53,784.628 1256.56,783.294 1256.54,781.165C1256.53,780.512 1256.34,779.932 1256.15,779.315C1253.57,773.782 1233.39,751.503 1228.09,745.975C1222.82,745.597 1216.17,743.346 1211.1,743.802ZM1190.05,747.553C1198.03,756.495 1206.87,796.823 1221.61,796.653C1222.52,796.642 1223.03,795.707 1223.62,795.102L1223.79,794.072C1225.23,792.416 1226.35,790.875 1226.26,788.568C1226.15,785.858 1204.97,750.98 1201.92,748.041C1198.26,747.82 1193.65,747.003 1190.05,747.553ZM1298.05,761.808C1297.89,763.23 1298.02,764.3 1296.88,765.354C1295.46,766.66 1292.83,767.436 1291.04,768.17C1295.74,773.223 1302.86,776.881 1308.32,781.285C1326.37,795.837 1343.93,812.232 1363.4,824.873C1369.62,828.914 1396.41,841.568 1399.71,845.276C1401.56,845.788 1403.55,846.514 1405.46,846.684L1404.85,847.089L1405.06,846.472C1402.45,844.058 1386.19,836.447 1381.68,833.781C1360.27,821.219 1340.48,806.082 1322.75,788.707C1320.15,786.153 1316.53,783.181 1314.59,780.129C1313.49,778.397 1313.42,776.115 1313.35,774.121C1313.31,773.061 1313.59,772.059 1312.79,771.304C1309.92,768.606 1301.87,761.903 1298.05,761.808ZM1287.61,779.061C1287.98,782.059 1287.71,784.662 1285.77,787.09C1285.67,787.204 1285.58,787.313 1285.48,787.425C1281.38,787.809 1277.34,787.981 1273.22,787.986C1280.36,791.718 1287.11,799.723 1293.19,805.13C1302.77,813.635 1313.03,821.467 1323.05,829.446C1343.82,846.003 1364.44,861.817 1386.97,875.956C1391.74,878.95 1396.35,881.587 1401.55,883.792C1405.8,885.6 1412.49,887.208 1416.14,889.816C1419.82,890.807 1423.26,891.693 1426.57,893.661C1426.16,892.93 1425.74,891.821 1425.05,891.366C1418.04,886.797 1410.33,883.116 1403.1,878.835C1390.48,871.29 1378.2,863.175 1366.31,854.515C1351.33,843.634 1336.65,830.406 1324.5,816.421C1317.26,808.083 1299.23,781.707 1289.57,779.081C1289,778.926 1288.17,779.026 1287.61,779.061ZM1263.43,791.067C1261.75,794.111 1260.68,796.601 1257.04,797.558C1252.62,798.724 1247.15,796.627 1242.62,796.357C1247.1,799.005 1266.19,825.33 1271.31,831.502C1287.26,850.739 1302.96,870.379 1320.32,888.367C1327.55,895.857 1335.17,903.179 1343.19,909.82C1348.33,914.076 1362.69,923.198 1365.91,927.603C1370.1,929.537 1376.45,932.948 1378.94,936.903C1378.82,935.798 1378.52,934.807 1377.82,933.918C1373.93,928.963 1368.35,924.542 1363.79,920.115C1358.42,914.899 1353.39,909.35 1348.35,903.826C1332.75,886.751 1318.44,866.218 1306.88,846.189C1302.86,839.229 1300.23,831.031 1295.67,824.475C1293.18,820.912 1268.4,794.506 1264.79,791.87C1264.44,791.611 1263.77,791.259 1263.43,791.067ZM1203.04,799.316C1202.45,801.477 1201.34,803.957 1199.31,805.122C1195.75,807.152 1190.62,805.377 1186.85,804.789C1193.81,813.249 1200.13,837.642 1204.37,848.769C1215.52,878.034 1229.29,905.828 1241.98,934.395C1244.61,940.308 1260.99,966.102 1261.27,968.108C1264.3,970.592 1268.13,974.491 1268.67,978.548C1268.7,978.795 1268.72,979.044 1268.74,979.292C1268.79,979.108 1268.85,978.925 1268.89,978.738C1269.27,977.049 1269.2,975.764 1268.64,974.152C1264.46,962.098 1258.87,950.281 1254.16,938.395C1246.4,918.542 1239.39,898.399 1233.17,878.009C1230.94,870.594 1229.01,863.091 1227.4,855.518C1226.24,850.001 1225.62,844.02 1223.69,838.724C1219.24,826.559 1211.16,813.011 1205.81,800.419C1204.8,799.711 1204.28,799.411 1203.04,799.316ZM1232.3,799.316C1232.01,801.612 1231.98,801.828 1230.41,803.511C1226.92,805.112 1222.77,805.013 1218.99,805.235C1220.17,806.111 1221.16,807.067 1221.94,808.312C1227.89,817.692 1232.54,828.068 1238.19,837.664C1248.61,855.354 1259.84,872.517 1270.38,890.111C1275.85,899.238 1280.76,909.177 1287,917.785C1295.82,929.951 1305.53,942.469 1315.94,953.286C1319.44,956.923 1331.09,966.375 1332.96,970.048C1335.46,971.337 1338.79,973.145 1339.88,975.907C1339.71,973.914 1339.09,972.539 1338.02,970.882C1331.2,960.261 1323.15,950.31 1315.98,939.896C1305.52,924.705 1295.78,908.718 1286.22,892.932C1279.66,882.098 1273.72,869.279 1269.12,857.474C1266.92,851.839 1265.35,845.566 1262.63,840.188C1257.81,830.629 1249.3,821.828 1243.23,812.921C1240.98,809.625 1237.81,802.22 1234.92,799.94C1234.18,799.36 1233.2,799.291 1232.3,799.316Z" style="fill:rgb(131,197,190);fill-rule:nonzero;"/>
            </g>
            <g transform="matrix(3.26485,0,0,3.26485,0,0)">
                <path d="M245.351,49.711C261.351,63.966 275.421,80.439 291.472,94.792C307.357,109.016 324.047,122.314 341.46,134.62C348.68,139.757 356.29,144.356 363.457,149.54C361.64,149.874 361.205,149.387 359.586,148.584L359.645,149.608L362.451,151.884C361.575,152.525 362.043,152.364 361.079,152.453C351.879,142.831 340.281,137.041 329.486,129.523C300.595,109.401 263.386,80.117 245.351,49.711Z" style="fill:rgb(131,197,190);fill-rule:nonzero;"/>
            </g>
            <g transform="matrix(3.26485,0,0,3.26485,0,0)">
                <path d="M450.63,192.25C443.413,184.843 435.659,178 428.585,170.425C420.83,162.122 414.089,152.92 406.684,144.308C385.747,119.957 357.193,91.618 346.122,61.279C349.587,65.11 352.461,70.028 355.517,74.24C361.384,82.442 367.533,90.439 373.953,98.217C400.154,130.1 428.179,157.692 459.869,184.035C458.248,185.031 456.434,185.833 454.738,186.704C453.276,188.449 451.982,190.414 450.63,192.25Z" style="fill:rgb(131,197,190);fill-rule:nonzero;"/>
            </g>
            <g transform="matrix(3.26485,0,0,3.26485,0,0)">
                <path d="M382.844,209.974C383.218,211.945 383.411,213.684 383.307,215.69L382.481,215.877C367.773,209.009 352.441,203.401 338.275,195.481C327.891,189.676 318.396,182.887 308.536,176.294L271.359,151.406C236.57,127.633 197.301,104.656 168.926,73.226C178.02,75.679 208.638,98.816 218.663,105.427C230.527,113.25 242.751,120.744 254.938,128.055C277.372,141.539 300.15,154.442 323.248,166.751C345.945,178.596 369.827,188.424 390.299,203.938C387.752,205.876 385.303,207.927 382.844,209.974Z" style="fill:rgb(131,197,190);fill-rule:nonzero;"/>
            </g>
            <g transform="matrix(3.26485,0,0,3.26485,0,0)">
                <path d="M370.071,226.514C369.059,227.62 368.474,228.027 367.077,228.571C359.214,228.188 350.909,225.201 343.368,222.985C318.591,215.703 293.366,206.674 269.688,196.371C260.717,192.467 252.11,187.76 243.161,183.799C214.506,171.113 185.378,158.27 157.823,143.323C142.411,134.963 125.551,125.244 112.234,113.787C122.867,116.242 138.158,124.339 148.549,128.934C177.094,141.559 205.479,154.865 234.226,166.983C253.621,174.999 273.156,182.675 292.821,190.005C302.422,193.537 312.252,196.475 321.727,200.34C332.498,204.734 342.865,210.166 353.413,215.062C358.016,217.199 362.992,218.367 367.52,220.677C369.228,221.548 370.746,222.456 371.382,224.333L370.071,226.514Z" style="fill:rgb(131,197,190);fill-rule:nonzero;"/>
            </g>
            <g transform="matrix(3.26485,0,0,3.26485,0,0)">
                <path d="M363.457,149.54C375.528,156.088 387.32,163.136 399.4,169.666C410.767,175.81 423.333,181.567 433.75,189.224L422.041,192.936C420.233,195.725 418.895,197.849 418.313,201.17C418.204,201.792 418.089,202.398 418,203.024C414.153,204.147 410.843,202.58 407.525,200.726C386.61,189.037 375.197,170.919 361.079,152.453C362.043,152.364 361.575,152.525 362.451,151.884L359.645,149.608L359.586,148.584C361.205,149.387 361.64,149.874 363.457,149.54Z" style="fill:rgb(131,197,190);fill-rule:nonzero;"/>
            </g>
            <g transform="matrix(3.26485,0,0,3.26485,0,0)">
                <path d="M368.805,244.854C349.874,242.826 330.705,237.327 312.031,233.538C259.993,222.977 208.516,211.549 157.232,197.716C125.941,189.276 93.813,181.576 65.221,165.841C73.971,166.192 87.195,170.408 96.047,172.37C130.477,180.004 164.565,189.118 199.028,196.598C222.132,201.614 246.318,202.882 269.132,208.676C280.485,211.56 291.494,216.552 302.46,220.685C318.855,226.863 335.184,232.196 352.278,236.065C356.272,236.97 362.26,237.669 365.896,239.456C367.487,240.239 368.167,243.269 368.805,244.854Z" style="fill:rgb(131,197,190);fill-rule:nonzero;"/>
            </g>
            <g transform="matrix(3.26485,0,0,3.26485,0,0)">
                <path d="M364.057,259.516C358.953,259.574 353.451,258.534 348.356,258.014C338.571,256.961 328.762,256.129 318.939,255.52C293.989,254.063 268.964,254.29 244.014,252.592C204.121,249.878 163.791,244.222 124.32,237.881C105.968,234.932 81.271,231.725 64.7,223.841C97.874,222.867 131.968,227.609 165.058,230.309C185.956,232.005 206.864,233.586 227.78,235.054C240.366,235.817 253.136,235.721 265.667,237.135C287.951,239.651 310.033,244.503 331.978,249.019C341.956,251.072 352.005,252.669 361.967,254.776C363.523,256.17 363.56,257.561 364.057,259.516Z" style="fill:rgb(131,197,190);fill-rule:nonzero;"/>
            </g>
            <g transform="matrix(3.26485,0,0,3.26485,0,0)">
                <path d="M87.649,269.665C102.09,269.368 116.508,267.883 130.944,267.334C168.078,265.922 205.391,265.092 242.549,264.423C276.71,263.817 310.878,265.03 344.91,268.057C353.498,268.778 363.928,268.687 372.145,271.198C374.389,271.884 375.417,272.541 376.504,274.612L376.002,276.145C373.055,278.094 316.133,276.91 307.835,276.981C280.491,277.418 253.15,278.046 225.814,278.864C203.937,279.021 181.815,279.833 159.962,278.901C136.262,277.891 110.859,274.596 87.649,269.665Z" style="fill:rgb(131,197,190);fill-rule:nonzero;"/>
            </g>
            <g transform="matrix(3.26485,0,0,3.26485,0,0)">
                <path d="M639.847,422.656C637.534,411.285 635.227,400.23 630.821,389.461C618.029,358.197 594.896,331.517 573.66,305.704L542.208,266.731C545.505,267.172 595.468,291.834 600.84,295.137C609.298,300.337 616.8,307.044 624.502,313.278C633.473,320.541 642.658,327.537 652.044,334.254C663.47,342.348 675.358,349.933 686.988,357.741C700.115,366.554 713.171,375.67 726.778,383.731C742.76,393.199 759.473,401.715 775.812,410.563C790.19,418.349 806.168,429.439 822.456,432C817.558,433.575 812.525,434.831 807.567,436.209C790.14,440.323 772.777,441.406 754.935,441.397C738.024,428.706 721.226,417.627 700.179,413.379C678.069,408.915 659.128,409.8 639.847,422.656Z" style="fill:rgb(131,197,190);fill-rule:nonzero;"/>
            </g>
            <g transform="matrix(3.26485,0,0,3.26485,0,0)">
                <path d="M207.188,312.998C191.399,313.001 153.777,314.041 140.658,309.509C146.137,304.481 237.302,290.606 247.773,289.699C271.081,287.679 294.245,287.182 317.622,286.971C328.913,286.596 375.619,284.205 383.397,288.031L382.799,288.667C350.59,290.728 317.69,294.503 285.923,300.112C273.513,302.275 261.128,304.578 248.771,307.019C235.041,309.724 221.243,313.061 207.188,312.998Z" style="fill:rgb(131,197,190);fill-rule:nonzero;"/>
            </g>
            <g transform="matrix(3.26485,0,0,3.26485,0,0)">
                <path d="M166.61,337.406C241.227,317.583 317.354,303.961 394.214,296.677L395.996,296.361C398.153,297.392 399.184,299.83 400.37,301.819C365.717,305.601 331.783,315.842 298.555,325.986C280.763,331.417 262.484,338.102 244.016,340.634C224.501,343.309 197.568,341.685 177.927,339.21C174.266,339.138 170.236,338.037 166.61,337.406Z" style="fill:rgb(131,197,190);fill-rule:nonzero;"/>
            </g>
            <g transform="matrix(3.26485,0,0,3.26485,0,0)">
                <path d="M921.697,430.893C932.615,428.189 944.75,427.43 955.929,425.6C963.501,424.536 972.823,426.66 980.047,428.946C983.792,430.131 989.316,431.839 991.214,435.553C990.968,436.946 991.026,437.292 990.023,438.279C985.99,442.248 982.819,439.901 978.543,441.86C975.467,443.27 972.452,445.796 969.238,446.775C967.007,447.454 963.996,447.132 961.667,447.063C960.867,446.843 960.084,446.565 959.307,446.273C952.638,443.763 950.64,438.868 947.93,432.782C938.938,433.677 930.525,432.439 921.697,430.893ZM958.786,430.118C956.932,431.978 956.751,432.094 956.413,434.677C957.203,437.115 958.578,438.768 960.914,439.903C961.687,440.279 962.493,440.586 963.297,440.887C964.494,438.384 962.769,434.102 962.194,431.255C961.011,430.6 960.093,430.376 958.786,430.118Z" style="fill:rgb(131,197,190);fill-rule:nonzero;"/>
            </g>
            <g transform="matrix(3.26485,0,0,3.26485,0,0)">
                <path d="M402.931,535.896C411.619,525.928 424.816,518.114 435.564,510.443C462.215,491.198 489.451,472.776 517.231,455.201C518.057,455.388 517.755,455.264 518.451,455.617C523.012,457.935 526.791,459.281 531.922,459.835C532.505,462.706 533.437,465.498 534.289,468.299C491.957,481.293 454.892,532.275 420.407,539.315C413.223,539.603 409.437,538.932 402.931,535.896Z" style="fill:rgb(131,197,190);fill-rule:nonzero;"/>
            </g>
            <g transform="matrix(3.26485,0,0,3.26485,0,0)">
                <path d="M451.68,552.643C448.29,552.976 443.584,553.941 440.669,551.87C440.29,550.163 440.101,549.279 440.993,547.689C441.982,545.924 506.463,493.585 511.935,490.133C521.173,484.306 530.491,480.409 540.86,477.124C544.873,478.95 548.908,480.45 553.085,481.856C539.792,490.972 527.023,500.831 514.84,511.385C494.778,528.603 479.401,548.153 451.68,552.643Z" style="fill:rgb(131,197,190);fill-rule:nonzero;"/>
            </g>
            <g transform="matrix(3.26485,0,0,3.26485,0,0)">
                <path d="M482.035,562.579C478.5,562.809 473.842,563.41 470.953,561.096C471.659,559.999 489.161,549.087 492.566,546.343C503.444,537.573 513.028,527.435 523.448,518.157C535.284,507.618 548.095,498.128 561.109,489.111C564.84,492.099 568.503,494.368 572.734,496.606C552.859,515.758 507.994,556.193 482.035,562.579Z" style="fill:rgb(131,197,190);fill-rule:nonzero;"/>
            </g>
            <g transform="matrix(3.26485,0,0,3.26485,0,0)">
                <path d="M513.462,571.277C512.353,571.322 511.215,571.374 510.106,571.279C507.902,571.089 506.17,570.221 504.768,568.567C505.022,567.655 504.912,567.374 505.696,566.787C517.384,558.034 529.118,548.984 540.117,539.382C554.496,526.829 568.382,513.338 583.557,501.767C585.181,502.593 589.611,510.632 591.811,512.895C591.063,514.069 590.285,515.222 589.477,516.355C573.806,538.328 540.89,566.797 513.462,571.277Z" style="fill:rgb(131,197,190);fill-rule:nonzero;"/>
            </g>
            <g transform="matrix(3.26485,0,0,3.26485,0,0)">
                <path d="M545.925,577.229C543.22,578.387 539.625,579.626 536.674,579.675C534.884,579.705 534.613,579.797 533.305,578.604L534.328,577.484L534.297,577.514C564.74,560.407 582.152,546.431 601.142,516.375C605.555,517.6 610.341,517.408 614.897,517.751L615.772,518.825C615.958,519.883 616.07,520.7 615.75,521.75C614.203,526.821 608.534,531.586 604.858,535.24C587.096,552.898 568.585,566.482 545.925,577.229Z" style="fill:rgb(131,197,190);fill-rule:nonzero;"/>
            </g>
            <g transform="matrix(3.26485,0,0,3.26485,0,0)">
                <path d="M621.806,682.28C653.712,670.751 679.027,650.058 709.289,636.072C711.734,637.378 714.224,640.465 716.223,642.437C715.676,643.266 715.118,644.088 714.55,644.903C693.575,674.941 659.348,689.255 624.46,695.521C623.338,695.566 622.177,695.657 621.076,695.395C619.413,695 619.405,694.607 618.507,693.227C618.335,689.672 620.501,685.59 621.806,682.28Z" style="fill:rgb(131,197,190);fill-rule:nonzero;"/>
            </g>
            <g transform="matrix(3.26485,0,0,3.26485,0,0)">
                <path d="M635.719,704.331C636.613,704.192 637.504,704.035 638.391,703.862C676.117,696.623 706.183,677.313 727.627,645.651C730.556,648.68 733.505,651.494 736.764,654.167C735.269,664.069 734.498,679.732 726.968,687.085C717.273,696.552 677.683,711.026 663.995,714.336C657.692,715.86 651.728,716.543 645.263,716.507C644.93,716.38 644.596,716.252 644.271,716.106C639.238,713.847 637.552,709.101 635.719,704.331Z" style="fill:rgb(131,197,190);fill-rule:nonzero;"/>
            </g>
            <g transform="matrix(3.26485,0,0,3.26485,0,0)">
                <path d="M664.67,724.624C681.451,720.036 720.158,707.075 733.504,697.056C745.396,688.13 746.136,673.383 748.089,659.76C751.914,660.287 755.629,660.42 759.487,660.444C763.485,666.956 767.962,669.359 774.449,672.903C752.014,695.435 720.47,722.174 690.899,733.939C686.89,734.962 682.716,736.171 678.545,735.542C671.854,734.534 668.454,729.597 664.67,724.624Z" style="fill:rgb(131,197,190);fill-rule:nonzero;"/>
            </g>
            <g transform="matrix(3.26485,0,0,3.26485,0,0)">
                <path d="M1399.71,845.276C1396.41,841.568 1369.62,828.914 1363.4,824.873C1343.93,812.232 1326.37,795.837 1308.32,781.285C1302.86,776.881 1295.74,773.223 1291.04,768.17C1292.83,767.436 1295.46,766.66 1296.88,765.354C1298.02,764.3 1297.89,763.23 1298.05,761.808C1301.87,761.903 1309.92,768.606 1312.79,771.304C1313.59,772.059 1313.31,773.061 1313.35,774.121C1313.42,776.115 1313.49,778.397 1314.59,780.129C1316.53,783.181 1320.15,786.153 1322.75,788.707C1340.48,806.082 1360.27,821.219 1381.68,833.781C1386.19,836.447 1402.45,844.058 1405.06,846.472L1404.85,847.089L1405.46,846.684C1403.55,846.514 1401.56,845.788 1399.71,845.276Z" style="fill:rgb(131,197,190);fill-rule:nonzero;"/>
            </g>
            <g transform="matrix(3.26485,0,0,3.26485,0,0)">
                <path d="M1285.48,787.425C1285.58,787.313 1285.67,787.204 1285.77,787.09C1287.71,784.662 1287.98,782.059 1287.61,779.061C1288.17,779.026 1289,778.926 1289.57,779.081C1299.23,781.707 1317.26,808.083 1324.5,816.421C1336.65,830.406 1351.33,843.634 1366.31,854.515C1378.2,863.175 1390.48,871.29 1403.1,878.835C1410.33,883.116 1418.04,886.797 1425.05,891.366C1425.74,891.821 1426.16,892.93 1426.57,893.661C1423.26,891.693 1419.82,890.807 1416.14,889.816C1412.49,887.208 1405.8,885.6 1401.55,883.792C1396.35,881.587 1391.74,878.95 1386.97,875.956C1364.44,861.817 1343.82,846.003 1323.05,829.446C1313.03,821.467 1302.77,813.635 1293.19,805.13C1287.11,799.723 1280.36,791.718 1273.22,787.986C1277.34,787.981 1281.38,787.809 1285.48,787.425Z" style="fill:rgb(131,197,190);fill-rule:nonzero;"/>
            </g>
            <g transform="matrix(3.26485,0,0,3.26485,0,0)">
                <path d="M1242.62,796.357C1247.15,796.627 1252.62,798.724 1257.04,797.558C1260.68,796.601 1261.75,794.111 1263.43,791.067C1263.77,791.259 1264.44,791.611 1264.79,791.87C1268.4,794.506 1293.18,820.912 1295.67,824.475C1300.23,831.031 1302.86,839.229 1306.88,846.189C1318.44,866.218 1332.75,886.751 1348.35,903.826C1353.39,909.35 1358.42,914.899 1363.79,920.115C1368.35,924.542 1373.93,928.963 1377.82,933.918C1378.52,934.807 1378.82,935.798 1378.94,936.903C1376.45,932.948 1370.1,929.537 1365.91,927.603C1362.69,923.198 1348.33,914.076 1343.19,909.82C1335.17,903.179 1327.55,895.857 1320.32,888.367C1302.96,870.379 1287.26,850.739 1271.31,831.502C1266.19,825.33 1247.1,799.005 1242.62,796.357Z" style="fill:rgb(131,197,190);fill-rule:nonzero;"/>
            </g>
            <g transform="matrix(3.26485,0,0,3.26485,0,0)">
                <path d="M1186.85,804.789C1190.62,805.377 1195.75,807.152 1199.31,805.122C1201.34,803.957 1202.45,801.477 1203.04,799.316C1204.28,799.411 1204.8,799.711 1205.81,800.419C1211.16,813.011 1219.24,826.559 1223.69,838.724C1225.62,844.02 1226.24,850.001 1227.4,855.518C1229.01,863.091 1230.94,870.594 1233.17,878.009C1239.39,898.399 1246.4,918.542 1254.16,938.395C1258.87,950.281 1264.46,962.098 1268.64,974.152C1269.2,975.764 1269.27,977.049 1268.89,978.738C1268.85,978.925 1268.79,979.108 1268.74,979.292C1268.72,979.044 1268.7,978.795 1268.67,978.548C1268.13,974.491 1264.3,970.592 1261.27,968.108C1260.99,966.102 1244.61,940.308 1241.98,934.395C1229.29,905.828 1215.52,878.034 1204.37,848.769C1200.13,837.642 1193.81,813.249 1186.85,804.789Z" style="fill:rgb(131,197,190);fill-rule:nonzero;"/>
            </g>
            <g transform="matrix(3.26485,0,0,3.26485,0,0)">
                <path d="M1218.99,805.235C1222.77,805.013 1226.92,805.112 1230.41,803.511C1231.98,801.828 1232.01,801.612 1232.3,799.316C1233.2,799.291 1234.18,799.36 1234.92,799.94C1237.81,802.22 1240.98,809.625 1243.23,812.921C1249.3,821.828 1257.81,830.629 1262.63,840.188C1265.35,845.566 1266.92,851.839 1269.12,857.474C1273.72,869.279 1279.66,882.098 1286.22,892.932C1295.78,908.718 1305.52,924.705 1315.98,939.896C1323.15,950.31 1331.2,960.261 1338.02,970.882C1339.09,972.539 1339.71,973.914 1339.88,975.907C1338.79,973.145 1335.46,971.337 1332.96,970.048C1331.09,966.375 1319.44,956.923 1315.94,953.286C1305.53,942.469 1295.82,929.951 1287,917.785C1280.76,909.177 1275.85,899.238 1270.38,890.111C1259.84,872.517 1248.61,855.354 1238.19,837.664C1232.54,828.068 1227.89,817.692 1221.94,808.312C1221.16,807.067 1220.17,806.111 1218.99,805.235Z" style="fill:rgb(131,197,190);fill-rule:nonzero;"/>
            </g>
        </g>
    </g>
</svg>
