<?xml version="1.0" encoding="UTF-8" standalone="no"?>
<!DOCTYPE svg PUBLIC "-//W3C//DTD SVG 1.1//EN" "http://www.w3.org/Graphics/SVG/1.1/DTD/svg11.dtd">
<svg width="100%" height="100%" viewBox="0 0 1500 500" version="1.1" xmlns="http://www.w3.org/2000/svg" xmlns:xlink="http://www.w3.org/1999/xlink" xml:space="preserve" xmlns:serif="http://www.serif.com/" style="fill-rule:evenodd;clip-rule:evenodd;stroke-linejoin:round;stroke-miterlimit:2;">
    <g transform="matrix(1,0,0,1,-250,-250)">
        <g id="horns">
            <g id="horns1" serif:id="horns" transform="matrix(1,0,0,1,900,375)">
                <path d="M17.18,49.37C16.739,50.275 16.721,51.33 17.13,52.25C17.748,53.521 19.068,54.309 20.48,54.25C18.332,67.932 21.919,81.913 30.39,92.87C24.89,90.87 18.25,91.06 13.45,93.87C12.35,94.52 12.82,96.51 14.22,96.01L14.79,95.82C20.772,100.436 28.771,101.555 35.79,98.76C39.23,101.994 43.064,104.782 47.2,107.06C53.34,110.45 59.84,113.11 66.2,116.06C60.953,116.681 56.111,119.2 52.59,123.14C51.67,124.22 53.2,125.26 54.24,124.76C58,126.87 62.88,128 67,126.41C70,125.28 72.44,122.41 72.48,119.28C75.23,120.739 77.879,122.379 80.41,124.19C85.318,127.709 89.713,131.892 93.47,136.62C95.065,138.672 96.471,140.864 97.67,143.17C95.999,146.177 94.853,149.448 94.28,152.84C94.06,154.29 96.33,154.7 96.95,153.53C97.95,151.53 98.95,149.53 99.87,147.53C100.87,149.53 101.8,151.53 102.87,153.53C103.64,154.96 105.87,153.97 105.61,152.53C105.045,149.148 103.898,145.89 102.22,142.9C103.112,141.245 104.114,139.651 105.22,138.13C108.963,133.084 113.427,128.616 118.47,124.87C121.323,122.758 124.331,120.866 127.47,119.21C127.548,122.492 129.674,125.396 132.78,126.46C136.95,128.06 141.78,126.89 145.65,124.86C146.8,125.44 148.27,124.1 147.3,122.95C144.01,119.03 138.87,116.73 133.68,116.11C140.24,113.02 147,110.28 153.33,106.7C157.211,104.516 160.814,101.87 164.06,98.82C171.082,101.584 179.062,100.47 185.06,95.89L185.56,96.06C186.8,96.5 187.82,94.63 186.64,93.91C181.8,90.93 175,90.8 169.44,93C177.995,82.034 181.649,68.006 179.53,54.26C180.91,54.252 182.178,53.482 182.82,52.26C183.255,51.346 183.255,50.284 182.82,49.37C183.271,49.231 183.581,48.81 183.581,48.338C183.581,48.096 183.5,47.86 183.35,47.67C182.489,46.71 181.259,46.161 179.97,46.161C178.757,46.161 177.593,46.647 176.74,47.51C176.03,48.278 175.636,49.287 175.636,50.333C175.636,51.557 176.175,52.72 177.11,53.51C177.571,53.848 178.106,54.071 178.67,54.16C179.664,63.581 177.979,73.094 173.81,81.6C173.53,81.33 173.24,81.07 172.97,80.8C172.574,73.309 170.715,65.967 167.5,59.19C167.08,58.28 165.87,58.63 165.5,59.37L165.5,59.03C165.56,58.38 164.56,58.31 164.39,58.88C161.83,67.63 165.32,77.96 172.34,83.67C172.435,83.74 172.54,83.797 172.65,83.84C171.85,85.307 170.99,86.73 170.07,88.11C168.066,91.048 165.716,93.734 163.07,96.11C162.704,96.23 162.406,96.499 162.25,96.85C157.564,100.755 152.394,104.042 146.87,106.63L146.54,105.47C149.08,100.47 150.34,94.13 148.23,89.11C147.92,88.37 146.83,88.51 146.38,89.11C146.317,89.153 146.263,89.207 146.22,89.27C143.012,94.441 142.205,100.759 144.01,106.57C143.68,107.22 143.33,107.87 142.95,108.57L139.68,110.04C129.68,114.45 119.98,119.04 111.73,126.24C113.028,121.473 111.809,116.359 108.5,112.69C107.66,111.84 105.83,112.97 106.5,114.06L106.61,114.22C103.17,118.88 105.07,125.09 109.15,128.57C105.725,131.832 102.649,135.442 99.97,139.34C97.267,135.377 94.142,131.719 90.65,128.43C94.65,124.91 96.65,118.77 93.14,114.14L93.2,114.05C93.95,112.93 92.35,111.77 91.43,112.71C88.168,116.292 86.869,121.259 87.96,125.98C79.33,118.5 69.14,113.98 58.77,109.34L57,108.39C56.6,107.71 56.23,107.03 55.88,106.39C57.717,100.636 56.934,94.356 53.74,89.23C53.488,88.944 53.124,88.779 52.742,88.779C52.294,88.779 51.876,89.006 51.63,89.38C49.63,94.38 50.86,100.59 53.39,105.57C53.29,105.91 53.2,106.25 53.1,106.57C47.537,103.949 42.337,100.617 37.63,96.66C37.55,96.345 37.311,96.095 37,96C33.991,93.3 31.36,90.205 29.18,86.8C28.55,85.8 27.95,84.8 27.39,83.72L27.54,83.61C34.54,77.91 38.22,67.61 35.62,58.85C35.533,58.628 35.318,58.481 35.08,58.481C34.766,58.481 34.506,58.736 34.5,59.05C34.263,58.843 33.959,58.728 33.644,58.728C33.167,58.728 32.727,58.99 32.5,59.41C29.282,66.149 27.414,73.453 27,80.91L26.26,81.62C22.028,73.114 20.294,63.581 21.26,54.13C21.825,54.014 22.358,53.775 22.82,53.43C23.753,52.629 24.291,51.458 24.291,50.228C24.291,49.136 23.868,48.086 23.11,47.3C22.273,46.565 21.196,46.159 20.081,46.159C18.684,46.159 17.36,46.797 16.49,47.89C16,48.51 16.54,49.21 17.18,49.37ZM178.28,48.69C178.744,48.259 179.387,48.073 180.01,48.19C180.07,48.27 180.154,48.33 180.25,48.36C181.179,48.688 181.804,49.572 181.804,50.557C181.804,50.981 181.689,51.397 181.47,51.76C181.041,52.257 180.416,52.543 179.759,52.543C179.169,52.543 178.602,52.312 178.18,51.9C177.386,50.968 177.43,49.57 178.28,48.69ZM165.47,60.14L165.47,60.25C168.095,66.178 170.002,72.399 171.15,78.78C166.82,73.47 165.06,67.34 165.47,60.14ZM183.33,95.29C178.008,98.029 171.819,98.575 166.1,96.81L166.62,96.25C172.33,93.7 177.32,93.54 183.33,95.29ZM145.48,99C145.518,96.834 145.854,94.684 146.48,92.61C146.745,94.498 146.796,96.41 146.63,98.31C146.474,99.621 146.203,100.916 145.82,102.18C145.613,101.132 145.499,100.068 145.48,99ZM144.48,123.89C141.65,124.52 138.78,125.44 135.88,124.89C132.29,124.15 130.07,121.68 130.14,117.97C130.146,117.92 130.146,117.87 130.14,117.82L130.37,117.7C135.83,118.25 140.09,120.4 144.52,123.92L144.48,123.89ZM107.48,115.32C109.689,118.33 110.597,122.105 110,125.79C107.11,123.17 106.59,119.39 107.52,115.35L107.48,115.32ZM92.41,115.32C93.32,119.32 92.94,123.18 90.05,125.82C89.681,122.152 90.524,118.463 92.45,115.32L92.41,115.32ZM69.78,117.94C69.94,126.64 61.22,124.94 55.37,123.86C59.75,120.37 64.01,118.26 69.37,117.69L69.76,117.89C69.778,117.908 69.799,117.925 69.82,117.94L69.78,117.94ZM53.53,99.33C53.26,97.155 53.26,94.955 53.53,92.78C54.153,94.803 54.49,96.904 54.53,99.02C54.516,100.081 54.409,101.138 54.21,102.18C53.922,101.246 53.695,100.294 53.53,99.33ZM16.67,95.24C22.143,93.442 28.101,93.8 33.32,96.24L33.87,96.84C28.149,98.561 21.976,97.987 16.67,95.24ZM34.52,60.05C34.98,67.39 33.25,73.62 28.75,79.05C29.894,72.506 31.831,66.125 34.52,60.05ZM21.63,48.7C22.522,49.54 22.64,50.933 21.9,51.91C21.471,52.315 20.904,52.54 20.314,52.54C19.672,52.54 19.057,52.272 18.62,51.8C18.343,51.415 18.194,50.953 18.194,50.48C18.194,49.536 18.785,48.687 19.67,48.36C19.77,48.328 19.86,48.269 19.93,48.19C20.544,48.102 21.166,48.289 21.63,48.7Z" style="fill:rgb(233,147,122);fill-rule:nonzero;"/>
            </g>
            <g id="curve_0" transform="matrix(1,0,0,1,900,375)">
                <path d="M40.19,87.45C40.397,87.684 40.674,87.845 40.98,87.91C42.98,88.34 44.07,85.42 42.44,84.29L42.32,84.23C42.157,84.113 41.974,84.028 41.78,83.98C41.625,83.944 41.467,83.925 41.308,83.925C40.257,83.925 39.364,84.725 39.25,85.77C39.235,86.458 39.596,87.102 40.19,87.45Z" style="fill:rgb(233,147,122);fill-rule:nonzero;"/>
            </g>
            <g id="curve_1" transform="matrix(1,0,0,1,900,375)">
                <path d="M13.25,84.22C13.877,84.576 14.668,84.486 15.2,84C15.383,83.818 15.526,83.6 15.62,83.36C16.026,82.682 15.822,81.792 15.16,81.36C14.851,81.137 14.469,81.037 14.09,81.08C13.31,81.162 12.647,81.695 12.4,82.44C12.185,83.16 12.555,83.935 13.25,84.22ZM14.08,82.88C14.03,82.88 14.15,82.76 14.08,82.88Z" style="fill:rgb(233,147,122);fill-rule:nonzero;"/>
            </g>
            <g id="curve_2" transform="matrix(1,0,0,1,900,375)">
                <path d="M76.47,110.23C78.47,110.35 79.18,107.29 77.15,106.75C76.845,106.675 76.524,106.707 76.24,106.84C74.48,107.21 74.49,110.11 76.47,110.23ZM76.47,108.52C76.47,108.52 76.45,108.51 76.46,108.52L76.47,108.52Z" style="fill:rgb(233,147,122);fill-rule:nonzero;"/>
            </g>
            <g id="curve_3" transform="matrix(1,0,0,1,900,375)">
                <path d="M80.55,134.08C80.26,134.015 79.96,134.015 79.67,134.08C78.976,134.276 78.431,134.817 78.23,135.51C78.038,136.213 78.215,136.967 78.7,137.51C79.02,137.84 79.5,137.964 79.94,137.83C80.475,137.665 80.953,137.353 81.32,136.93C81.609,136.734 81.832,136.455 81.96,136.13C82.086,135.792 82.086,135.418 81.96,135.08C81.813,134.44 81.202,134.008 80.55,134.08Z" style="fill:rgb(233,147,122);fill-rule:nonzero;"/>
            </g>
            <g id="curve_4" transform="matrix(1,0,0,1,900,375)">
                <path d="M158.14,87.9C158.749,88.039 159.388,87.84 159.81,87.38C160.186,87.147 160.475,86.795 160.63,86.38C160.707,86.177 160.746,85.962 160.746,85.744C160.746,84.924 160.185,84.202 159.39,84C158.964,83.898 158.515,83.933 158.11,84.1C156.44,84.68 156.19,87.44 158.14,87.9Z" style="fill:rgb(233,147,122);fill-rule:nonzero;"/>
            </g>
            <g id="curve_5" transform="matrix(1,0,0,1,900,375)">
                <path d="M184.24,83.11C184.284,83.308 184.362,83.498 184.47,83.67C184.873,84.325 185.687,84.61 186.41,84.35C186.597,84.277 186.773,84.176 186.93,84.05C187.285,83.823 187.534,83.462 187.62,83.05C187.755,82.292 187.335,81.536 186.62,81.25C186.061,80.99 185.402,81.059 184.91,81.43C184.379,81.762 184.095,82.381 184.19,83C184.285,83.619 184.23,83.07 184.24,83.11Z" style="fill:rgb(233,147,122);fill-rule:nonzero;"/>
            </g>
            <g id="curve_6" transform="matrix(1,0,0,1,900,375)">
                <path d="M123.57,110.2C124.404,110.036 125.03,109.328 125.09,108.48C125.149,107.712 124.631,107.01 123.88,106.84C123.62,106.709 123.322,106.677 123.04,106.75C122.091,106.973 121.472,107.909 121.64,108.87C121.77,109.653 122.454,110.232 123.248,110.232C123.356,110.232 123.464,110.221 123.57,110.2Z" style="fill:rgb(233,147,122);fill-rule:nonzero;"/>
            </g>
            <g id="curve_7" transform="matrix(1,0,0,1,900,375)">
                <path d="M119.46,134.1C118.798,134.129 118.234,134.603 118.09,135.25C117.956,135.566 117.931,135.918 118.02,136.25C118.127,136.6 118.358,136.899 118.67,137.09C118.984,137.474 119.405,137.756 119.88,137.9C120.464,138.036 121.074,137.797 121.41,137.3C121.706,136.942 121.869,136.491 121.869,136.025C121.869,135.132 121.27,134.342 120.41,134.1C120.098,134.024 119.772,134.024 119.46,134.1Z" style="fill:rgb(233,147,122);fill-rule:nonzero;"/>
            </g>
        </g>
    </g>
</svg>
