<svg xmlns="http://www.w3.org/2000/svg" width="82.9" height="62.68" viewBox="0 0 82.9 62.68"><g id="Layer_1" data-name="Layer 1"><path d="M38.05,34.89l.86,1.28h0a6.51,6.51,0,0,1,8.92,3.95,1,1,0,0,0,1,.84h.19a1,1,0,0,0,.68-.43,1.1,1.1,0,0,0,.16-.79A7.83,7.83,0,0,0,49,37.65a7.48,7.48,0,0,1,5.79-.8L56,35a9.71,9.71,0,0,0-8.25,1,8.55,8.55,0,0,0-4.41-2.29,8.15,8.15,0,0,0-4.38.21,3,3,0,0,1-.94,1ZM81.85,60.6H70V56.73H62.71V60.6H31.46V56.73H24.17V60.6H1.53a1,1,0,1,0,0,2.08H81.85a1,1,0,1,0,0-2.08Zm-70-2.08h8.51V56.73H17.9A5.43,5.43,0,0,1,13.18,54a5.51,5.51,0,0,1-.74-2.46H11.8ZM4,49.48h8.79a4.93,4.93,0,0,1,.4-.91l2-3.59a3.12,3.12,0,0,1-1.28-4.58l3.62-5.51a3.17,3.17,0,0,1-.92-1,3.11,3.11,0,0,1,0-3.12l8-13.3L16.87,4.62a1.05,1.05,0,0,0-1.79,0L4.8,21.82a1.06,1.06,0,0,0,0,1.05,1,1,0,0,0,.91.53H8.22L1.29,33.82a1,1,0,0,0,.86,1.61H5.09L.51,43.6A3.94,3.94,0,0,0,4,49.48Z" fill="#83c5be"/></g><g id="el_0"><path id="el_0-2" data-name="el_0" d="M40.63,49.59a3.39,3.39,0,0,1-3,5H17.88a3.39,3.39,0,0,1-3-5l3.61-6.41H16.45a1,1,0,0,1-.87-1.66L21,33.34H19.33a1.05,1.05,0,0,1-.9-1.57l8.43-14a1,1,0,0,1,.9-.51,1,1,0,0,1,.89.51l8.45,14h0a1,1,0,0,1,0,1,1,1,0,0,1-.89.54h-1.7L40,41.52a1.07,1.07,0,0,1,0,1,1,1,0,0,1-.92.55H37Z" fill="#83c5be"/></g><g id="el_1"><path id="el_1-2" data-name="el_1" d="M78.35,50l-3.57-6.41h2.08a1,1,0,0,0,.92-.55,1.07,1.07,0,0,0,0-1l-5.45-8.18H74a1,1,0,0,0,.91-.53,1,1,0,0,0,0-1L66.4,18.23a1,1,0,0,0-1.78,0l-8.46,14a1,1,0,0,0,.9,1.58h1.7L53.31,42a1.07,1.07,0,0,0,.91,1.59h2.09L52.72,50a3.4,3.4,0,0,0,3,5.05H75.48a3.39,3.39,0,0,0,3-5.05Z" fill="#83c5be"/></g><g id="bird_0"><path id="bird_0-2" data-name="bird_0" d="M70.84,12.55a2.73,2.73,0,0,1,3.31-2.08,1.06,1.06,0,0,0,1.23-.86,1.07,1.07,0,0,0-.85-1.23A5.09,5.09,0,0,0,69.79,10a5.09,5.09,0,0,0-4.7-1.57,1.06,1.06,0,1,0,.36,2.08,2.72,2.72,0,0,1,2.1.35,2.76,2.76,0,0,1,1.23,1.73,1,1,0,0,0,2,0Z" fill="#83c5be"/></g><g id="circle"><path id="circle-2" data-name="circle" d="M47.84,10.85a6,6,0,1,0,6,6A6,6,0,0,0,47.84,10.85Z" fill="#83c5be"/></g><g id="bird_1"><path id="bird_1-2" data-name="bird_1" d="M52.4,4.22a2.74,2.74,0,0,1,1.23-1.74,2.81,2.81,0,0,1,2.1-.35,1,1,0,0,0,1.19-.83A1,1,0,0,0,56.09.09a5,5,0,0,0-4.7,1.57A5.07,5.07,0,0,0,46.68.09a1.06,1.06,0,1,0,.37,2.09,2.7,2.7,0,0,1,2.09.34,2.74,2.74,0,0,1,1.23,1.74,1,1,0,0,0,2,0Z" fill="#83c5be"/></g><g id="bird_2"><path id="bird_2-2" data-name="bird_2" d="M32.29,10.93a2.73,2.73,0,0,1,1.22-1.74,2.77,2.77,0,0,1,2.1-.35A1.06,1.06,0,0,0,36,6.76a5.1,5.1,0,0,0-4.74,1.56,5.08,5.08,0,0,0-4.7-1.57,1.06,1.06,0,1,0,.37,2.08A2.74,2.74,0,0,1,29,9.18a2.79,2.79,0,0,1,1.23,1.73,1,1,0,0,0,1,.85,1,1,0,0,0,1.05-.83Z" fill="#83c5be"/></g></svg>