<svg id="Layer_1" data-name="Layer 1" xmlns="http://www.w3.org/2000/svg" xmlns:xlink="http://www.w3.org/1999/xlink" width="1820.92" height="990.74" viewBox="0 0 1820.92 990.74"><defs><linearGradient id="linear-gradient" x1="808.21" y1="701.73" x2="809.21" y2="701.73" gradientTransform="matrix(-4.3, 161.94, 161.94, 4.3, -108860.89, -133474.21)" gradientUnits="userSpaceOnUse"><stop offset="0" stop-color="#afdcd8"/><stop offset="1" stop-color="#fafbfb"/></linearGradient><linearGradient id="linear-gradient-2" x1="808.08" y1="701.91" x2="809.08" y2="701.91" gradientTransform="matrix(1.19, 165.65, 165.65, -1.19, -116621.39, -132525.7)" gradientUnits="userSpaceOnUse"><stop offset="0" stop-color="#a5d9d4"/><stop offset="1" stop-color="#e5f1f1"/></linearGradient><linearGradient id="linear-gradient-3" x1="809.09" y1="703.74" x2="810.09" y2="703.74" gradientTransform="matrix(-21.72, 271.32, 271.32, 21.72, -172094.51, -234308.42)" gradientUnits="userSpaceOnUse"><stop offset="0" stop-color="#aadad7"/><stop offset="1" stop-color="#ebf3f4"/></linearGradient></defs><path id="proj_bird_0" d="M1572,141.83c10.26-1.65,25.09-6.5,34.63-6.55,1.18-10,3.11-15.38,11.15-21.83a11.67,11.67,0,0,1,3.82-2l1.54.67c2,5.36-1.69,13-3.92,17.85-1.18,2.57-1.91,4.45-4.5,5.81-.26.14-.5.29-.77.42l-.48.21c4.13.44,8.34,2.09,12.31,3.31l-.78-.09c2,.77,3.53,1,4.85,2.81-.3.21-.59.43-.9.63C1621.6,147.66,1581.14,144.28,1572,141.83Z" fill="#006d77"/><path id="proj_bird_1" d="M1623.35,247.4a46.26,46.26,0,0,1,14.42-11.91c6.17-.93,11-.36,16.25,3.09-4,3.75-14.46,6.93-19.65,9.35,5.2,1.69,9.52,3.1,13,7.52-5.46-.62-10.94-1.58-16.37-2.37,0,4.65-5.53,4.14-5.37,16.62l-1.4,1.43c-2.47.22-7.4-.43-9.42-2a7.13,7.13,0,0,0-3.41-1.85l-.54-.13-.32.52-1.09.19c-.11-3.51,4.63-7.58,6.17-10.94,1.26-2.73,1-4.55.05-7.23-5.17-3.63-11.75-5.43-17.9-6.47C1603.23,240.59,1617.56,245.7,1623.35,247.4Z" fill="#006d77"/><path id="proj_bird_2" d="M1734.3,43.32a6.16,6.16,0,0,1-2.72,1.69l-1.2-1.48c-.62-4.43-.46-9.4,1.47-13.5a36.93,36.93,0,0,0,2.09-5.6c-1.93-2.52-7.77.26-11.18-2.43a63.17,63.17,0,0,1,7.28.05l-1.78-1.18.27-1.2,4.47-1,.62-1.25c-1.33-2.27-4.35-3.32-6.63-4.49,0-.16.07-.33.08-.5.28-4.34-2.73-7.68-5.17-10.94l.28-1.48a25.56,25.56,0,0,1,4,.13c5.73.73,12.11,4.82,15.54,9.41A13.5,13.5,0,0,1,1744.38,20c4.94.85,9.8,1.73,14.65,3v.81c-4,1.19-8.15,0-12.24,1.62-3.22,2.88-2.32,7.21-4,10.89C1741.15,39.81,1737.65,41.93,1734.3,43.32Z" fill="#006d77"/><path id="proj_bird_3" d="M1704.76,302.34h-.12a3.36,3.36,0,0,1-1.68-6.28c5.48-3.08,11.89-6.55,14.79-8.23a3.2,3.2,0,0,1,1.26-.43,18.66,18.66,0,0,1,4.29.07,1.3,1.3,0,0,1,1,.67h0a1.28,1.28,0,0,1,0,1.19c-2,3.73-6.14,5.69-9.06,8.67a3.36,3.36,0,0,0,.07,4.79,20.53,20.53,0,0,1,3.18,3.62,7.87,7.87,0,0,1-1.56.35c-3.56.21-7.33-1.59-10.15-3.76A3.23,3.23,0,0,0,1704.76,302.34Z" fill="#006d77"/><path id="proj_bird_4" d="M1594.88,380.12a10.13,10.13,0,0,1-1.62,2.26c-4.4,2.24-9,4-14,2.9.39-3.43,8-10.73,10.54-13.77l-.41-1.22c-1,.14-2,.27-3,.31-2.13.1-3.88.31-5.47-1.19,1.94-.33,3.87-.71,5.79-1.12l.72-1.92c-1.14-5.88-5.85-11.87-9-16.95,5.89.68,10.53,2.67,14.27,7.46a16.75,16.75,0,0,1,3.38,12c9.13-.29,18.17-.64,27.26.36-2.34,3.24-19.84,3.18-24.76,4.82a17.33,17.33,0,0,1-3.29,5.59Z" fill="#006d77"/><path d="M787.72,533.73c44.77-5.89,87.55-20.12,132.41-25.26,33.32-3.82,66.12,3.39,99.31-3.41,34.44-7.07,64.44-29.05,99.73-33.57,38.87-5,75.85,11.26,115,5.28,42.23-6.44,76.88-33.43,123.75-34.68,25.12-.67,51.34,11.56,74.73,19.74,58.89,20.62,93.51,15.06,148.66-11.48,17.77-8.55,37-16.62,57-16.7,21-.08,37.11,9.83,56.8,14.93,11.7,3,23.89,4.45,35.71,7.13a807.51,807.51,0,0,1,87.89,24.85c2.35,4.59,2.78,78,.83,83.29a8.36,8.36,0,0,1-1,1.85c-26.4-3.57-52.34-4.6-78.56-10.33-49.86-10.91-98.24-30.09-149.8-31.3-38.89-.9-72.76,10.62-109.09,22.75-14,4.67-28,9.6-42.52,12.14-22.82,4-45.42,2-68.39,1.75a561,561,0,0,0-70.15,3c-24.49,2.61-48.23,7.48-72.14,13.36-12.86,3.17-27.71,8.44-40.72,9.67-18.84-1.51-38.8-1.78-57.36-5a27.17,27.17,0,0,0,5-.77l.43-.81c-4.09-.87-6.54-.19-10.41,1.28l-4.19-.65,3.71-.75-.06-1a81,81,0,0,0-9.35-2c-5.58-.72-13.16-2.15-17.8,1.45l-4.31-.65,3.43-.6.12-1.19a9.37,9.37,0,0,0-2.43-.86c-2.88-.33-3.84.66-6,2.31l-4-.66,3.28-.56.66-1.13-1.54-.91c-3.21-.18-4.63.44-7.24,2.27-21.4-1.76-42.94-4-64.14-7.41-29.62-4.72-64.68-17-94.23-11.79-.25-.12-.51-.24-.74-.37-7.21-3.83-15.17-5.17-23.06-7-11.88-2.67-24.14-6.06-36.28-7.14s-24.67-.34-36.88-2.08S799.8,534.51,787.72,533.73Z" fill="url(#linear-gradient)"/><path d="M184.65,560.09c18-3.56,37-8.11,55.26-10,6.79-.7,13.85,1.77,20.57.61,15.48-2.68,30.45-8.83,46-11,10.14-1.43,20.45-1.32,30.62-2.43,13.78-1.5,28.18-4.53,41.72-7.55,27.47-6.14,35.37-26,69.42-26.71,20.63-.42,36.75,12.95,56.12,17.65,18.88,4.59,39,.67,57.87,5,12.43,2.87,23.11,10.51,35.15,14.38,11.39,3.66,22.53.68,33.62,3.39,13.65,3.33,25.59,11.3,39.48,14.3,15.89,3.44,32.39-1,48.56,2,17.49,3.24,32.25,13.65,49.07,18,6.46,1.69,13.17,1.48,19.7,2.72,12,2.28,24,6.27,36.13,7.64,14.58,1.64,29.06,1.63,43.51,4.63,23,4.77,44.14,15.88,67.23,21,27.4,6.07,55.3,8.49,83.06,12.07,6.59.85,13.07.58,19.59,2.17a5.27,5.27,0,0,1-1,1.4c-6.86,4.09-26.7,9.29-34.79,9.63a8.24,8.24,0,0,0-1.76-1.38c-1.88-.75-35.27-1.36-39.18-.91s-7.7,2.15-11.3,3.57c-8.38-2.93-17.32-3-25.39.91a55.87,55.87,0,0,0-8.86,5.73,52.72,52.72,0,0,0-37.41-16.56c-10.2-.28-20.49,2.7-28,9.85-.93.88-1.84,1.79-2.71,2.73-14.34-6.83-27-6.1-42-2.17-10.18-7.33-19.54-10.5-32.26-8.4C764,633.78,755.17,638,750,645.29q-1.58,2.24-3,4.59c-2.76,1.27-5.87,2.57-8.12,4.67-4.64,4.33-6,13.31-13,13.85-19.41-7.65-16.36-17.16-42.39-9.77-2.82-5.52-5.44-10.66-11.68-12.73-5.23-1.74-11-.48-16.19.77-6.38-9-15.68-15.71-26.77-17.47-3.53-.56-8.86-.53-11.82,1.71-1.47,1.12-3.69,4.24-5.13,4.88-5.14,2.3-14.36-1.46-20.86.82-3.46,1.22-7.62,8.93-9.79,8.66-8-1-10.52-.85-18.74.77l.57.82,1.32-1.3-1.11,1.12-.94-.58a33,33,0,0,0-10.53-4.44c-5.09-1-10.23.33-15.33-.07-11-.85-19.48-6.3-30.93-3.4a37.33,37.33,0,0,0-14.87,7.92c.07-.57.14-1.14.17-1.72a10.93,10.93,0,0,0-3.54-8.11c-2.82-2.87-8.41-2.27-12.23-2.38a8.63,8.63,0,0,0-1-4c-2.16-1.15-2.58-1-5.05-.78-3.14,2-5,6.84-6.64,10.12l.18-1.42-1.22,1.46a11.55,11.55,0,0,0-1.74-2.44c-5.37.27-9.64,5.66-15.4,6.43-3.46-3-3.3-8.74-6.18-11.95-2.39-2.67-8.52-1-11.29-4.17a3,3,0,0,1,2-1,9.34,9.34,0,0,0,4-1.21,5.48,5.48,0,0,0,2.34-4.71c.16-4.76-4.47-10.06-7.6-13.23-9.93-1.57-7.43-11.59-14.7-16.41-6.79-4.51-8.4,1.28-14.52,2.38-2.3-1.88-4.7-3.61-7.1-5.36-4.21-.21-5.66,3.25-9.4,4s-8.37-.78-12.34-.43c-6,.53-12.36,7.71-18.29,10.35-12.07,5.38-8.74-1-13.58-5.63-1.58-1.53-8-3.23-10.26-4.12L323.62,595c-1.92-.72-4.47-9.49-5.74-11.87a8.6,8.6,0,0,0-5.59-4.62c-3,.5-3.85,1.84-6,3.94a7.05,7.05,0,0,0-4.17-2l-.5-.07c0-1.4-.13-2.78-.23-4.17-3.72-1.1-3.77-3.34-7.12-4.76-2.29.32-3.17,1.2-4.83,2.77l-.6.58c-5.64-.49-7.55-6.6-12.34-7.56-4.19-.84-11.11,6.08-14.66,8.21-.79.47-2.91,1.62-3.77,1.56-4.14-.29-11.56-5.86-16.2-7.15l-1.74,1.21a7.51,7.51,0,0,1-.69,3.77l-4.07-1a45.75,45.75,0,0,0-4,4l-.86-.72,1.34-2.1-.57-1.54c-4.41-3.1-13.86-7.7-19.32-6.64-.3.06-.6.15-.89.22a8,8,0,0,0-2-2.88c-7,.12-6.94,4.36-11.72,7.56-3.23,2.16-6.67,1.29-10.18.56-.42-2.74.23-6.1.46-8.88Z" fill="url(#linear-gradient-2)"/><path d="M9.08,698.05l-.87-.82M.05,534.42c0-6.81,0-13.13,0-20.37l1.69,5.7c2.17,1.39,4.54,1.69,7,2.17,1.71-2.18,2.35-3.4,5-4.4,5.58.48,9.14,6.56,14.24,7.2,7.11.91,9.41-5.26,17.74-2,1.36,2.9-.43,6,1.28,8.33l1.94-1.4a24.9,24.9,0,0,1,3.55,2.1h.93c.66-2.79-1.37-2.87-1.35-4.76,0-1.27,6.94-7.51,8.41-8.63a13.64,13.64,0,0,1,4.36,1c1.37-2.65,1.07-4.14,4-5.3l2.71.41,1.83,2.95c1.05-.34,2.08-.72,3.11-1.12,1.2,2,.54,5.72,1.65,6,6,1.53,10.28-7.35,16.24-3.78l1.69,4,1.59.31,2.73-2.45c2.1.47,2.19.49,3.59,2.1l.4,3.27,1.93,1a42.12,42.12,0,0,0,3.73-3.71l3.23.28c1.86,2.84-.62,4.11,3.5,4.94,3.11.63,3.68.27,6.08,2.37l-.15.9c-.5,3.25-.71,6.37,1.44,9.15,1.23,1.58,3,2.32,4.78,3.09l.64-.52c1.94-1.55,3.1-2.31,5.6-2.4l1.9.66c.17,1.47.31,2.92.42,4.39,4.31,1.12,7.6-1.59,11.39-1.18,2.87.32,8.86,7.41,10.36,6.62l-1.48-2c3.7-1.34,7.78-1.52,11.68-1.93l2,1.26v2.06c2.5,1.25,3,1.27,4.18,3.74-1.3,2-3.78,2.85-6,3.65l1,.18a24.36,24.36,0,0,1,8.52,3.12l5.59-1.34,3,3.4c-.23,2.78-.88,6.14-.46,8.88,3.51.73,7,1.6,10.18-.56,4.78-3.2,4.74-7.44,11.72-7.56a8,8,0,0,1,2,2.88c.29-.07.59-.16.89-.22,5.46-1.06,14.91,3.54,19.32,6.64l.57,1.54-1.34,2.1.86.72a45.75,45.75,0,0,1,4-4l4.07,1a7.51,7.51,0,0,0,.69-3.77l1.74-1.21c4.64,1.29,12.06,6.86,16.2,7.15.86.06,3-1.09,3.77-1.56,3.55-2.13,10.47-9,14.66-8.21,4.79,1,6.7,7.07,12.34,7.56l.6-.58c1.66-1.57,2.54-2.45,4.83-2.77,3.35,1.42,3.4,3.66,7.12,4.76.1,1.39.19,2.77.23,4.17l.5.07a7.05,7.05,0,0,1,4.17,2c2.13-2.1,2.94-3.44,6-3.94a8.6,8.6,0,0,1,5.59,4.62c1.27,2.38,3.82,11.15,5.74,11.87l3.61-3.29c2.25.89,8.68,2.59,10.26,4.12,4.84,4.68,1.51,11,13.58,5.63,5.93-2.64,12.3-9.82,18.29-10.35,4-.35,8.52,1.15,12.34.43s5.19-4.17,9.4-4c2.4,1.75,4.8,3.48,7.1,5.36,6.12-1.1,7.73-6.89,14.52-2.38,7.27,4.82,4.77,14.84,14.7,16.41,3.13,3.17,7.76,8.47,7.6,13.23a5.48,5.48,0,0,1-2.34,4.71,9.34,9.34,0,0,1-4,1.21,3,3,0,0,0-2,1c2.77,3.16,8.9,1.5,11.29,4.17,2.88,3.21,2.72,9,6.18,11.95,5.76-.77,10-6.16,15.4-6.43a11.55,11.55,0,0,1,1.74,2.44l1.22-1.46-.18,1.42c1.67-3.28,3.5-8.12,6.64-10.12,2.47-.25,2.89-.37,5.05.78a8.63,8.63,0,0,1,1,4c3.82.11,9.41-.49,12.23,2.38a10.93,10.93,0,0,1,3.54,8.11c0,.58-.1,1.15-.17,1.72-2.15,2.75-2.35,2.77-2.15,6.21l1.91,2.12.91-.21c3.05-.7,6.32-1.19,9.09.73,2.36,1.63,3.93,6,5.16,8.52,2.13,1.07,4,.72,6.31.52,1.52,1.22,4.51,5.29,6.12,5.33,1-2.69,1-3.94,3.55-5.41.85.45,3.24,2.18,4.06,2.35,4.35.86,3.81-2.59,6.22,3.21l2.49,1.53.35,2.06-1.77,2.4c1.6,1.42,2.76,1.23,4.84,1.12,3.88-.2,7.84-.93,11.69-1.47a17,17,0,0,1,2.49,3.47c3.79.64,10.93-4,13.38-.23.75,1.15.82,3,1,4.31,2.93,1.72,4.67,1.87,6.51,4.86-.11,3.36-.71,7,1,10a10.81,10.81,0,0,0,5.61,1.85l7.67-5.05a6.71,6.71,0,0,1,3.14,1.72c1.17-.85,2.35-1.67,3.52-2.54,2.14-1.59,3.81-1.87,6.43-2.1,1.47-1.33,1.71-2,3.73-2.05l.41.5a15.72,15.72,0,0,0,3.57,3.34l3.07-2.09a7.58,7.58,0,0,1,4.33,2.77c1.48,4.27-.53,8.63,1.35,12.44a20.42,20.42,0,0,0,.7-2.77l1.37.52-1.17-1.29c1.29-.63,4.59-2.75,5.82-2.32a22.64,22.64,0,0,1,3.23,1.52,13.17,13.17,0,0,0,2.25-3.73,16.65,16.65,0,0,1,7.78,1.24l.52.77c1.48,2.17,2.81,4,5.55,4.55,4.93,1,10.72-.59,14.51,3.86a3,3,0,0,1,1.07,2.69c-.34,3.38-4,4.5-2.85,7.91,11.2,7.2,286.61,74.26,297.18,72.61.1-.5.22-1,.3-1.51.63-4.42,1.78-16.26-1.17-19.68-4.74-5.48-13.85-.92-19.4-1.87-.35-.06-.71-.15-1.08-.22l-4.71-1.91c-2.74,1.22-7.78,2.93-10.72,1.61-3.63-1.62-2-8.68-3.15-12.12a5,5,0,0,1-2.86-2.16l.49-1.78c2.29-.72,3.75-1.2,5.23-3.17l.31-.44,2.73-.27-.3-3.39-.89-.61-1,2.94c-2.88,0-4.21-3-6.83-4.22l0,4a6.36,6.36,0,0,1-3.59-3.11c2.53-4.15,2.26-4.75,1.63-9.45,2.65-5.37,3.88-2.25,8-3.84l1.15-5.56c1.55-1.79,1.4-2,3.89-2.23l3.68,1.9,1-.83c-1.16-2.44-1.48-2.75-1-5.35,2.32-2.08,5-2.4,8-2.56a31.68,31.68,0,0,1,1.84-4.22c3.74-.77,5.35,1.77,8.7,2.19,4.33.54,8.29-3.41,12.57-2.11l2.57,2.88,1.22-.39.69-2.84c5.26-.85,10,1.84,15,3.66l-.76,1.86c5.39,1.56,11.11-1.62,15.42,3.14,1.25,5.47,2.94,10.66,7.91,14a8.94,8.94,0,0,0,2.9,1.19c1.28,2.57-.11,4.22-.32,7-.19,2.47-2.19,5.46-3.33,7.66l1.87,1.72c4.08-.86,4.92-6.57,8.56-5.11l1.93,2.73,1.33.19,2.82-2.88c2.42.72,2.52,2.27,4.39,3.28,3.63,2,10.19-1.74,14.3.89l.87,3.54,5.58,1.37c.26,3-.84,5.46-.83,8.39l-1.78,1.07a27.36,27.36,0,0,1,3,.24c13.31,2.31,101.68-24.73,115.78-32.28l.93-.2c19.62-4.36,38.77-12.57,57.88-18.89q46.59-15.37,93.74-28.94c17.11-5.09,34.17-11,51.58-15,18.27-4.1,73.25-3.56,95-2.74,80.56,3,160.32,16.73,236,45.12,18.41,6.9,36.17,15.17,54.35,22.53a584.1,584.1,0,0,0,71.37,23.74l1,1.31,2.25.14c2.46,4.28,2.91,71.86,1.12,78.49a11.59,11.59,0,0,1-.75,1.87l-.7-1.18a5.15,5.15,0,0,1-2.78-1.09c-1.36-1.21-2.68-2.48-4-3.71l-1.52.54-.94,3.5-1,.33a14.29,14.29,0,0,0-3.21-4.36c-2.38,1.44-4.2,2.56-7.07,2.81-.2,0-.4,0-.61,0l-1.31,6.38c-2.29-2.83-2.5-4-6.2-4.53l-.63-2.83c1.68-1.58,3.29-1.14,5.26-2.73a5.85,5.85,0,0,0-.67-3.18c.88-.41,1.82-.71,2.74-1,2-3,4.11-5.4,5.11-8.9l-1.15-.95-4.43.83-.42-1.14c1.61-1.71,2.76-2.74,3.07-5.13l-1.56-1.79a14.86,14.86,0,0,0-3,1.08l-.88.46a18.85,18.85,0,0,1-1.31-4.31l-1.89-.83-1.73.79c-.88,1.6-1.57,3.31-3.19,4.29-2.21-3.6-3.41-3.34-7.33-4.46-1.38-2.66.73-3.65-.11-6.93h2.76l-1.09-.58a22.62,22.62,0,0,0,6.42-2.92,4.64,4.64,0,0,0,2.4-4.09l-2.56-.67.22-.59c1.92-1,4.15-2.05,5.67-3.62,1.91-2,1.91-2.07,1.82-4.65l-1.58-.32-3.33,2.4-.45-.43a38.2,38.2,0,0,0,2.25-5.32c-3.8-5.89-4.77,0-8.63-1.13l2.69-2.72a12.2,12.2,0,0,0,.06-3.25c-.33-2.37-1.42-5.38-3.4-6.8a3.73,3.73,0,0,0-.39-.25,13.12,13.12,0,0,0-2-4.26,18.48,18.48,0,0,0-3,2.63c-.81-1.15-1.63-2.24-2.5-3.33h-1.62l-3.19,4.61a26.72,26.72,0,0,0-4.18-1.33l-1.68,1.22c-.22.67-.46,1.35-.73,2-.86,2.09-1.57,3.58-3.65,4.46-1.3-4-4.29-3.36-5.7-6.67,1.64-1.16,3.85-2.59,5-4.22,1.82-2.53,1.73-8.8,1.25-11.88l-3.07,1.07-1.34-1.49a16.3,16.3,0,0,0-1.45-5.78l-1.49,0-3.51,4.24-1.42-.94.54-4.5-1.35-1.14-2.65,1.73a35.54,35.54,0,0,1-1.81-5.42c-1.11-.7-1.49-1.35-2.84-1.08-3.9.78-8.41,8.38-10.64,11.56-3.85.45-4.87-1.86-8.34-2.77-1.43-.38-1.47,0-2.69.7.08,1.72.12,3.44.15,5.16-1.77-.11-3.49-.33-5.24-.57l-1.27,1.72c.89,3.37,3.53,4.44,5.28,7.39-2,.28-3.91-.51-5.77-1.06l-2.42,3.6c2.1,1.87,7,5,7.23,7.55l-2,1.28c1.63.55,4.08,1,5.46,2l4,.73c.25,2-.63,2.68-1.71,4.35-3.94,2-4.54,2.62-6.47,6.59q-.6-3.21-1.29-6.42l-.39-1.43-2.12-.68-.78-3.92-1.51-2.07c-2.16,1.26-2.17,3.13-2.87,5.44-1-2.17-1.68-4.15-3.55-5.71a5.66,5.66,0,0,0-3.3,2.83l.33,3.42a9.3,9.3,0,0,1-4.26.7c-.44.94-.95,1.32-.59,2.33.83,2.25,1.77,4.36,2.79,6.51-5.29-1.28-8.37-5.39-13.77-2.15l-.69,1.84a29.61,29.61,0,0,1,4.29,3.07l-4.62,2.63.14,1.07,6.36,3.34c-2.15.15-3-.19-4.55,1.41.91,2.19,1.27,2.46,3.21,3.86,2.69.4,7.94-.52,10,.79l-1,.42a18.18,18.18,0,0,0-3.53,2.08c.31,2.61,2.71,3.45,3,5.1.53,3-4.44,2.16,1,6.52,3.26,2.61,6.43,2.88,10.4,2.7.14,3.86-2.36,8.25-4.84,11.1l-.39-.45a8.12,8.12,0,0,0-2.92-2.44,21.22,21.22,0,0,0-6.54,4.38c-.91-3.12,1.28-5.3-.16-8.42-1.43.23-2.45.73-3.74,0,.09-2.87,0-3.06-1.65-5.41l-1.5-.08c-.76,1-1.47,2.47-2.68,2.84-.82-3.37.08-6-2.34-8.54l-2.07-.09c-1.47,1.89-1.41,2.91-1.76,5.25l0-.49a14.4,14.4,0,0,0-2.89-3.39,5.46,5.46,0,0,0-3.33,2.71l-.13,6.18c-4-.14-3.69-6.18-8.63-2.15,0,.17-.09.35-.14.52a6.67,6.67,0,0,1-2.53,4l-1.17-1.74-1.67.21c-.68,2.3-.73,2.32.29,4.48l3.55,2.39-3.48-.07-.68,1.22c2.53,2.85,5.13,5.59,7.85,8.28l-.27.72c-2.48.24-4.24-.57-6.47-1.48l-2,.84c-1,2.65-.25,4.87.31,7.53-2.38-.49-5.09-1.6-7.35-.7.68,2.62,1.43,3.51,3.46,5.26a3.4,3.4,0,0,1,1.26,1.89l-1.69,2.9c3.27,3.07,14,4.87,14.49,11.52-1.63.41-3.16.5-4,2.16a26.84,26.84,0,0,0-1.49,4l-1.46.51c-3-1.8-4.38-5.26-6-8.23-4.49,2-8.79,6.82-12.32,10.34l-1-.61a25.54,25.54,0,0,0,0-6.36c-2.46-2.37-6-4.3-9.48-4.2a8.88,8.88,0,0,0-4.66,1.82c-1.12,2.17-.64,6.37-1.66,7.5l-2.57-1.31-1.67,1.17-.34,2c1.51,1.15,3.13,2.14,3.94,3.9a15.44,15.44,0,0,1-4.83-.55c-.68,1.12-1.05,1.18-.77,2.55.63,3.18,6.36,5.87,4.23,9.27-3.06,4.86-8.69,2.35-9.9,10,2.17,6.54,8.94,4.28,5.37,12.72a7.07,7.07,0,0,1-4.09.75c-2.14,3-1.61,5.46-1.24,9.1l-4.89-2.15-1.83.82-.52,2.16,2.51,2.94-5.47.93-.67,1.41,1.59,2.1c1.15.76,1.72.74,2.08,2.09.73,2.64,4.7,4.53,6.22,6.94l-1.87,2.43,2.86.11-.38-1.58-1.41,1.8c-3.54-1.39-4.27-2.11-8-.8-.54-3-.5-6.27-1.69-9.06l-1-1a5.86,5.86,0,0,1-2.31.36c-8-.36-11.17,5.11-18.22,7l-.76-4.9-4-.37c-1.92-1.4-3.18-2.43-5.6-2.62-2,1.68-1.83,2.58-2.35,5.12-1.83-.38-3.62-.65-5.48-.86l-1.33,1.28c-.18,3.14,1.69,5.82,3.11,8.52-3.39.29-6-1.9-9.3-.65-.06,2.73,2.32,4.22,4.17,6.17a15.31,15.31,0,0,1-5-.5l.09,1c2.58,3.09,5,6.27,8.41,8.45l.6.36c-1.31,2.91-2.72,3.28-4.68,5.47-1.85-.09-2.68-3.94-5.39-4.75-2.41,1.7-2.13,2.72-2.64,5.51a10,10,0,0,0-3.28-.85l-1.33,2.06a42.3,42.3,0,0,1,2.25,5.75c-1.94-1.07-3.32-2-5.58-1.83-2.26,4,.09,9.52-2.48,12.92a7.35,7.35,0,0,0-4.06-.8l-3.12,3.9c-1.94.55-2,.17-3.71-.77-2.49-8.12,6.07-10.56,7.29-16.08l-3.39-.31c1.09-1.29,2.55-2.58,2.73-4.32l-2.2.18-1.34-2,0,1.68a21.46,21.46,0,0,0-2-5.36c-2.7.17-3.91,3.41-6.36,4.87-2.13-3.34-6.4-2.76-8.63-5.93l.69-1.41c2.21-.72,4.42-1.33,6.69-1.87l-2.43-2.9c2-1.78,4.52-2.74,6.38-4.52,1.69-1.63,2-3.28,1.92-5.48a19.79,19.79,0,0,0-4.35-1c.7-1.6,1.82-3.65,1.85-5.41,0-2.06-1.3-2.69-2.67-4a23.3,23.3,0,0,0-5.63,1.38l-.63.24-.34-4.58-1.34-1.12a67.48,67.48,0,0,1-8.27,7.59c-2.28.1-2.29,0-4-1.31-.88-2.36.12-5.72.51-8.17l-1.2-1.08-3.44.72c-.87-1.51-.55-2.54-.45-4.26l-2-.72-2.84,2.24a9.85,9.85,0,0,0-2.15-3.74c-4.25.27-1.32,1.51-3.48,2.74-.65.37-3.08-.22-4.59.51-.15,1.79-.36,3.57-.61,5.34-1.23-1.43-1.45-2.09-3.34-2.48l-2,2.64-2.58-1.81-.52-2.18-.81,0c-1.54,2.95-1.39,5.58-1.1,8.81-2.62.13-3,0-5,1.66,1.32,2.4,3.65,2.51,5,4.92-1.65-.24-3.52-.92-5,0,1.16,2.72,2.74,4,5,5.74a13.4,13.4,0,0,1-5.08,3.26c-5.06-1.19-6.83-9-12.41-6.57l-1.25,3.56c-1.7.29-2.25-.5-3.67-1.41l-1.74-1c-1.84,2.07-1.77,3.93-2.21,6.57-2.06,1-2.13.92-3,3.2a26.94,26.94,0,0,1,1.53,4.16c-2.58,1.62-4,1.95-5,4.94,1.79,7.12,12.77,12,13.28,14.19,0,.08-2.11,3.67-2.31,4-3.84,0-8.23-2.24-11.78-3.65-.91,2.27.53,3.26-1,5.3l-2.75-.61-2.05,1.42c2.1,1.74,2.4,1.82,3,4.44l-1,.83a4.45,4.45,0,0,1-1.92.06,9.73,9.73,0,0,1-5.92-3.72,18.17,18.17,0,0,0,2-4.07l.15-.47-.74-1.9c-.6,0-1.19-.13-1.78-.14a5.46,5.46,0,0,0-.57,0c-2.45-1.77.65-3.27-.54-6.28-3-.84-3.49,1.32-6.06.88l.08-4c-1.56-1.94-2.5-.41-5-1.24-1.1.77-2.13,1.63-3.17,2.49-2.74-.14-3.22-.42-5.53-2-.67-2.34,6.1-6,7.2-9.24l-2.47-.72a5.58,5.58,0,0,0,1.53-3.55c-2.11-.9-2.7-.37-4.86.25a56.76,56.76,0,0,1-1.1-5.67l-1.39-.55-4.64,2.77a19.48,19.48,0,0,0-.19-5.55l-2-.54c-3.09,1.45-3.73,4.41-6.11,6.62l-2-3.15-1.52-.32c-1.53,1.81-1.71,3.31-2,5.57l-.09.88a14,14,0,0,1-2.62-2.47l-.61-.83-1.76.13a4.29,4.29,0,0,1-1.48,2.36c-.9.71-2.25.14-3.34-.05-3.93-6.1,8.5-13.83,7.57-20.71l-1.67-.76a12.22,12.22,0,0,1-5.2,1.62c.48-1.47.95-2.61.6-4.18a26.58,26.58,0,0,0-4.94,1.43l-.48-1.12c1.19-1.19,2.84-2.57,3.47-4.16a6,6,0,0,0-.73-5.2,5.19,5.19,0,0,0-4.29-2.83l-2.59,2.85-1.12-3.44c-2.69-1.67-7.29,1.33-10.66,2,0-1.59.85-2.48,1.64-3.83-1.11-2.4-4.18-3.32-6.16-5.2a4.71,4.71,0,0,0-2.48-1.59c-1.29,1.23-2.57,2.42-3.94,3.55l-2.64-2.41c-6.12.57-3.09,9.07-6.32,12-1.94-2.36-3.53-4.72-6.43-5.89-2,2.33-.07,6.25-1.8,9.28l-2.64-.36c-3.8,4.89,4.4,11.31,3,16.27l-4.51-1.93-.56.24c-3.65,1.53-5.54,1.88-9.13.4,1.6-2.68,2.49-3.82,2.58-7l-1.49-1.45a11.17,11.17,0,0,1-4,1.75c.31-2,.74-2.82-.27-4.67l-2.41-.09a44.77,44.77,0,0,1-2.87,3.54,13.78,13.78,0,0,0-1.61-3.71l-2,.13c-2.44,2.36-1.92,4.59-2.21,7.9l-.75.29-4.49-2.21-1.75.76c-.79,2.44.16,3.38,1.19,5.58a8.62,8.62,0,0,0-4.6,2.49l2,3c.1,1.28.5,1.8-.41,2.81-2.3,2.52-8.6,2.35-11.76,2.64l-.72-.75c2-3.06,4.43-6.34,4-10.12-1.69-2.59-3-2.78-5.78-3.9l-.3-3.14c-2-1.72-6.37.22-9.24-.1-.91-.1-1.35-1.16-1.9-1.84-.29-3.71,2-7.08,3.61-10.28a4.83,4.83,0,0,0-.24-.67c-1.6-2.92-6.9-4.66-9.92-5.51a7.57,7.57,0,0,0-3.46,1.25l-.87.64c-1.29-2.8.61-5.64,1.36-8.62l-1.59-1.5-3.2.29a18.23,18.23,0,0,0-.79-3.57l-3.44-.67c-3.2.68-4.67,3.14-6.54,5.6a12.52,12.52,0,0,0-5-1.28c-7.46,3.12-2.26,4.54-4.86,9.57-5.5-4.27-6.45-.5-12.34,0a26.4,26.4,0,0,0,2.32-4.86,32,32,0,0,0-13.5-6.75c-3.2-.63-5.75.56-8.35,2.31-1.3,3.23-.07,5.22,0,8.62-5.24-.28-8.15,3.26-16.51,2.82-1.25.73-1.3,1.13-1.92,2.46l2.49,2.5-.08.38a6.9,6.9,0,0,1-3.15,1.86c-.27.06-.55.07-.82.11,2.67,1.58,6.23,3.46,7.16,6.69a2.63,2.63,0,0,1,.09.55c-5.85,3.89-12.9,8.42-19.57,10.59,2.85-2.46,9.31-7.24,9.54-11.21,0-.27,0-.53,0-.8l-2.41,1.12,1.26-3.2c-2.27-.48-13.38,10-16.26,11.75l-.87.53a33.75,33.75,0,0,0,4.87-5.06c1.68-2.42,2.11-3.25,1.57-6.15q-1.56,2-3.18,3.88c-1.89,2.21-3.5,3.91-6.47,4.12l-.82-1.93c3.06-4.73,9.18-7.25,11.59-12.14.07-.15.14-.31.2-.46-3.38,3-8.22,4.51-12,7.61-2,1.66-4.26,4.39-6.89,4.13.54-6.36,8.74-8.69,9.42-14.71,0-.18,0-.37,0-.55-6.16,5.67-13.45,11.66-20.93,15.46a28,28,0,0,0,3.68-3.38c3.6-3.91,9-9.6,8.83-15a47.83,47.83,0,0,1-8,8.18c3.23-9.11,16.75-13.72,18.64-21.92-10,9.82-20.86,13-29,26.07a3.71,3.71,0,0,1-2.26,1.89l-2.5-1.46c.66-4.89,5.32-5.37,5.59-12.18-2.7,3.42-7.16,8.21-11.11,10l-.82-.74c2.8-9.61,12.81-10.54,19.43-15.87l.36-.3c-7.41,1.93-16.52,3.87-22.24,9.25-2.4,2.26-4,5-6.7,7,.08-5.08,4.47-7.36,3.7-13.23-.25.42-.51.84-.78,1.24-3.23,4.72-8.6,9.59-14.4,10.57-.42-2.46,1.49-5.13,2.55-7.4l-.52-1.11c-2.76.34-6.67,5-9.05,6.79l-1.81-.44c-.61-3.11,3-4.32,2.94-8.23-1.68,1.32-3.4,2.69-5.21,3.84a7.11,7.11,0,0,1-5.93,1.12l-.08-1.87a31.26,31.26,0,0,1,6.34-6.19c-2.65-1.37-11.67,6-15.67,6.24,1.8-4.49,5.73-5.68,6.56-10.82a99.7,99.7,0,0,1-11.85,9.81l-1.23-.33c.11-4.85,9.62-9.59,12.89-13.21l.39-.44c-2.43,1.76-13.41,6.4-16.38,6.51a24.6,24.6,0,0,0,1.24-3.72c-2.71,1-7.49,5.75-9.61,5.53,3.8-4.53,11.5-7.23,13.92-12.53.07-.16.13-.34.2-.51-2.84,2.14-20.35,11.16-23.84,12.31,1.21-6.73,13.68-9,16.7-15.29a4.41,4.41,0,0,0,.26-.59c-6.07,4.32-13.62,5.79-19.18,11.18-1.2,1.17-1.34.24-2.76.4-1.15.14-4.21,2.41-5.38,3.08l-1.14-.55c1.39-5.08,7.58-6,9.17-11.94-3.87,3.31-12.25,9.38-17.17,10.16a10.18,10.18,0,0,1-.17-1.59c.52-6.09,7.77-14.76,12-18.73l.07-2.23c-5,3.7-10.84,7.53-14.91,12.24-2,2.31-3.41,7.22-5.7,8.69-.49-4.49,2.54-8,1.71-12.07,0-.17-.09-.33-.12-.49-3.16,6.12-8.58,10.62-14.26,14.27a29.83,29.83,0,0,0,7.52-12.24l-.89-1c-3,2.38-3.93,6.48-6.17,9.56-1.84-4.25.57-7.76-1.5-12.37a26.25,26.25,0,0,1-2.94,8.57c-1.26,2-1.44,1.95-3.62,2.48-.41-3.28,2.64-5.81,2.21-9.18-5.22,2.2-8.51,8-14.43,10.6,3-3.79,10-12,9.63-16.85-5.14,6.71-12.35,11.31-20.18,14.18q2.31-1.91,4.56-3.89c3.23-2.85,6.37-5.59,6.64-10.17-2.54,3.28-9.26,9.09-13.24,10-.35-1.94,2.08-4.44,3.08-6.31l-.47-1.31c-3.52,1.41-5.81,5.27-9,7.42a3.6,3.6,0,0,1,0-2.36c1.18-3.08,2.35-4.77,1.54-8.17,0-.22-.13-.44-.18-.65a18.78,18.78,0,0,1-2.78,5c-.94,1.19-1.36,2.25-3,2.43,1.14-6.83,8.12-6.81,10.56-11.57-6.35,2.14-13.33,10.66-16.9,11.35,2.77-6.46,9.89-8.43,13.94-13.53.17-.21.34-.43.5-.65-6.52,3.46-13.72,4.72-20.11,8.84-1.67,1.08-4.13,3.47-6,3.23a24,24,0,0,0,2.31-5.35c.07-.31.13-.62.19-.93.16-.12.33-.22.48-.34,3.65-2.86,16-13.48,16.62-17.37-5.78,4.36-14.08,10.09-20.82,12.59-3.18,3-7,8.47-10.83,10.33a43.73,43.73,0,0,0,2-7.64c-2.54.38-4.17,2.69-6,4.43,1.77-4.35,6.36-8.5,9-12.62-4,4.45-9,8.44-13.47,12.49,2.93-4.7,7.35-8.33,10.05-13-6.77,2.94-10.82,8.29-16.89,11.3-2,1-2.06,1-4.18.3,2.18-4.39,6.66-8.17,10-11.7-6.92,3.51-12.52,7.82-18.37,12.84,7.76-14.42,19.65-21.87,32.82-30.72-11.85,4.12-21.29,10.34-30.46,18.81-3.56,3.3-6.51,6.87-10.58,9.63,5.4-10.65,12.1-18.68,19.55-28-9.18,5.66-20.8,20.43-30.07,23.27l-.49-1.43a48.09,48.09,0,0,0,4-5.78l-2-.93c1.6-1.71,3.29-2.87,3.6-5.25-5.14,0-14,11.32-17.94,15.07,4.17-7.75,7.61-12.29,14.41-17.75l-.82-1.1c-6.11.56-13.16,9.14-17.38,13.26l-1.28-.34a36.12,36.12,0,0,0,.81-7.11c-1.87.56-3.32,3.25-4.62,4.76-1.07,1.24-.91,1.19-2.54,1.31l-.45-1.85c4.71-8.25,9.48-12.12,17-17.63a45.54,45.54,0,0,0-10.19,3.9c-5.61,3.31-12.27,12.18-18.93,12.09l.78-2.14.83,2.38-1.62-.71,4.9-6.81-.22-1.1c-3.48.82-7.78,5.81-10.49,8.24,1.55-3,8.25-11.91,8.36-14.71-5.59,2.27-9.5,9.28-14.82,12.61a5.08,5.08,0,0,1-.07-.67c.17-5.17,5.52-5.71,8.27-9.06l-.26-1.34a6.4,6.4,0,0,0-2.43,0c-.22.07-.42.19-.64.28-6.29,2.64-11.4,10.12-16.31,15q5-8.6,9.38-17.58c-2.56,3-7.51,10.42-11.19,11.32-.26-3.55,3.22-7.77,5-11a4,4,0,0,0-.6,0c-3.87.59-8.38,6.87-10.81,9.77l0-1.32L810.22,870l-.49-1.51c1.07-4.62,4.37-8.5,7.07-12.3-5,3.94-9.94,8.88-15.84,11.39l-.23-1.13q2.81-3.93,5.74-7.75c-6.51-.57-6.28,6.07-10.88,7.9l-1.27-2.35c.18-3.12,2.22-4.81,4.24-7l-.38-1.07c-5.43.53-11.72,8.91-15.33,12.83,1-2.49,5-10.16,4.38-12.3-2.8,2.27-6.41,5.69-10,6.34.59-3.37,5-7.56,7.23-10.25-3.19-1.08-8.85,7.17-12.92,7.73l-.21-1.53c2.08-4.13,6.32-6.53,10-9.11-5.72,1.82-11.21,5.1-16.57,7.82,5.28-5.31,11.73-9.24,17.92-13.4-5.13,1.35-10.61,2.66-15.23,5.31-3.5,2-7.4,8-11,8.22L756.1,856c1.31-1.73,2.32-3,2.73-5.14-2.73.12-4.82,2.55-7,4.23l-.68-.68c2.1-5.16,10.49-8.73,15.19-11.38l-.23-.46c-10.31-1.38-16.28,12.38-24.8,11.77l-.46-1.68c1.56-4.29,5.12-7.87,8-11.35-6.45,2.63-11.48,6.25-17,10.41.13-1.81.45-3.63.7-5.43a74.5,74.5,0,0,1-11.44,8.54c3.65-6.25,7.87-10.7,13.06-15.67-5.6,2.83-11.88,8.2-17.94,9.31l-.45-1.2c2.54-4.79,6.71-8.57,10.45-12.43-5.89,3.08-10.84,7.47-16.79,10.37.66-4.37,11.49-10.15,14.94-13.19-9.6,1.13-15.25,11.21-22.66,12.68.65-3.23,4.21-6.69,6.29-9.26l-.43-.85c-5.94,1.6-6.91,8.87-12.79,10.43l-.16-1c1.47-4.17,6.61-9.41,9.31-13.06-4.52,3.36-12.06,11.14-17.23,12.21,1.13-4.13,3.77-6.39,6.86-9.2l.74-.67a34.32,34.32,0,0,0-12.81,7.4l-.52.49c2.66-5.38,6.17-8.94,10-13.39-5.47,3-10.57,8.06-16.24,10.38q1.35-2.55,2.78-5.05a4.45,4.45,0,0,1-2.69.93c2.31-7,15.25-13.81,21-18.43-20.34,7.44-17,10.75-31.15,21.11-1.42,1-2.64,2-4.43,1.7,1.09-4.18,5.76-7.72,7.57-11.9-4.66,1.53-9.25,6.85-13.37,9.73l-.67-.59c0-.26,0-.52,0-.78.43-4.47,10.48-11.2,13.88-13.95-6.38,2.46-19.36,12.62-24.57,11.79,0-.31,0-.61,0-.91,0-6.25,11.36-17,16-21.13-8.65,3.9-21.53,19.54-24.93,20.35.72-1.72,2.41-4.39,1.85-6.14a80.06,80.06,0,0,0-7.87,7.76c8.26-17.47,10.87-23.48,25.41-36.71a108.1,108.1,0,0,0-13.42,7.21c-5.83,3.94-27.05,22.75-31.53,22.86.13-.15,1.15-1.32,1.25-1.48,2.42-3.67,6.83-7.05,8.83-10.7.13-.23.24-.46.36-.7L604.49,824c-.62.46-1.24.9-1.87,1.34l-1.24-1.79c.1-3.5,2.66-6.58,4.51-9.43-4.23,1.29-7,5.87-9.69,9.22l-1.85.13c.46-1.41.94-2.16.6-3.64-3.54.59-5.13,2.67-8.47,2.83l-.82-1.43,1.84-4c-2.42-.78-4.34,3.34-7.37,3.58l-1.84-1.62c.07-2.27,1.47-3.85,2.71-5.65l-.4-.94c-3.08,1.07-5.49,3.34-8,5.38-2.11.07-2.73.29-4.58-.84a20,20,0,0,1,1.85-3.33l.6-.79-1.89-.28q-2.42,2-4.92,4l-1.52-.7c.7-2.76,3.09-4,5.23-5.84-3.43-.38-6.59,4.63-10.34,4.58l.67-4.06-1.52-.7-5.36,2.35c5.18-5.7,12.12-9,19-12.16-6.05,1.31-11.66,2.79-17.09,5.85-3.63,2.81-6.23,5.56-11.08,5.57L541,810.1c1.49-2.86,4.24-4.32,6.87-6,.87-.79.87-.52,1-1.81-6.24.38-12,5.27-18.33,6.41l.28-1.16c5.77-5.24,12.66-9,19.28-13.08a80.64,80.64,0,0,0-11.57,4.37c-4.67,2.32-10.82,7.88-15.58,8.73,0-7,13.55-10,17.35-14.53-.38,0-.75-.06-1.13-.07-5.65-.14-21,8-24.67,11.85l-.47-1.3a17.36,17.36,0,0,0,2.1-6l.06-.54c3.83-2.1,7.11-5.74,10.31-8.72-8.61,3.48-17.51,12.6-26.34,13.92l-.45-1.07,5.32-8.3-.3-1.14c-4.16,1.19-8.78,6.57-12,9.51l-1.07-1c3.06-13.48,14.13-11.4,23.28-17.6a13.69,13.69,0,0,0-5.77-.23c-7.66,1.42-23.1,8-27.46,14.24l-.62.9-1-.2,2.07-4.66-.84-1c.15-1.53,2.46-3,3.66-4-2.73-1.07-8.73,5.89-12.45,6.13,0-3.62,2.22-7.08,3.82-10.28a159,159,0,0,0-18,11.16c9.16-12.59,19.07-20.28,34.41-23.7l-.64-1.41-1.24.82L489.38,769c-17.87,1.48-32.42,13.28-44.67,25.21,2.24-5.73,5.8-10.79,7.62-16.67l-.84-.52-2.1,1.67-2.52-.71a20,20,0,0,0-6.11,4.17L439.59,781c5.51-10.67,11-20.71,18.52-30.15-8.14,5.94-14.34,14.82-20.23,22.89-4.19,4.25-4.89,10.58-10.45,14l-1.24-.74-.34-4.52-1.1-.64c-2.65,2.71-5.42,5.26-8.24,7.79,4.44-9.48,10.38-17.82,16.31-26.39-4.66,3.68-14.51,16.19-18.94,17.79,1.48-4,6.73-8.61,9.62-11.9-6.7,4.16-13.7,12.13-18.19,14.79a11.83,11.83,0,0,1-2.37.16l-1-1.1c.65-4.38,5.35-9.41,7.94-13-6.53,4.28-12.29,10.88-18.06,16.19,3-4.17,6-8.36,8.74-12.69l-1-.24a33,33,0,0,0-7.8,6l-.77.8a11.59,11.59,0,0,1-1.32,0c1.33-2.37,3.18-4.91,3.34-7.67l-1.45-.23c-3.69,2-5.2,5.48-8.38,8.06l-1-.6-.14-2c1.75-4.39,5.67-7.89,8.85-11.31A100.49,100.49,0,0,0,375,775.64l-.53-.55.26-1.5c-2.3-.27-4.06,1.17-6,2.3,10.34-9.17,18.06-10,28.51-16.72-6.73.26-15.58,3.06-21.46,6.23-2.85,1.54-9.88,8.65-12.26,8.48,1.92-6.34,7.31-9.7,12.34-13.5a10,10,0,0,0-1.45,0c-7.76,1-10.34,5.33-14.66,11-1.56,2-1.68,2.3-4.25,2.64a4.71,4.71,0,0,1-.1-.82c.07-4.39,5.77-9.84,8.45-13-4.83,3.09-9.68,9.32-14.71,11.34-.88.36-1.62-.25-2.46-.59-.32-2.9,1.77-4.9,3.33-7.31l-2.69,0-.48-.93,6.24-6.2-.5-.33c-4.63,2.24-7.93,4.9-11.88,8.11-1.45,1.18-3.7,3.45-5.53,3.27.41-3.23,2.42-5.52,4.27-8.1l-1-.3c-7.05,3.29-9.67,9.1-13.45,15.49,1.62-4,4.18-8.64,4.28-13-2.83.6-6.22,5.25-8.32,7.44l-1.51-.3-.31-2.59c1.57-4.56,7-9,10.36-12.41l-1.12-.37c-7.29,2.82-13.33,8.23-20.18,12,2.16-4.73,7-9.24,10.35-13.21-5.55,3.78-13.57,12.3-20.16,13,.45-3.33,5.28-9,7.24-12-2.76,2.3-6.18,6.05-9.92,6.05l.15-1.74c5.53-6.67,13.7-9.36,21.1-13.42l-.18-.79c-5.95,1.3-16.6,4.76-21.33,8.54-3.29,2.62-5.85,6.17-9.12,8.78a6.18,6.18,0,0,1-5.11,1.4l-1.09-2.88-1.65.44-.7,1.75.41-1.09a10.38,10.38,0,0,1-1.3-.41,3.3,3.3,0,0,1-.51-.48c-1.36,1.3-2.52,2.74-4.45,3.09.65-3.4,4.32-7.91,6.22-10.93C272.9,756.12,268,761,263,765.77c2.09-5.51,5.28-10.76,8.05-15.95-2.82,2.71-8.35,10.12-11.89,10.44l-1-1.42,1.52-6.51c-3.55,1.15-4.3,5.83-7.95,6.31l-1.1-1.31,1.77-4.57-1-.47L247,756.86l-2,0c1.22-4.19,7.28-7.27,10.75-9.37a27,27,0,0,0-14.06,6.23l-.67.6c2-3.47,5.12-6.27,7.9-9.09-6.43,2.13-11.24,5.24-16.81,9-2.74-1.27-2.3-3.84-3.52-6.48-2.42,1.69-4.83,3.3-7.37,4.82l-.57-.59,1.73-1.61-1.54.83,2.07-5.28c-1.79,1.72-4.15,2.38-6.42,3.26l2.19-1.46-2.54-3.36,1.55,3.57c-.21,0-.42.05-.62.09s-.67.15-1,.22c-4.41.87-7.37,4.12-10.62,7,3.3-6.32,7.85-12,12-17.84-7.06,5-13.27,11.15-20.16,16.39a31.79,31.79,0,0,1,2.54-4.17,28.73,28.73,0,0,0,4-7.49l-.7-.84c-4.88,3.36-8.87,7.81-13,12.05,1.86-3.94,3.61-7.87,5.19-11.93l-.8-.44-8,5.73-.28-.66c1.73-4.41,4.46-7.19,7.74-10.53-4.21,2.43-11.32,7.32-15.84,8.14-.14-2.51,2.23-3.91,2.45-6.52-4.18,1-6.9,7.11-10.74,7.8a5.77,5.77,0,0,1,0-3.89l.12-.58c-2.21.33-2.75,1.11-4.43,2.54l-.34-2c4.08-7.2,19.91-11.2,27.48-13.36-9.13,1.57-20.08.08-28.62,3.26-5.51,2.06-9.84,6.67-15.34,8.92.65-2,1.54-4.11,1.49-6.26l-3.49,3.74c-2.72.87-5,1.8-7.94,1.4.66-2,2-3.46,3.34-5.07-2.74,0-8,3.72-11,4.8l-1.1-.75,2.28-4.87c-1.13-.54-7.31,3.18-9.28,3.68l-.64-1.23c3.1-8.52,18.25-9.62,24.2-14.87l.7-.65c-15.43,3.27-24.6,7.78-37.07,17.4a168.44,168.44,0,0,1,14-16.92c-6.78,3.4-13,9.17-20.23,11.4l-.44-1q2.89-3.81,5.86-7.59c-3,.2-5.2,3.69-7.51,3.38l0-4.52c-1.57,2.53-3,5.33-5.21,7.37-1.76-2.1-3.37-5.18-6-5.91a68.15,68.15,0,0,1-5.89,5.25,7.91,7.91,0,0,1,.66-2.83c4.32-8.88,22.34-14.84,31.21-18.68-6.2,1-12.24,2.1-18.15,4.29-8.65,3.2-18.09,8.26-22.11,17a14.65,14.65,0,0,0-1.16-4.64c-.08-.14-.18-.27-.27-.41.16-4.23,4.08-7.86,6.69-11-4.39,3.22-12.07,7.76-12.9,13.6a4.45,4.45,0,0,0,0,.5l-1.57,0c-.28-3.68,6.28-10.66,8.65-13.57a139.32,139.32,0,0,1,30.83-20.48c-13.76,4.19-25.51,9.48-36,19.5-5,3.55-7.35,7.67-10.15,12.91a2.75,2.75,0,0,1-.51-1.27c-.81-5.87,7.52-13.15,11.35-17.08-8.66,4.71-12.93,9.73-19.13,17.29l-1.28,0,1.69-.46-2-.09c-.47-1.64.74-4.18,1.28-5.8l-1-.14-8.91,7.9c3.28-4.73,6.73-9.51,9-14.82,1.75-4.05,5.6-6.69,8.9-9.53-9.19,4.4-20.16,7.47-28.75,12.57-3.47,2.07-6.58,5.58-9.93,8l11.8-17a132.37,132.37,0,0,0-15.66,13.08l.23-.55c4.13-9.44,8.41-13.78,16.2-20.22-6.88,3.36-15.72,6.61-21.73,11l-.6.44c-4.57,3.34-7.52,9.27-10.49,14Q3.21,715,5.19,707.74c-2.37.39-2.57,2.27-5.19,4v-2.38m968.4,56.88a18.35,18.35,0,0,0-3.78-7.73c-.9-.27-2-.92-2.86-.45-4,2.24-4.78,6.17-6,10.24,1.18,2.8,1.9,5.18,4.48,7,2.53-2.11,1.74-5.72,3.24-8.64.8,1.61.82,2.21,2.47,3,1.92-.45,2.28-.31,3.53-1.92ZM975,771c-5.28,3.26-9.82,7.74-14.39,11.93l2.77,1.63c5.34-3.21,12.88-6.29,16.74-11.23l-.85-1.62Z" fill="#83c5be"/><path d="M1187.17,586.79c13-1.23,27.86-6.5,40.72-9.67,23.91-5.88,47.65-10.75,72.14-13.36a561,561,0,0,1,70.15-3c23,.25,45.57,2.25,68.39-1.75,14.53-2.54,28.56-7.47,42.52-12.14,36.33-12.13,70.2-23.65,109.09-22.75,51.56,1.21,99.94,20.39,149.8,31.3,26.22,5.73,52.16,6.76,78.56,10.33,2.68,4.47,3.08,60.22,1.29,66.67a10.5,10.5,0,0,1-1.29,2.78,1246.44,1246.44,0,0,0-132.07,20c-29,6.16-57.81,14.82-87,19.7,41.77,5.49,88.25,22.79,127.26,38.45,16.65,6.69,33.1,14.2,50,20.21,9.88,3.5,35.07,8.57,42.19,12.85,1.64,4.42,2.08,8.92,0,13.31-.09.19-.2.36-.3.54l-2.25-.14-1-1.31A584.1,584.1,0,0,1,1744,735c-18.18-7.36-35.94-15.63-54.35-22.53-75.65-28.39-155.41-42.09-236-45.12-21.76-.82-76.74-1.36-95,2.74-17.41,3.92-34.47,9.88-51.58,15q-47.13,13.56-93.74,28.94c-19.11,6.32-38.26,14.53-57.88,18.89l-.93.2c.13-1.05.54-1.76-.15-2.61-3.06-3.81-7.26-7-12.26-7.38-9.15-.74-17.31,5.89-26.3,7.33-.07-3-1.85-6.16-3.89-8.31-2.76-2.88-7.52-3.46-11.31-3.27-13.74.7-23.31,9.92-36,13.36-2.92-5.31-9.51-10.57-15.33-12.36-7.38-2.27-16.48-.73-23.16,3-3.49,1.94-6.69,4.49-10.22,6.35-4.32.17-11.28-.37-14.24,3.46a9.87,9.87,0,0,0-1.31,2.69,8.94,8.94,0,0,1-2.9-1.19c-5-3.29-6.66-8.48-7.91-14-4.31-4.76-10-1.58-15.42-3.14l.76-1.86c-5-1.82-9.72-4.51-15-3.66l-.69,2.84-1.22.39-2.57-2.88c-4.28-1.3-8.24,2.65-12.57,2.11-3.35-.42-5-3-8.7-2.19A31.68,31.68,0,0,0,932.3,716c-3,.16-5.66.48-8,2.56-.52,2.6-.2,2.91,1,5.35l-1,.83-3.68-1.9c-2.49.18-2.34.44-3.89,2.23-9.22-.75-19,.74-28.38.25-15.39-.79-31.47-4-46.73-6.47-11,4.58-20.71,8.95-30.44,15.92q-2.83-1.54-5.72-3a25.36,25.36,0,0,0-8.56-2.93c-6.26-.72-12.54.79-18.8.61-4.8-.14-9.92-1.71-14.69-1.22-3,.32-6.4,1.64-9.29,2.62l.58-.27c-20.48-9-49.71-15-72.17-15.84,19.67-8.05,56-14.32,77.75-19.16l143.69-33c31.21-7,67.8-12.56,97.62-23.54,8.09-.34,27.93-5.54,34.79-9.63C1053.38,626.51,1176.88,592.91,1187.17,586.79ZM1632,616.87c-78.83,3.94-157.55,21.37-233.37,42.78,16.2,1,32.58-.52,48.81-.41a823,823,0,0,1,88.49,5.54c6.34.72,17,.63,22.66,3.14,8.57.41,18.49,4,26.76,3,13.78-1.67,28.07-7.21,41.47-10.85q28.89-7.66,58.27-13.35c23.39-4.43,47-7.15,70.67-10,11.21-1.35,23.49-1.87,34.44-4.56C1772.54,620.66,1658.37,615.54,1632,616.87Z" fill="url(#linear-gradient-3)"/><path d="M339.53,549.1c.08.08.18.13.23.23" fill="#edf6f9"/><path d="M1398.67,659.65c75.82-21.41,154.54-38.84,233.37-42.78,26.33-1.33,140.5,3.79,158.2,15.28-11,2.69-23.23,3.21-34.44,4.56-23.62,2.83-47.28,5.55-70.67,10q-29.36,5.68-58.27,13.35c-13.4,3.64-27.69,9.18-41.47,10.85-8.27,1-18.19-2.56-26.76-3-5.64-2.51-16.32-2.42-22.66-3.14a823,823,0,0,0-88.49-5.54C1431.25,659.13,1414.87,660.6,1398.67,659.65Z" fill="#83c5be"/><path d="M1001.57,639c-29.82,11-66.41,16.56-97.62,23.54l-143.69,33c-21.7,4.84-58.08,11.11-77.75,19.16,22.46.8,51.69,6.87,72.17,15.84l-.58.27c2.89-1,6.25-2.3,9.29-2.62,4.77-.49,9.89,1.08,14.69,1.22,6.26.18,12.54-1.33,18.8-.61a25.36,25.36,0,0,1,8.56,2.93q2.88,1.49,5.72,3c9.73-7,19.44-11.34,30.44-15.92,15.26,2.42,31.34,5.68,46.73,6.47,9.38.49,19.16-1,28.38-.25l-1.15,5.56c-4.1,1.59-5.33-1.53-8,3.84.63,4.7.9,5.3-1.63,9.45a6.36,6.36,0,0,0,3.59,3.11l0-4c2.62,1.26,4,4.18,6.83,4.22l1-2.94.89.61.3,3.39-2.73.27-.31.44c-1.48,2-2.94,2.45-5.23,3.17l-.49,1.78a5,5,0,0,0,2.86,2.16c1.17,3.44-.48,10.5,3.15,12.12,2.94,1.32,8-.39,10.72-1.61l4.71,1.91c.37.07.73.16,1.08.22,5.55,1,14.66-3.61,19.4,1.87,2.95,3.42,1.8,15.26,1.17,19.68-.08.51-.2,1-.3,1.51-10.57,1.65-286-65.41-297.18-72.61-1.2-3.41,2.51-4.53,2.85-7.91a3,3,0,0,0-1.07-2.69c-3.79-4.45-9.58-2.88-14.51-3.86-2.74-.54-4.07-2.38-5.55-4.55l-.52-.77a16.65,16.65,0,0,0-7.78-1.24,13.17,13.17,0,0,1-2.25,3.73,22.64,22.64,0,0,0-3.23-1.52c-1.23-.43-4.53,1.69-5.82,2.32l1.17,1.29-1.37-.52a20.42,20.42,0,0,1-.7,2.77c-1.88-3.81.13-8.17-1.35-12.44a7.58,7.58,0,0,0-4.33-2.77l-3.07,2.09a15.72,15.72,0,0,1-3.57-3.34l-.41-.5c-2,.09-2.26.72-3.73,2.05-2.62.23-4.29.51-6.43,2.1-1.17.87-2.35,1.69-3.52,2.54a6.71,6.71,0,0,0-3.14-1.72l-7.67,5.05a10.81,10.81,0,0,1-5.61-1.85c-1.68-3-1.08-6.59-1-10-1.84-3-3.58-3.14-6.51-4.86-.17-1.35-.24-3.16-1-4.31-2.45-3.77-9.59.87-13.38.23a17,17,0,0,0-2.49-3.47c-3.85.54-7.81,1.27-11.69,1.47-2.08.11-3.24.3-4.84-1.12l1.77-2.4-.35-2.06-2.49-1.53c-2.41-5.8-1.87-2.35-6.22-3.21-.82-.17-3.21-1.9-4.06-2.35-2.56,1.47-2.57,2.72-3.55,5.41-1.61,0-4.6-4.11-6.12-5.33-2.29.2-4.18.55-6.31-.52-1.23-2.56-2.8-6.89-5.16-8.52-2.77-1.92-6-1.43-9.09-.73l-.91.21-1.91-2.12c-.2-3.44,0-3.46,2.15-6.21a37.33,37.33,0,0,1,14.87-7.92c11.45-2.9,20,2.55,30.93,3.4,5.1.4,10.24-.93,15.33.07a33,33,0,0,1,10.53,4.44l.94.58,1.11-1.12-1.32,1.3-.57-.82c8.22-1.62,10.72-1.79,18.74-.77,2.17.27,6.33-7.44,9.79-8.66,6.5-2.28,15.72,1.48,20.86-.82,1.44-.64,3.66-3.76,5.13-4.88,3-2.24,8.29-2.27,11.82-1.71,11.09,1.76,20.39,8.5,26.77,17.47,5.19-1.25,11-2.51,16.19-.77,6.24,2.07,8.86,7.21,11.68,12.73,26-7.39,23,2.12,42.39,9.77,7-.54,8.37-9.52,13-13.85,2.25-2.1,5.36-3.4,8.12-4.67q1.41-2.36,3-4.59c5.2-7.33,14-11.51,22.74-12.94,12.72-2.1,22.08,1.07,32.26,8.4,15-3.93,27.69-4.66,42,2.17.87-.94,1.78-1.85,2.71-2.73,7.47-7.15,17.76-10.13,28-9.85a52.72,52.72,0,0,1,37.41,16.56,55.87,55.87,0,0,1,8.86-5.73c8.07-3.94,17-3.84,25.39-.91,3.6-1.42,7.43-3.14,11.3-3.57s37.3.16,39.18.91A8.24,8.24,0,0,1,1001.57,639Z" fill="#edf6f9"/><path d="M1599.49,674.81c29.17-4.88,58-13.54,87-19.7a1246.44,1246.44,0,0,1,132.07-20,9.76,9.76,0,0,1,1.54,4.5c.9,11.16,1.41,98.4-.35,104.75a11,11,0,0,1-.78,1.92c-7.12-4.28-32.31-9.35-42.19-12.85-16.91-6-33.36-13.52-50-20.21C1687.74,697.6,1641.26,680.3,1599.49,674.81Z" fill="#83c5be"/><path d="M1154.51,733.07c-14.1,7.55-102.47,34.59-115.78,32.28a27.36,27.36,0,0,0-3-.24l1.78-1.07c0-2.93,1.09-5.37.83-8.39l-5.58-1.37-.87-3.54c-4.11-2.63-10.67,1.07-14.3-.89-1.87-1-2-2.56-4.39-3.28l-2.82,2.88-1.33-.19-1.93-2.73c-3.64-1.46-4.48,4.25-8.56,5.11l-1.87-1.72c1.14-2.2,3.14-5.19,3.33-7.66.21-2.74,1.6-4.39.32-7a9.87,9.87,0,0,1,1.31-2.69c3-3.83,9.92-3.29,14.24-3.46,3.53-1.86,6.73-4.41,10.22-6.35,6.68-3.7,15.78-5.24,23.16-3,5.82,1.79,12.41,7,15.33,12.36,12.69-3.44,22.26-12.66,36-13.36,3.79-.19,8.55.39,11.31,3.27,2,2.15,3.82,5.33,3.89,8.31,9-1.44,17.15-8.07,26.3-7.33,5,.41,9.2,3.57,12.26,7.38C1155.05,731.31,1154.64,732,1154.51,733.07Z" fill="#edf6f9"/><path d="M955.79,768.3c1.19-4.07,2-8,6-10.24.84-.47,2,.18,2.86.45a18.35,18.35,0,0,1,3.78,7.73l1.11,1.5c-1.25,1.61-1.61,1.47-3.53,1.92-1.65-.8-1.67-1.4-2.47-3-1.5,2.92-.71,6.53-3.24,8.64C957.69,773.48,957,771.1,955.79,768.3Z" fill="#edf6f9"/><path d="M960.61,783c4.57-4.19,9.11-8.67,14.39-11.93l4.27.71.85,1.62c-3.86,4.94-11.4,8-16.74,11.23Z" fill="#edf6f9"/></svg>